SplineFontDB: 3.0
FontName: HussarBd
FullName: Hussar Bold
FamilyName: Hussar
Weight: Bold
Copyright: (c) 2014-2015, Robert Jablonski/Cannot Into Space Fonts, all rights reserved. Design Improvements (c) 2015, "Crazy Dave"@ PlusOne Fonts, Mew Too/Cannot Into Space Fonts, Robert Jablonski/Cannot Into Space Fonts, Jasper@Cannot Into Space Fonts, All Rights Reserved.
Version: 2.21
ItalicAngle: 0
UnderlinePosition: -50
UnderlineWidth: 50
Ascent: 750
Descent: 250
InvalidEm: 0
sfntRevision: 0x000235c3
LayerCount: 2
Layer: 0 0 "Back" 1
Layer: 1 0 "Fore" 0
XUID: [1021 604 120746000 2512]
StyleMap: 0x0000
FSType: 0
OS2Version: 3
OS2_WeightWidthSlopeOnly: 0
OS2_UseTypoMetrics: 0
CreationTime: 1411326290
ModificationTime: 1437157562
PfmFamily: 81
TTFWeight: 700
TTFWidth: 5
LineGap: 0
VLineGap: 0
Panose: 0 0 8 0 0 0 0 0 0 0
OS2TypoAscent: 750
OS2TypoAOffset: 0
OS2TypoDescent: -250
OS2TypoDOffset: 0
OS2TypoLinegap: 0
OS2WinAscent: 900
OS2WinAOffset: 0
OS2WinDescent: 350
OS2WinDOffset: 0
HheadAscent: 900
HheadAOffset: 0
HheadDescent: -350
HheadDOffset: 0
OS2SubXSize: 650
OS2SubYSize: 600
OS2SubXOff: 0
OS2SubYOff: 75
OS2SupXSize: 650
OS2SupYSize: 600
OS2SupXOff: 0
OS2SupYOff: 350
OS2StrikeYSize: 50
OS2StrikeYPos: 307
OS2CapHeight: 825
OS2XHeight: 608
OS2FamilyClass: 1283
OS2Vendor: 'CiSf'
OS2CodePages: 2000009f.00000000
OS2UnicodeRanges: a00006bf.5200c0ea.06008000.00000000
Lookup: 4 0 1 "<1,2> Common Ligatures lookup 0" { "<1,2> Common Ligatures lookup 0 subtable"  } [<1,2> ('DFLT' <'dflt' > ) 'liga' ('DFLT' <'dflt' > ) ]
Lookup: 258 0 0 "'kern' Horizontal Kerning in Latin lookup 0" { "'kern' Horizontal Kerning in Latin lookup 0 subtable"  } ['kern' ('DFLT' <'dflt' > 'latn' <'dflt' > ) ]
Lookup: 258 0 0 "'kern' Horizontal Kerning in Latin lookup 1" { "'kern' Horizontal Kerning in Latin lookup 1 subtable"  } ['kern' ('DFLT' <'dflt' > 'latn' <'dflt' > ) ]
MarkAttachClasses: 1
DEI: 91125
KernClass2: 21 24 "'kern' Horizontal Kerning in Latin lookup 1 subtable"

StartChar: .notdef
Encoding: 65536 -1 0
Width: 543
Flags: W
HStem: 0 50<121.5 421.5> 450 50<121.5 421.5>
VStem: 71.5 50<50 450> 421.5 50<50 450>
LayerCount: 2
Fore
SplineSet
121.5 50 m 1
 421.5 50 l 1
 421.5 450 l 1
 121.5 450 l 1
 121.5 50 l 1
71.5 0 m 1
 71.5 500 l 1
 471.5 500 l 1
 471.5 0 l 1
 71.5 0 l 1
EndSplineSet
EndChar

StartChar: exclam
Encoding: 33 33 2
Width: 308
Flags: W
HStem: 0 176<100.758 211.242> 805 20G<65.5 242.5>
VStem: 71 170<30.6549 145.345 771.364 825> 87.5 132<235 414.565>
LayerCount: 2
Fore
SplineSet
87.5 235 m 1xd0
 65.5 825 l 1
 242.5 825 l 1
 219.5 235 l 1
 87.5 235 l 1xd0
71 88 m 0xe0
 71 136 110 176 156 176 c 0
 202 176 241 136 241 88 c 0
 241 40 202 0 156 0 c 0
 110 0 71 40 71 88 c 0xe0
EndSplineSet
EndChar

StartChar: quotedbl
Encoding: 34 34 3
Width: 430
Flags: W
HStem: 581 279<82.0898 174.91 255.09 347.91>
VStem: 82.0898 92.8203<581 679.192> 255.09 92.8203<581 679.192>
LayerCount: 2
Fore
SplineSet
62.2001953125 860 m 1
 194.799804688 860 l 1
 174.91015625 581 l 1
 82.08984375 581 l 1
 62.2001953125 860 l 1
235.200195312 860 m 1
 367.799804688 860 l 1
 347.91015625 581 l 1
 255.08984375 581 l 1
 235.200195312 860 l 1
EndSplineSet
EndChar

StartChar: numbersign
Encoding: 35 35 4
Width: 764
Flags: W
HStem: 0 21G<96 225.205 328 457.205> 219 121<83 153 309 385 541 616> 486 121<148 223 379 455 611 681> 805 20G<306.771 436 538.771 668>
LayerCount: 2
Fore
SplineSet
417 340 m 1
 455 486 l 1
 347 486 l 1
 309 340 l 1
 417 340 l 1
277 219 m 1
 220 0 l 1
 96 0 l 1
 153 219 l 1
 51 219 l 1
 83 340 l 1
 185 340 l 1
 223 486 l 1
 116 486 l 1
 148 607 l 1
 255 607 l 1
 312 825 l 1
 436 825 l 1
 379 607 l 1
 487 607 l 1
 544 825 l 1
 668 825 l 1
 611 607 l 1
 713 607 l 1
 681 486 l 1
 579 486 l 1
 541 340 l 1
 648 340 l 1
 616 219 l 1
 509 219 l 1
 452 0 l 1
 328 0 l 1
 385 219 l 1
 277 219 l 1
EndSplineSet
EndChar

StartChar: dollar
Encoding: 36 36 5
Width: 723
Flags: W
VStem: 123 184<552.877 643.118> 334 120<-78 -12.8983 832.827 890> 466 206<187.262 282.142>
LayerCount: 2
Fore
SplineSet
466 240 m 0
 466 352.80078125 123 399 123 588 c 0
 123 720 222 810 334 834 c 1
 334 932 l 1
 454 890 l 1
 454 836 l 1
 570 820 648 762 648 762 c 1
 572 612 l 1
 572 612 490 669 405 669 c 0
 341 669 307 640 307 595 c 0
 307 479.6171875 672 467 672 251 c 0
 672 93 575 18 454 -6 c 1
 454 -109 l 1
 334 -78 l 1
 334 -14 l 1
 157 -5 51 94 51 94 c 1
 145 252 l 1
 145 252 255 159 347 159 c 0
 388 159 466 163 466 240 c 0
EndSplineSet
EndChar

StartChar: percent
Encoding: 37 37 6
Width: 981
Flags: W
HStem: -15 116.344<666.787 781.203> 0 21G<194.5 324.136> 275.906 116.344<667.606 780.392> 440 116.344<201.787 316.203> 730.906 116.344<202.606 315.392> 805 20G<662.864 792.5>
VStem: 51 118.668<587.959 698.743> 347.082 118.668<587.959 698.743> 516 118.668<132.959 243.743> 812.082 118.668<132.959 243.743>
LayerCount: 2
Fore
SplineSet
169.66796875 643.26953125 m 0x3bc0
 169.66796875 596.95703125 210.28125 556.34375 258.73046875 556.34375 c 0
 307.181640625 556.34375 347.08203125 596.95703125 347.08203125 643.26953125 c 0
 347.08203125 689.58203125 307.181640625 730.90625 258.73046875 730.90625 c 0
 210.28125 730.90625 169.66796875 689.58203125 169.66796875 643.26953125 c 0x3bc0
51 643.25 m 0
 51 752 145.5 847.25 259.5 847.25 c 0
 373.5 847.25 465.75 752 465.75 643.25 c 0
 465.75 534.5 373.5 440 259.5 440 c 0
 145.5 440 51 534.5 51 643.25 c 0
634.66796875 188.26953125 m 0
 634.66796875 141.95703125 675.28125 101.34375 723.73046875 101.34375 c 0xb3c0
 772.181640625 101.34375 812.08203125 141.95703125 812.08203125 188.26953125 c 0
 812.08203125 234.58203125 772.181640625 275.90625 723.73046875 275.90625 c 0
 675.28125 275.90625 634.66796875 234.58203125 634.66796875 188.26953125 c 0
516 188.25 m 0
 516 297 610.5 392.25 724.5 392.25 c 0
 838.5 392.25 930.75 297 930.75 188.25 c 0
 930.75 79.5 838.5 -15 724.5 -15 c 0
 610.5 -15 516 79.5 516 188.25 c 0
792.5 825 m 1x77c0
 312.5 0 l 1
 194.5 0 l 1
 674.5 825 l 1
 792.5 825 l 1x77c0
EndSplineSet
EndChar

StartChar: ampersand
Encoding: 38 38 7
Width: 972
Flags: W
HStem: -15 178<291.128 441.625> 0 21G<668.316 924> 707 133<384.565 493.166>
VStem: 53 213<189.303 286.028> 171 191<569.152 687.496> 514 165<577.737 683.088>
LayerCount: 2
Fore
SplineSet
483 210 m 1xb4
 352 339 l 1
 352 339 266 308 266 232 c 0
 266 184 315 163 359 163 c 0
 427 163 483 210 483 210 c 1xb4
434 707 m 0
 383 707 362 669 362 625 c 0x2c
 362 577 422 524 422 524 c 1
 464 547 514 581 514 625 c 0
 514 669 495 707 434 707 c 0
517 413 m 1
 734 198 790 288 863 298 c 1
 863 298 838 265 746 185 c 1
 924 0 l 1
 687 0 l 1x6c
 616 76 l 1
 544 25 467 -15 340 -15 c 0
 218 -15 53 34 53 217 c 0xb4
 53 354 282 414 253 451 c 1
 253 451 171 560 171 625 c 0
 171 753 263 840 434 840 c 0
 599 840 678.1796875 727.997070312 679 625 c 0
 679.967773438 503.59375 487.8359375 451.467773438 517 413 c 1
EndSplineSet
EndChar

StartChar: quotesingle
Encoding: 39 39 8
Width: 257
Flags: W
HStem: 581 279<82.0898 174.91>
VStem: 82.0898 92.8203<581 679.192>
LayerCount: 2
Fore
SplineSet
62.2001953125 860 m 1
 194.799804688 860 l 1
 174.91015625 581 l 1
 82.08984375 581 l 1
 62.2001953125 860 l 1
EndSplineSet
EndChar

StartChar: parenleft
Encoding: 40 40 9
Width: 409
Flags: W
HStem: -260 21G<227.5 274.439>
VStem: 52.5 163<94.7193 494.379>
LayerCount: 2
Fore
SplineSet
342.5 -211 m 1
 227.5 -260 l 1
 227.5 -260 52.5 -49 52.5 297 c 0
 52.5 653 241.5 875 241.5 875 c 1
 356.5 826 l 1
 356.5 826 215.5 655 215.5 297 c 0
 215.5 -41 342.5 -211 342.5 -211 c 1
EndSplineSet
EndChar

StartChar: parenright
Encoding: 41 41 10
Width: 410
Flags: W
HStem: -260 21G<135.061 182>
VStem: 194 163<94.7193 494.379>
LayerCount: 2
Fore
SplineSet
182 -260 m 1
 67 -211 l 1
 67 -211 194 -41 194 297 c 0
 194 655 53 826 53 826 c 1
 168 875 l 1
 168 875 357 653 357 297 c 0
 357 -49 182 -260 182 -260 c 1
EndSplineSet
EndChar

StartChar: asterisk
Encoding: 42 42 11
Width: 476
Flags: W
HStem: 513 21G<138.667 183.385 292.615 337.333>
VStem: 194 88<743 860>
LayerCount: 2
Fore
SplineSet
396 778 m 1
 422 698 l 1
 308 657 l 1
 374 558 l 1
 308 513 l 1
 238 604 l 1
 168 513 l 1
 102 558 l 1
 168 657 l 1
 54 698 l 1
 80 778 l 1
 194 743 l 1
 195 860 l 1
 281 860 l 1
 282 743 l 1
 396 778 l 1
EndSplineSet
EndChar

StartChar: plus
Encoding: 43 43 12
Width: 636
Flags: W
HStem: 338 153<61.5 241.5 394.5 574.5>
VStem: 241.5 153<158 338 491 671>
LayerCount: 2
Fore
SplineSet
394.5 158 m 1
 241.5 158 l 1
 241.5 338 l 1
 61.5 338 l 1
 61.5 491 l 1
 241.5 491 l 1
 241.5 671 l 1
 394.5 671 l 1
 394.5 491 l 1
 574.5 491 l 1
 574.5 338 l 1
 394.5 338 l 1
 394.5 158 l 1
EndSplineSet
EndChar

StartChar: comma
Encoding: 44 44 13
Width: 295
Flags: W
HStem: -135.75 301.5
VStem: 61.625 171.75<26.3784 136.093>
LayerCount: 2
Fore
SplineSet
147.125 165.75 m 0
 195.125 165.75 233.375 127.5 233.375 79.5 c 0
 233.375 -11.25 168.875 -84.75 107.375 -135.75 c 1
 69.125 -104.25 l 1
 69.125 -104.25 114.125 -61.5 126.125 0.75 c 1
 89.375 9.75 61.625 39.75 61.625 79.5 c 0
 61.625 127.5 99.875 165.75 147.125 165.75 c 0
EndSplineSet
EndChar

StartChar: hyphen
Encoding: 45 45 14
Width: 455
Flags: W
HStem: 213 153<66.5 388.5>
VStem: 66.5 322<213 366>
LayerCount: 2
Fore
SplineSet
66.5 366 m 1
 388.5 366 l 1
 388.5 213 l 1
 66.5 213 l 1
 66.5 366 l 1
EndSplineSet
EndChar

StartChar: period
Encoding: 46 46 15
Width: 294
Flags: W
HStem: 0 176<91.7577 202.242>
VStem: 62 170<30.6549 145.345>
LayerCount: 2
Fore
SplineSet
62 88 m 0
 62 136 101 176 147 176 c 0
 193 176 232 136 232 88 c 0
 232 40 193 0 147 0 c 0
 101 0 62 40 62 88 c 0
EndSplineSet
EndChar

StartChar: slash
Encoding: 47 47 16
Width: 652
Flags: W
LayerCount: 2
Fore
SplineSet
608.5 860 m 1
 196.5 -120 l 1
 43.5 -120 l 1
 455.5 860 l 1
 608.5 860 l 1
EndSplineSet
EndChar

StartChar: zero
Encoding: 48 48 17
Width: 792
Flags: W
HStem: -15 165<329.964 462.7> 675 165<331.602 461.074>
VStem: 60.5 190<257.507 560.318> 541.5 190<257.507 560.539>
LayerCount: 2
Fore
SplineSet
250.5 412 m 0
 250.5 234 305.5 150 396.5 150 c 0
 486.5 150 541.5 234 541.5 412 c 0
 541.5 579 486.5 675 396.5 675 c 0
 305.5 675 250.5 578 250.5 412 c 0
60.5 412 m 0
 60.5 698 219.5 840 396.5 840 c 0
 573.5 840 731.5 698 731.5 412 c 0
 731.5 106 573.5 -15 396.5 -15 c 0
 219.5 -15 60.5 106 60.5 412 c 0
EndSplineSet
EndChar

StartChar: one
Encoding: 49 49 18
Width: 457
Flags: W
HStem: 0 21G<202.5 390.5> 805 20G<270.579 390.5>
VStem: 202.5 188<0 575>
LayerCount: 2
Fore
SplineSet
66.5 487 m 1
 66.5 673 l 1
 301.5 825 l 1
 390.5 825 l 1
 390.5 0 l 1
 202.5 0 l 1
 202.5 575 l 1
 66.5 487 l 1
EndSplineSet
EndChar

StartChar: two
Encoding: 50 50 19
Width: 755
Flags: W
HStem: 0 165<393 699> 524 21G<175.684 217> 681 159<310.286 430.215>
VStem: 481 203<481.396 633.989>
LayerCount: 2
Fore
SplineSet
364 681 m 0
 274 681 217 524 217 524 c 1
 60 600 l 1
 60 600 140 840 364 840 c 0
 647 840 684 654 684 550 c 0
 684 357 393 165 393 165 c 1
 699 165 l 1
 699 0 l 1
 56 0 l 1
 56 47 l 1
 56 47 481 398 481 550 c 0
 481 580 474 681 364 681 c 0
EndSplineSet
EndChar

StartChar: three
Encoding: 51 51 20
Width: 720
Flags: W
HStem: -15 162<285.576 441.144> 371 123<325 415.906> 689 151<293.458 424.147>
LayerCount: 2
Fore
SplineSet
92 659 m 1
 92 659 134 840 365 840 c 0
 522 840 636 740 636 600 c 0
 636 532 608 480 563 445 c 1
 627 406 668 343 668 256 c 0
 668 98 539 -15 362 -15 c 0
 108 -15 52 188 52 188 c 1
 226 273 l 1
 226 273 237 147 361 147 c 0
 535.5234375 147 582 379 325 371 c 1
 325 494 l 1
 532 494 485.034179688 689 363 689 c 0
 259 689 240 587 240 587 c 1
 92 659 l 1
EndSplineSet
EndChar

StartChar: four
Encoding: 52 52 21
Width: 782
Flags: W
HStem: 0 21G<455 631> 174 165<306 455 631 727> 805 20G<372.941 631>
VStem: 455 176<0 174 339 574>
LayerCount: 2
Fore
SplineSet
455 574 m 1
 415 574 l 1
 306 339 l 1
 455 339 l 1
 455 574 l 1
631 825 m 1
 631 339 l 1
 727 339 l 1
 727 174 l 1
 631 174 l 1
 631 0 l 1
 455 0 l 1
 455 174 l 1
 55 174 l 1
 55 230 l 1
 384 825 l 1
 631 825 l 1
EndSplineSet
EndChar

StartChar: five
Encoding: 53 53 22
Width: 706
Flags: W
HStem: -15 157<257.169 418.599> 407 138<322 372.684> 660 165<340 600>
LayerCount: 2
Fore
SplineSet
347 142 m 0
 510.651367188 142 551 407 251 407 c 0
 182 407 135 392 110 381 c 1
 179 825 l 1
 600 825 l 1
 600 660 l 1
 340 660 l 1
 322 545 l 1
 506 545 653 485 653 256 c 0
 653 98 524 -15 347 -15 c 0
 171 -15 84 80 53 164 c 1
 202 236 l 1
 217 185 261 142 347 142 c 0
EndSplineSet
EndChar

StartChar: six
Encoding: 54 54 23
Width: 748
Flags: W
HStem: -15 155<307.521 448.569> 393 161<369.793 446.25> 805 20G<321 597.5>
VStem: 56.5 195<192.626 335.074> 503.5 188<195.396 335.281>
LayerCount: 2
Fore
SplineSet
251.5 265 m 0
 251.5 193 303.5 140 376.5 140 c 0
 449.5 140 503.5 193 503.5 265 c 0
 503.5 339 447.5 393 376.5 393 c 0
 307.5 393 251.5 339 251.5 265 c 0
380.5 825 m 1
 597.5 825 l 1
 369.5 542 l 1
 369.5 542 390.5 554 428.5 554 c 0
 541.5 554 691.5 457 691.5 265 c 0
 691.5 70 534.5 -15 385.5 -15 c 0
 200.5 -15 56.5 107 56.5 265 c 0
 56.5 410 261.5 665 380.5 825 c 1
EndSplineSet
EndChar

StartChar: seven
Encoding: 55 55 24
Width: 760
Flags: W
HStem: 0 21G<51 316.803> 660 165<76 431>
LayerCount: 2
Fore
SplineSet
709 825 m 1
 709 770 l 1
 523.080078125 513.333007812 360.606445312 256.666992188 273 0 c 1
 51 0 l 1
 153.990234375 226.587890625 236.666015625 458.829101562 431 660 c 1
 76 660 l 1
 76 825 l 1
 709 825 l 1
EndSplineSet
EndChar

StartChar: eight
Encoding: 56 56 25
Width: 726
Flags: W
HStem: -15 162<296.699 428.264> 357 156<303.666 423.288> 698 142<304.556 421.943>
VStem: 54.5 204<188.05 317.331> 89.5 181<545.158 665.079> 454.5 178<542.712 665.925> 467.5 204<188.05 316.343>
LayerCount: 2
Fore
SplineSet
258.5 252 m 0xf2
 258.5 191 300.5 147 362.5 147 c 0
 422.5 147 467.5 191 467.5 252 c 0
 467.5 314 420.5 357 362.5 357 c 0
 303.5 357 258.5 314 258.5 252 c 0xf2
454.5 605 m 0xec
 454.5 658 417.5 698 363.5 698 c 0
 310.5 698 270.5 658 270.5 605 c 0
 270.5 550 312.5 513 363.5 513 c 0
 416.5 513 454.5 550 454.5 605 c 0xec
632.5 632 m 0
 632.5 541 588.5 481 526.5 445 c 1
 609.5 407 671.5 335 671.5 222 c 0
 671.5 83 518.5 -15 363.5 -15 c 0
 203.5 -15 54.5 83 54.5 222 c 0xf2
 54.5 335 115.5 407 198.5 445 c 1
 135.5 481 89.5 541 89.5 632 c 0
 89.5 754 226.5 840 362.5 840 c 0
 503.5 840 632.5 754 632.5 632 c 0
EndSplineSet
EndChar

StartChar: nine
Encoding: 57 57 26
Width: 749
Flags: W
HStem: 0 21G<151 427.5> 271 161<302.25 378.707> 685 155<299.931 440.979>
VStem: 57 188<489.719 629.604> 497 195<489.926 632.374>
LayerCount: 2
Fore
SplineSet
497 560 m 0
 497 632 445 685 372 685 c 0
 299 685 245 632 245 560 c 0
 245 486 301 432 372 432 c 0
 441 432 497 486 497 560 c 0
368 0 m 1
 151 0 l 1
 379 283 l 1
 379 283 358 271 320 271 c 0
 207 271 57 368 57 560 c 0
 57 755 214 840 363 840 c 0
 548 840 692 718 692 560 c 0
 692 415 487 160 368 0 c 1
EndSplineSet
EndChar

StartChar: colon
Encoding: 58 58 27
Width: 301
Flags: W
HStem: 0 176<95.2577 205.742> 298 176<95.2577 205.742>
VStem: 65.5 170<30.6549 145.345 328.655 443.345>
LayerCount: 2
Fore
SplineSet
65.5 88 m 0
 65.5 136 104.5 176 150.5 176 c 0
 196.5 176 235.5 136 235.5 88 c 0
 235.5 40 196.5 0 150.5 0 c 0
 104.5 0 65.5 40 65.5 88 c 0
65.5 386 m 0
 65.5 434 104.5 474 150.5 474 c 0
 196.5 474 235.5 434 235.5 386 c 0
 235.5 338 196.5 298 150.5 298 c 0
 104.5 298 65.5 338 65.5 386 c 0
EndSplineSet
EndChar

StartChar: semicolon
Encoding: 59 59 28
Width: 302
Flags: W
HStem: 298 176<94.3202 204.805>
VStem: 65.6875 171.75<26.3784 136.093 331.924 440.076>
LayerCount: 2
Fore
SplineSet
64.5625 386 m 0
 64.5625 434 103.5625 474 149.5625 474 c 0
 195.5625 474 234.5625 434 234.5625 386 c 0
 234.5625 338 195.5625 298 149.5625 298 c 0
 103.5625 298 64.5625 338 64.5625 386 c 0
151.1875 165.75 m 0
 199.1875 165.75 237.4375 127.5 237.4375 79.5 c 0
 237.4375 -11.25 172.9375 -84.75 111.4375 -135.75 c 1
 73.1875 -104.25 l 1
 73.1875 -104.25 118.1875 -61.5 130.1875 0.75 c 1
 93.4375 9.75 65.6875 39.75 65.6875 79.5 c 0
 65.6875 127.5 103.9375 165.75 151.1875 165.75 c 0
EndSplineSet
EndChar

StartChar: less
Encoding: 60 60 29
Width: 672
Flags: W
LayerCount: 2
Fore
SplineSet
62.5 475 m 1
 609.5 697 l 1
 609.5 555 l 1
 251.5 415 l 1
 609.5 277 l 1
 609.5 135 l 1
 62.5 357 l 1
 62.5 475 l 1
EndSplineSet
EndChar

StartChar: equal
Encoding: 61 61 30
Width: 652
Flags: W
HStem: 218 153<69.5 582.5> 458 153<69.5 582.5>
LayerCount: 2
Fore
SplineSet
69.5 371 m 1
 582.5 371 l 1
 582.5 218 l 1
 69.5 218 l 1
 69.5 371 l 1
69.5 611 m 1
 582.5 611 l 1
 582.5 458 l 1
 69.5 458 l 1
 69.5 611 l 1
EndSplineSet
EndChar

StartChar: greater
Encoding: 62 62 31
Width: 674
Flags: W
LayerCount: 2
Fore
SplineSet
63.5 277 m 1
 421.5 415 l 1
 63.5 555 l 1
 63.5 697 l 1
 610.5 475 l 1
 610.5 357 l 1
 63.5 135 l 1
 63.5 277 l 1
EndSplineSet
EndChar

StartChar: question
Encoding: 63 63 32
Width: 656
Flags: W
HStem: 0 176<263.758 374.242> 643 157<252.016 374.129>
VStem: 234 170<30.6549 145.345 230 354.533> 399 204<505.077 617.496>
LayerCount: 2
Fore
SplineSet
434 362 m 1xd0
 397 335 399.598632812 322.647460938 399 230 c 1xd0
 234 230 l 1xe0
 234 382 237 420 281 448 c 0
 342 487 399 490 399 561 c 0
 399 609 363 643 318 643 c 0
 246 643 211 583 200 540 c 1
 53 611 l 1
 53 616 96 800 319 800 c 0
 469 800 603 702 603 561 c 0
 603 463 530 403 434 362 c 1xd0
234 88 m 0xe0
 234 136 273 176 319 176 c 0
 365 176 404 136 404 88 c 0
 404 40 365 0 319 0 c 0
 273 0 234 40 234 88 c 0xe0
EndSplineSet
EndChar

StartChar: at
Encoding: 64 64 33
Width: 994
Flags: W
HStem: -15 142<394.548 625.593> 202 123<435.994 546.662> 223 133<705 806.614> 487 119<437.413 550.786> 709 131<397.356 632.791>
VStem: 59 146<308.451 518.217> 269 139<351.462 459.123> 816 119<363.073 540.381>
LayerCount: 2
Fore
SplineSet
408 405 m 0xdf
 408 359 444.299804688 325 497.099609375 325 c 0
 546.599609375 325 584 359 584 405 c 0
 584 452 544.400390625 487 497.099609375 487 c 0
 447.599609375 487 408 452 408 405 c 0xdf
761 356 m 0xbf
 804 356 816 368 816 442 c 0
 816 599 683 709 509 709 c 0
 339 709 205 576 205 413 c 0
 205 250 342 127 509 127 c 0
 641 127 696 195 696 195 c 1
 812 118 l 1
 812 118 725 -15 509 -15 c 0
 265 -15 59 159 59 413 c 0
 59 667 265 840 509 840 c 0
 743 840 935 678 935 442 c 0
 935 286 830 223 732 223 c 0xbf
 678 223 626 241 593 269 c 1
 568 222 511 202 458 202 c 0xdf
 348 202 269 291 269 403 c 0
 269 516 348 606 458 606 c 0
 767 606 692.525390625 356 761 356 c 0xbf
EndSplineSet
EndChar

StartChar: A
Encoding: 65 65 34
Width: 931
Flags: W
HStem: 0 21G<45.5 254.773 675.985 885.5> 165 165<371.5 557.5> 805 20G<369.452 559.597>
LayerCount: 2
Fore
SplineSet
551.5 825 m 1
 885.5 0 l 1
 683.5 0 l 1
 621.5 165 l 1
 307.5 165 l 1
 247.5 0 l 1
 45.5 0 l 1
 377.5 825 l 1
 551.5 825 l 1
557.5 330 m 1
 463.5 570 l 1
 371.5 330 l 1
 557.5 330 l 1
EndSplineSet
EndChar

StartChar: B
Encoding: 66 66 35
Width: 727
Flags: W
HStem: 0 142<264 413.981> 346 126<264 399.299> 676 145<264 399.203>
VStem: 67 197<142 346 472 676> 432 201<503.848 642.489> 459 201<183.256 300.72>
LayerCount: 2
Fore
SplineSet
264 472 m 1xf8
 288 472 l 2
 363 472 432 477 432 574 c 0
 432 671 363 676 288 676 c 2
 264 676 l 1
 264 472 l 1xf8
264 346 m 1
 264 142 l 1
 288 142 l 2
 363 142 459 147 459 244 c 0xf4
 459 341 329 346 288 346 c 2
 264 346 l 1
565 419 m 1
 624 378 660 315 660 232 c 0xf4
 660 79 538 0 377 0 c 2
 67 0 l 1
 67 821 l 1
 377 821 l 2
 538 821 633 739 633 586 c 0xf8
 633 516 608 459 565 419 c 1
EndSplineSet
EndChar

StartChar: C
Encoding: 67 67 36
Width: 798
Flags: W
HStem: -15 185<417.089 657.998> 655 185<416.945 657.998>
VStem: 56.5 204<316.166 507.757>
LayerCount: 2
Fore
SplineSet
741.5 25 m 1
 741.5 25 682.5 -15 503.5 -15 c 0
 270.5 -15 56.5 175 56.5 411 c 0
 56.5 648 269.5 840 503.5 840 c 0
 682.5 840 741.5 800 741.5 800 c 1
 701.5 615 l 1
 701.5 615 628.5 655 532.5 655 c 0
 343.5 655 260.5 523 260.5 413 c 0
 260.5 302 343.5 170 532.5 170 c 0
 628.5 170 701.5 210 701.5 210 c 1
 741.5 25 l 1
EndSplineSet
EndChar

StartChar: D
Encoding: 68 68 37
Width: 791
Flags: W
HStem: 0 168<256 389.575> 657 168<256 389.575>
VStem: 68 188<168 657> 522 201<293.486 531.414>
LayerCount: 2
Fore
SplineSet
522 412 m 0
 522 556 459 657 256 657 c 1
 256 168 l 1
 459 168 522 268 522 412 c 0
68 825 m 1
 308 825 l 2
 534 825 723 653 723 413 c 0
 723 172 535 0 308 0 c 2
 68 0 l 1
 68 825 l 1
EndSplineSet
EndChar

StartChar: E
Encoding: 69 69 38
Width: 613
Flags: W
HStem: 0 165<258.5 542.5> 331 165<258.5 530.5> 660 165<258.5 542.5>
VStem: 70.5 188<165 331 496 660>
LayerCount: 2
Fore
SplineSet
542.5 825 m 1
 542.5 660 l 1
 258.5 660 l 1
 258.5 496 l 1
 530.5 496 l 1
 530.5 331 l 1
 258.5 331 l 1
 258.5 165 l 1
 542.5 165 l 1
 542.5 0 l 1
 70.5 0 l 1
 70.5 825 l 1
 542.5 825 l 1
EndSplineSet
EndChar

StartChar: F
Encoding: 70 70 39
Width: 608
Flags: W
HStem: 0 21G<65 253> 331 165<253 521> 660 165<253 543>
VStem: 65 188<0 331 496 660>
LayerCount: 2
Fore
SplineSet
543 825 m 1
 543 660 l 1
 253 660 l 1
 253 496 l 1
 521 496 l 1
 521 331 l 1
 253 331 l 1
 253 0 l 1
 65 0 l 1
 65 825 l 1
 543 825 l 1
EndSplineSet
EndChar

StartChar: G
Encoding: 71 71 40
Width: 903
Flags: W
HStem: -15 173<391.047 564.315> 0 21G<785.941 843> 317 145<482 652> 670 170<389.746 568.532>
VStem: 60 203<303.615 521.624> 746 97<31.5464 93.8164>
LayerCount: 2
Fore
SplineSet
843 462 m 1xbc
 843 0 l 1x7c
 746 34 l 1
 750.506835938 93.81640625 l 1
 681.975585938 18.2783203125 581.521484375 -15 462 -15 c 0
 240 -15 60 176 60 412 c 0
 60 649 230 840 462 840 c 0
 607 840 708 786 780 699 c 1
 657 564 l 1
 609 641 546 670 473 670 c 0
 357 670 263 555 263 412 c 0
 263 272 357 158 473 158 c 0
 563 158 652 216 652 317 c 1
 482 317 l 1
 448 462 l 1
 843 462 l 1xbc
EndSplineSet
EndChar

StartChar: H
Encoding: 72 72 41
Width: 744
Flags: W
HStem: 0 21G<75 263 481 669> 318 188<263 481> 805 20G<75 263 481 669>
VStem: 75 188<0 318 506 825> 481 188<0 318 506 825>
LayerCount: 2
Fore
SplineSet
669 825 m 1
 669 0 l 1
 481 0 l 1
 481 318 l 1
 263 318 l 1
 263 0 l 1
 75 0 l 1
 75 825 l 1
 263 825 l 1
 263 506 l 1
 481 506 l 1
 481 825 l 1
 669 825 l 1
EndSplineSet
EndChar

StartChar: I
Encoding: 73 73 42
Width: 338
Flags: W
HStem: 0 21G<75 263> 805 20G<75 263>
VStem: 75 188<0 825>
LayerCount: 2
Fore
SplineSet
263 825 m 1
 263 0 l 1
 75 0 l 1
 75 825 l 1
 263 825 l 1
EndSplineSet
EndChar

StartChar: J
Encoding: 74 74 43
Width: 597
Flags: W
HStem: -15 180<115.419 313.936> 805 20G<349.5 537.5>
VStem: 349.5 188<203.518 825>
LayerCount: 2
Fore
SplineSet
537.5 825 m 1
 537.5 233 l 2
 537.5 71 445.5 -15 280.5 -15 c 0
 162.5 -15 59.5 -5 59.5 -5 c 1
 119.5 175 l 1
 119.5 175 206.5 165 254.5 165 c 0
 308.5 165 349.5 198 349.5 281 c 2
 349.5 825 l 1
 537.5 825 l 1
EndSplineSet
EndChar

StartChar: K
Encoding: 75 75 44
Width: 869
Flags: W
HStem: 0 21G<58.5 246.5 535.989 810.5> 805 20G<58.5 246.5 516.51 758.5>
VStem: 58.5 188<0 825>
LayerCount: 2
Fore
SplineSet
810.5 0 m 1
 550.5 0 l 1
 246.5 419 l 1
 246.5 0 l 1
 58.5 0 l 1
 58.5 825 l 1
 246.5 825 l 1
 246.5 419 l 1
 530.5 825 l 1
 758.5 825 l 1
 460.5 419 l 1
 810.5 0 l 1
EndSplineSet
EndChar

StartChar: L
Encoding: 76 76 45
Width: 604
Flags: W
HStem: 0 165<254 538> 805 20G<66 254>
VStem: 66 188<165 825>
LayerCount: 2
Fore
SplineSet
254 825 m 1
 254 165 l 1
 538 165 l 1
 538 0 l 1
 66 0 l 1
 66 825 l 1
 254 825 l 1
EndSplineSet
EndChar

StartChar: M
Encoding: 77 77 46
Width: 1044
Flags: W
HStem: 0 21G<72.5 259.615 784.424 971.5> 805 20G<72.5 346.231 696.853 971.5>
VStem: 72.5 187<0 523> 784.5 187<0 523>
LayerCount: 2
Fore
SplineSet
570.5 5 m 1
 472.5 5 l 1
 262.5 523 l 1
 259.5 0 l 1
 72.5 0 l 1
 72.5 825 l 1
 338.5 825 l 1
 522.5 349 l 1
 704.5 825 l 1
 971.5 825 l 1
 971.5 0 l 1
 784.5 0 l 1
 782.5 523 l 1
 570.5 5 l 1
EndSplineSet
EndChar

StartChar: N
Encoding: 78 78 47
Width: 856
Flags: W
HStem: 0 21G<75 263 756.566 781> 805 20G<75 99.2824 592.906 781>
VStem: 75 188<0 424> 591 190<400 825>
LayerCount: 2
Fore
SplineSet
75 0 m 1
 75 825 l 1
 591 400 l 1
 593 825 l 1
 781 825 l 1
 781 0 l 1
 263 424 l 1
 263 0 l 1
 75 0 l 1
EndSplineSet
EndChar

StartChar: O
Encoding: 79 79 48
Width: 951
Flags: W
HStem: -15 192<381.226 570.66> 648 192<381.226 570.66>
VStem: 60 187<317.294 508.592> 704 187<317.294 508.592>
LayerCount: 2
Fore
SplineSet
247 413 m 0
 247 285 348 177 476 177 c 0
 604 177 704 285 704 413 c 0
 704 541 604 648 476 648 c 0
 348 648 247 541 247 413 c 0
60 413 m 0
 60 645 244 840 476 840 c 0
 708 840 891 645 891 413 c 0
 891 181 708 -15 476 -15 c 0
 244 -15 60 181 60 413 c 0
EndSplineSet
EndChar

StartChar: P
Encoding: 80 80 49
Width: 711
Flags: W
HStem: 0 21G<64.5 252.5> 306 150<252.5 385.498> 675 150<252.5 391.492>
VStem: 64.5 188<0 306 456 675> 448.5 198<505.969 623.971>
LayerCount: 2
Fore
SplineSet
252.5 456 m 1
 344 458 448.168945312 468.166992188 448.5 565 c 0
 448.811523438 656 361.5 675 252.5 675 c 1
 252.5 456 l 1
64.5 825 m 1
 365.5 825 l 1
 564.374023438 820.372070312 646.705078125 697.943359375 646.5 571 c 0
 646.08984375 317.740234375 364.959960938 306.8046875 252.5 306 c 1
 252.5 0 l 1
 64.5 0 l 1
 64.5 825 l 1
EndSplineSet
EndChar

StartChar: Q
Encoding: 81 81 50
Width: 1002
Flags: W
HStem: -15 192<371.226 534.805> 0 21G<706 952> 648 192<371.226 560.774>
VStem: 50 187<317.294 508.592> 695 187<313.483 508.592>
LayerCount: 2
Fore
SplineSet
50 413 m 0xb8
 50 645 234 840 466 840 c 0
 698 840 882 645 882 413 c 0
 882 318 851 229 799 157 c 1
 952 0 l 1
 726 0 l 1x78
 680 46 l 1
 618 7 545 -15 466 -15 c 0
 234 -15 50 181 50 413 c 0xb8
237 413 m 0
 237 285 338 177 466 177 c 0xb8
 491 177 514 182 536 189 c 1
 442 282 l 1
 568 394 l 1
 664 295 l 1
 684 330 695 371 695 413 c 0
 695 541 594 648 466 648 c 0
 338 648 237 541 237 413 c 0
EndSplineSet
EndChar

StartChar: R
Encoding: 82 82 51
Width: 711
Flags: W
HStem: 0 21G<64.5 252.5 501.4 721.5> 675 150<252.5 391.492>
VStem: 64.5 188<0 306 456 675> 448.5 198<506.668 623.971>
LayerCount: 2
Fore
SplineSet
64.5 825 m 1
 365.5 825 l 1
 564.374023438 820.372070312 646.705078125 697.943359375 646.5 571 c 0
 646.297851562 445.868164062 577.565429688 379.892578125 494.5078125 345.067382812 c 1
 721.5 0 l 1
 514.5 0 l 1
 312.87109375 307.823242188 l 1
 289.970703125 306.467773438 269.34375 306.120117188 252.5 306 c 1
 252.5 0 l 1
 64.5 0 l 1
 64.5 825 l 1
252.5 456 m 1
 344 458 448.168945312 468.166992188 448.5 565 c 0
 448.811523438 656 361.5 675 252.5 675 c 1
 252.5 456 l 1
EndSplineSet
EndChar

StartChar: S
Encoding: 83 83 52
Width: 726
Flags: W
VStem: 124.5 184<561.263 638.491> 467.5 206<192.369 290.8>
LayerCount: 2
Fore
SplineSet
146.5 252 m 1
 256 175 467.5 117 467.5 240 c 0
 467.5 370.80078125 124.5 399 124.5 588 c 0
 124.5 765 318 950 649.5 762 c 1
 573.5 612 l 1
 450.5 719 308.5 664 308.5 595 c 0
 308.5 504.6171875 673.5 481 673.5 251 c 0
 673.5 54 393 -145 52.5 94 c 1
 146.5 252 l 1
EndSplineSet
EndChar

StartChar: T
Encoding: 84 84 53
Width: 682
Flags: W
HStem: 0 21G<247 435> 660 165<51 247 435 631>
VStem: 247 188<0 660>
LayerCount: 2
Fore
SplineSet
51 660 m 1
 51 825 l 1
 631 825 l 1
 631 660 l 1
 435 660 l 1
 435 0 l 1
 247 0 l 1
 247 660 l 1
 51 660 l 1
EndSplineSet
EndChar

StartChar: U
Encoding: 85 85 54
Width: 785
Flags: W
HStem: -15 185<308.429 476.571> 805 20G<70.5 258.5 526.5 714.5>
VStem: 70.5 188<229.657 825> 526.5 188<229.657 825>
LayerCount: 2
Fore
SplineSet
714.5 825 m 1
 714.5 293 l 2
 714.5 89 602.5 -15 392.5 -15 c 0
 182.5 -15 70.5 89 70.5 293 c 2
 70.5 825 l 1
 258.5 825 l 1
 258.5 348 l 2
 258.5 210 300.5 170 392.5 170 c 0
 484.5 170 526.5 210 526.5 348 c 2
 526.5 825 l 1
 714.5 825 l 1
EndSplineSet
EndChar

StartChar: V
Encoding: 86 86 55
Width: 927
Flags: W
HStem: 0 21G<381.112 545.888> 805 20G<43.5 263.175 663.825 883.5>
LayerCount: 2
Fore
SplineSet
389.5 0 m 1
 43.5 825 l 1
 255.5 825 l 1
 463.5 283 l 1
 671.5 825 l 1
 883.5 825 l 1
 537.5 0 l 1
 389.5 0 l 1
EndSplineSet
EndChar

StartChar: W
Encoding: 87 87 56
Width: 1239
Flags: W
HStem: 0 21G<273.779 493.202 745.798 965.221> 805 20G<43.5 258.447 544.2 696.8 982.482 1195.5>
LayerCount: 2
Fore
SplineSet
751.5 0 m 1
 619.5 463 l 1
 487.5 0 l 1
 279.5 0 l 1
 43.5 825 l 1
 253.5 825 l 1
 393.5 259 l 1
 399.5 259 l 1
 549.5 825 l 1
 691.5 825 l 1
 841.5 259 l 1
 845.5 259 l 1
 987.5 825 l 1
 1195.5 825 l 1
 959.5 0 l 1
 751.5 0 l 1
EndSplineSet
EndChar

StartChar: X
Encoding: 88 88 57
Width: 958
Flags: W
HStem: 0 21G<46 293.885 654.115 912> 805 20G<46 294.984 653.016 912>
LayerCount: 2
Fore
SplineSet
912 825 m 1
 590 418 l 1
 912 0 l 1
 669 0 l 1
 474 262 l 1
 279 0 l 1
 46 0 l 1
 358 418 l 1
 46 825 l 1
 279 825 l 1
 474 581 l 1
 669 825 l 1
 912 825 l 1
EndSplineSet
EndChar

StartChar: Y
Encoding: 89 89 58
Width: 889
Flags: W
HStem: 0 21G<336.5 551.5> 805 20G<42.5 274.735 614.389 846.5>
VStem: 336.5 215<0 319>
LayerCount: 2
Fore
SplineSet
625.5 825 m 1
 846.5 825 l 1
 551.5 319 l 1
 551.5 0 l 1
 336.5 0 l 1
 336.5 319 l 1
 42.5 825 l 1
 263.5 825 l 1
 445.5 501 l 1
 625.5 825 l 1
EndSplineSet
EndChar

StartChar: Z
Encoding: 90 90 59
Width: 825
Flags: W
HStem: 0 165<372 705> 660 165<151 452>
LayerCount: 2
Fore
SplineSet
781 825 m 1
 372 165 l 1
 705 165 l 1
 754 0 l 1
 44 0 l 1
 452 660 l 1
 151 660 l 1
 102 825 l 1
 781 825 l 1
EndSplineSet
EndChar

StartChar: bracketleft
Encoding: 91 91 60
Width: 448
Flags: W
HStem: -260 117<216 385> 743 117<216 385>
VStem: 63 322<-260 -143 743 860> 63 153<-143 743>
LayerCount: 2
Fore
SplineSet
63 860 m 1xe0
 385 860 l 1
 385 743 l 1xe0
 216 743 l 1
 216 -143 l 1xd0
 385 -143 l 1
 385 -260 l 1
 63 -260 l 1
 63 860 l 1xe0
EndSplineSet
EndChar

StartChar: backslash
Encoding: 92 92 61
Width: 653
Flags: W
LayerCount: 2
Fore
SplineSet
44 860 m 1
 197 860 l 1
 609 -120 l 1
 456 -120 l 1
 44 860 l 1
EndSplineSet
EndChar

StartChar: bracketright
Encoding: 93 93 62
Width: 449
Flags: W
HStem: -260 117<63.5 232.5> 743 117<63.5 232.5>
VStem: 63.5 322<-260 -143 743 860> 232.5 153<-143 743>
LayerCount: 2
Fore
SplineSet
63.5 -143 m 1xe0
 232.5 -143 l 1
 232.5 743 l 1xd0
 63.5 743 l 1
 63.5 860 l 1
 385.5 860 l 1
 385.5 -260 l 1
 63.5 -260 l 1
 63.5 -143 l 1xe0
EndSplineSet
EndChar

StartChar: asciicircum
Encoding: 94 94 63
Width: 617
Flags: W
HStem: 605 235
LayerCount: 2
Fore
SplineSet
400.5 605 m 1
 308.5 714 l 1
 216.5 605 l 1
 55.5 605 l 1
 262.5 840 l 1
 354.5 840 l 1
 561.5 605 l 1
 400.5 605 l 1
EndSplineSet
EndChar

StartChar: underscore
Encoding: 95 95 64
Width: 663
Flags: W
HStem: -100 85<75 588>
LayerCount: 2
Fore
SplineSet
75 -15 m 1
 588 -15 l 1
 588 -100 l 1
 75 -100 l 1
 75 -15 l 1
EndSplineSet
EndChar

StartChar: grave
Encoding: 96 96 65
Width: 406
Flags: W
HStem: 587 253
VStem: 56 294
LayerCount: 2
Fore
SplineSet
147 840 m 1
 350 664 l 1
 294 587 l 1
 56 725 l 1
 147 840 l 1
EndSplineSet
EndChar

StartChar: a
Encoding: 97 97 66
Width: 735
Flags: W
HStem: -15 151<306.057 421.346> 0 21G<492.5 667.5> 377 151<307.144 442.31>
VStem: 67.5 188<186.537 325.882> 492.5 175<0 58 182.601 330.189>
LayerCount: 2
Fore
SplineSet
255.5 256 m 0xb8
 255.5 186 303.5 136 375.5 136 c 0
 444.5 136 494.5 186 494.5 256 c 0
 494.5 327 441.5 377 375.5 377 c 0
 308.5 377 255.5 327 255.5 256 c 0xb8
667.5 454 m 2
 667.5 0 l 1
 492.5 0 l 1x78
 492.5 58 l 1
 454.5 16 392.5 -15 322.5 -15 c 0
 172.5 -15 67.5 106 67.5 256 c 0
 67.5 406 172.5 528 322.5 528 c 0
 391.5 528 667 541 667.5 454 c 2
EndSplineSet
EndChar

StartChar: b
Encoding: 98 98 67
Width: 742
Flags: W
HStem: -15 151<315.311 430.443> 0 21G<69 244> 377 151<291.113 427.929>
VStem: 69 175<0 58 181.804 329.02 525.995 860> 481 188<186.537 325.882>
LayerCount: 2
Fore
SplineSet
481 256 m 0xb8
 481 327 428 377 361 377 c 0
 303.243164062 377 255.44140625 338.708984375 244.40234375 281.5625 c 1
 244.26171875 230.860351562 l 1
 254.735351562 174.333007812 300.583984375 136 361 136 c 0
 433 136 481 186 481 256 c 0xb8
69 0 m 1x78
 69 860 l 1
 246 860 l 1
 245.077148438 525.995117188 l 1
 314.029296875 530.491210938 383.796875 528 414 528 c 0
 564 528 669 406 669 256 c 0
 669 106 564 -15 414 -15 c 0xb8
 344 -15 282 16 244 58 c 1
 244 0 l 1
 69 0 l 1x78
EndSplineSet
EndChar

StartChar: c
Encoding: 99 99 68
Width: 572
Flags: W
HStem: -15 145<300.374 459.309> 383 145<300.259 457.899>
VStem: 58 188<186.422 325.466>
LayerCount: 2
Fore
SplineSet
514 31 m 1
 514 31 456 -15 342 -15 c 0
 194 -15 58 105 58 255 c 0
 58 406 193 528 342 528 c 0
 456 528 514 480 514 480 c 1
 454 359 l 1
 454 359 421 383 368 383 c 0
 301 383 246 327 246 257 c 0
 246 186 301 130 368 130 c 0
 421 130 454 154 454 154 c 1
 514 31 l 1
EndSplineSet
EndChar

StartChar: d
Encoding: 100 100 69
Width: 742
Flags: W
HStem: -15 151<307.557 422.689> 0 21G<494 669> 377 151<310.071 446.887>
VStem: 69 188<186.537 325.882> 492.923 176.077<0 58 179.834 331.039 525.995 860>
LayerCount: 2
Fore
SplineSet
257 256 m 0xb8
 257 186 305 136 377 136 c 0
 437.416015625 136 483.264648438 174.333007812 493.73828125 230.860351562 c 1
 493.59765625 281.5625 l 1
 482.55859375 338.708984375 434.756835938 377 377 377 c 0
 310 377 257 327 257 256 c 0xb8
669 0 m 1x78
 494 0 l 1x78
 494 58 l 1
 456 16 394 -15 324 -15 c 0xb8
 174 -15 69 106 69 256 c 0
 69 406 174 528 324 528 c 0
 354.203125 528 423.970703125 530.491210938 492.922851562 525.995117188 c 1
 492 860 l 1
 669 860 l 1
 669 0 l 1x78
EndSplineSet
EndChar

StartChar: e
Encoding: 101 101 70
Width: 679
Flags: W
HStem: -15 21G<265.5 400> 227 90<250 445> 413 115<286.837 406.427>
VStem: 61 184<169.341 227 317 360.092>
LayerCount: 2
Fore
SplineSet
250 317 m 1
 445 317 l 1
 437 371 400 413 348 413 c 0
 287 413 253 364 250 317 c 1
481 173 m 1
 609 119 l 1
 551 22 457 -15 343 -15 c 0
 188 -15 61 107 61 256 c 0
 61 406 188 528 343 528 c 0
 499 528 618 418 618 227 c 1
 245 227 l 1
 245 141 368 60 481 173 c 1
EndSplineSet
EndChar

StartChar: f
Encoding: 102 102 71
Width: 516
Flags: W
HStem: 0 21G<121.5 298.5> 450 135<47.5 121.5 298.5 416.5> 718 157<315.02 414.168>
VStem: 121.5 177<0 450 585 704.458>
LayerCount: 2
Fore
SplineSet
121.5 585 m 1
 122 777 182.5 875 322.5 875 c 0
 412.5 875 468.5 829 468.5 829 c 1
 406.5 704 l 1
 406.5 704 382.5 718 353.5 718 c 0
 298.5 718 298.5 653 298.5 585 c 1
 416.5 585 l 1
 416.5 450 l 1
 298.5 450 l 1
 298.5 0 l 1
 121.5 0 l 1
 121.5 450 l 1
 47.5 450 l 1
 47.5 585 l 1
 121.5 585 l 1
EndSplineSet
EndChar

StartChar: g
Encoding: 103 103 72
Width: 688
Flags: W
HStem: -8.00098 132<268.021 427.619>
LayerCount: 2
Fore
SplineSet
102 89.9990234375 m 0
 102 142.201171875 147 154.999023438 100 224.999023438 c 1
 100 224.999023438 57 283.999023438 57 352.999023438 c 0
 57 480.999023438 156.006835938 552.591796875 308 553.999023438 c 0
 416 554.999023438 435 526.999023438 517 508.999023438 c 1
 568.848632812 503.54296875 575.3359375 522.286132812 595 534 c 1
 633 433.999023438 l 1
 614 397.999023438 552 410.999023438 552 410.999023438 c 1
 558 382.999023438 561.362304688 354.866210938 559 333.999023438 c 0
 553 280.999023438 508 163.999023438 359 157.999023438 c 0
 276 156.999023438 268 157.999023438 268 141.999023438 c 0
 268 125.999023438 297 123.999023438 346 123.999023438 c 0
 542 123.999023438 599 50.9990234375 599 -42.0009765625 c 0
 599 -155.000976562 496 -227.000976562 303 -230.000976562 c 0
 103 -233.000976562 73 -107.000976562 55 3.9990234375 c 1
 147 -141.000976562 445 -132.000976562 438 -51.0009765625 c 0
 434.418945312 -9.5625 374 -8.0009765625 269 -8.0009765625 c 0
 179 -8.0009765625 102 29 102 89.9990234375 c 0
210.5 343 m 0
 213.799804688 293 257.7109375 258.669921875 309.5 264 c 0
 367.799804688 270 400.799804688 315 397.5 365 c 0
 394.200195312 415 353.5 450 298.5 444 c 0
 246.751953125 438.354492188 207.200195312 393 210.5 343 c 0
EndSplineSet
EndChar

StartChar: h
Encoding: 104 104 73
Width: 695
Flags: W
HStem: 0 21G<72 249 446 623> 390 138<312.861 411.575>
VStem: 72 177<0 346.049 459 860> 446 177<0 351.126>
LayerCount: 2
Fore
SplineSet
249 860 m 1
 249 459 l 1
 289 499 342 528 398 528 c 0
 492 528 623 481 623 338 c 2
 623 0 l 1
 446 0 l 1
 446 290 l 2
 446 341 411 390 354 390 c 0
 301 390 249 341 249 290 c 2
 249 0 l 1
 72 0 l 1
 72 860 l 1
 249 860 l 1
EndSplineSet
EndChar

StartChar: i
Encoding: 105 105 74
Width: 321
Flags: W
HStem: 0 21G<70.5 250.5> 506 20G<70.5 250.5> 603 176<105.758 216.242>
VStem: 70.5 180<0 526 640.319 741.681>
LayerCount: 2
Fore
SplineSet
76 691 m 0
 76 739 115 779 161 779 c 0
 207 779 246 739 246 691 c 0
 246 643 207 603 161 603 c 0
 115 603 76 643 76 691 c 0
70.5 0 m 1
 70.5 526 l 1
 250.5 526 l 1
 250.5 0 l 1
 70.5 0 l 1
EndSplineSet
EndChar

StartChar: j
Encoding: 106 106 75
Width: 394
Flags: W
HStem: 603 176<142.758 253.242>
VStem: 113 170<22.0157 511 633.655 748.345>
LayerCount: 2
Fore
SplineSet
109.973632812 511 m 1
 286.973632812 511 l 1
 286.973632812 90 l 2
 286.973632812 -49 210.973632812 -150 80.9736328125 -150 c 0
 50.376953125 -150 -4.966796875 -25.4609375 23.359375 -14 c 0
 60.0966796875 0.8642578125 109.971679688 -1.6044921875 110 84 c 2
 109.973632812 511 l 1
113 691 m 0
 113 739 152 779 198 779 c 0
 244 779 283 739 283 691 c 0
 283 643 244 603 198 603 c 0
 152 603 113 643 113 691 c 0
EndSplineSet
EndChar

StartChar: k
Encoding: 107 107 76
Width: 728
Flags: W
HStem: 0 21G<59 236 421 669> 493 20G<395 645>
VStem: 59 177<0 205 334 860>
LayerCount: 2
Fore
SplineSet
645 513 m 1
 401 268 l 1
 669 0 l 1
 441 0 l 1
 236 205 l 1
 236 0 l 1
 59 0 l 1
 59 860 l 1
 236 860 l 1
 236 334 l 1
 415 513 l 1
 645 513 l 1
EndSplineSet
EndChar

StartChar: l
Encoding: 108 108 77
Width: 406
Flags: W
HStem: 0 21G<246 326.298> 805 20G<105.614 281.75>
VStem: 107.614 178<187.331 825>
LayerCount: 2
Fore
SplineSet
311 0 m 0
 181 0 107.614257812 86 107.614257812 225 c 2
 105.614257812 825 l 1
 281.614257812 825 l 1
 285.614257812 234 l 2
 285.642578125 169.395507812 357.876953125 163.864257812 368.614257812 163 c 0
 399.072265625 160.548828125 341.596679688 0 311 0 c 0
EndSplineSet
EndChar

StartChar: m
Encoding: 109 109 78
Width: 1082
Flags: W
HStem: 0 21G<71.5 255.5 454.5 634.5 833.5 1010.5> 384 144<288.425 424.15 664.256 800.164> 500 20G<71.5 211.5>
VStem: 71.5 184<0 349.74> 454.5 180<0 353.362> 833.5 177<0 346.738>
LayerCount: 2
Fore
SplineSet
255.5 0 m 1xdc
 71.5 0 l 1
 71.5 520 l 1
 211.5 520 l 1xbc
 211.5 491 l 1
 245.5 514 291.5 528 356.5 528 c 0
 437.5 528 495.5 526 544.5 461 c 1
 603.5 526 651.5 528 732.5 528 c 0
 924.5 528 1010.5 459 1010.5 287 c 2
 1010.5 0 l 1
 833.5 0 l 1
 833.5 244 l 2
 833.5 345 806.5 384 732.5 384 c 0
 671.5 384 642.5 358 634.5 291 c 1
 634.5 0 l 1
 454.5 0 l 1
 454.5 291 l 1
 446.5 358 417.5 384 356.5 384 c 0
 282.5 384 255.5 345 255.5 244 c 2
 255.5 0 l 1xdc
EndSplineSet
EndChar

StartChar: n
Encoding: 110 110 79
Width: 706
Flags: W
HStem: 0 21G<71.5 255.5 457.5 634.5> 384 144<289.075 424.962> 500 20G<71.5 211.5>
VStem: 71.5 184<0 349.74> 457.5 177<0 346.738>
LayerCount: 2
Fore
SplineSet
255.5 0 m 1xd8
 71.5 0 l 1
 71.5 520 l 1
 211.5 520 l 1xb8
 211.5 491 l 1
 245.5 514 292.5 528 357.5 528 c 0
 549.5 528 634.5 459 634.5 287 c 2
 634.5 0 l 1
 457.5 0 l 1
 457.5 244 l 2
 457.5 345 431.5 384 357.5 384 c 0
 283.5 384 255.5 345 255.5 244 c 2
 255.5 0 l 1xd8
EndSplineSet
EndChar

StartChar: o
Encoding: 111 111 80
Width: 675
Flags: W
HStem: -15 155.125<271.024 402.39> 372.875 155.125<274.354 402.39>
VStem: 61 158.225<194.235 317.967> 455.775 158.225<189.873 322.346>
LayerCount: 2
Fore
SplineSet
219.224609375 256.025390625 m 0
 219.224609375 194.275390625 273.375 140.125 337.974609375 140.125 c 0
 402.575195312 140.125 455.775390625 194.275390625 455.775390625 256.025390625 c 0
 455.775390625 317.775390625 402.575195312 372.875 337.974609375 372.875 c 0
 273.375 372.875 219.224609375 317.775390625 219.224609375 256.025390625 c 0
61 256 m 0
 61 401 187 528 339 528 c 0
 491 528 614 401 614 256 c 0
 614 111 491 -15 339 -15 c 0
 187 -15 61 111 61 256 c 0
EndSplineSet
EndChar

StartChar: p
Encoding: 112 112 81
Width: 736
Flags: W
HStem: -260 21G<68 245> -15 151<290.113 426.929> 377 151<292.037 429.443>
VStem: 68 175.402<-260 -12.9951 181.961 331.196> 480 188<187.118 326.463>
LayerCount: 2
Fore
SplineSet
68 -260 m 1
 68 454 l 2
 68.060546875 541 344 528 413 528 c 0
 563 528 668 407 668 257 c 0
 668 107 563 -15 413 -15 c 0
 382.796875 -15 313.029296875 -17.4912109375 244.077148438 -12.9951171875 c 1
 245 -260 l 1
 68 -260 l 1
480 257 m 0
 480 327 432 377 360 377 c 0
 299.583984375 377 253.735351562 338.666992188 243.26171875 282.139648438 c 1
 243.40234375 231.4375 l 1
 254.44140625 174.291015625 302.243164062 136 360 136 c 0
 427 136 480 186 480 257 c 0
EndSplineSet
EndChar

StartChar: q
Encoding: 113 113 82
Width: 736
Flags: W
HStem: -260 21G<491 668> -15 151<309.071 445.887> 377 151<306.557 443.963>
VStem: 68 188<187.118 326.463> 491 177<-260 -12.9951 179.979 333.166>
LayerCount: 2
Fore
SplineSet
668 -260 m 1
 491 -260 l 1
 491.922851562 -12.9951171875 l 1
 422.970703125 -17.4912109375 353.203125 -15 323 -15 c 0
 173 -15 68 107 68 257 c 0
 68 407 173 528 323 528 c 0
 392 528 667.939453125 541 668 454 c 2
 668 -260 l 1
256 257 m 0
 256 186 309 136 376 136 c 0
 433.756835938 136 481.55859375 174.291015625 492.59765625 231.4375 c 1
 492.73828125 282.139648438 l 1
 482.264648438 338.666992188 436.416015625 377 376 377 c 0
 304 377 256 327 256 257 c 0
EndSplineSet
EndChar

StartChar: r
Encoding: 114 114 83
Width: 573
Flags: W
HStem: 0 21G<62.5 239.5> 374 154<316.965 443.873> 493 20G<62.5 239.5>
VStem: 62.5 177<0 331.421 439 513>
LayerCount: 2
Fore
SplineSet
239.5 513 m 1xb0
 239.5 439 l 1
 239.5 439 297.5 528 398.5 528 c 0
 464.5 528 510.5 496 510.5 496 c 1
 436.5 346 l 1
 436.5 346 403.5 374 344.5 374 c 0xd0
 252.5 374 239.5 283 239.5 270 c 2
 239.5 0 l 1
 62.5 0 l 1
 62.5 513 l 1
 239.5 513 l 1xb0
EndSplineSet
EndChar

StartChar: s
Encoding: 115 115 84
Width: 546
Flags: W
VStem: 306.5 187<124.339 192.418>
LayerCount: 2
Fore
SplineSet
124.5 175 m 1
 244 85 306.5 119 306.5 153 c 0
 306.5 231 88.5 261.447265625 88.5 363 c 0
 88.5 460 229.5 602 484.5 488 c 1
 426.5 372 l 1
 290.5 434 257.5 397 257.5 373 c 0
 257.5 310.982421875 493.5 283 493.5 160 c 0
 493.5 9 239.5 -87 52.5 54 c 1
 124.5 175 l 1
EndSplineSet
EndChar

StartChar: t
Encoding: 116 116 85
Width: 487
Flags: W
HStem: -15 159<232.5 394.317> 378 135<54 128 305 413>
VStem: 128 177<150.794 378 513 704>
LayerCount: 2
Fore
SplineSet
128 513 m 1
 128 704 l 1
 305 704 l 1
 305 513 l 1
 413 513 l 1
 413 378 l 1
 305 378 l 1
 305 215 l 2
 305 167 317 144 345 144 c 0
 368 144 389 160 389 160 c 1
 433 17 l 1
 433 17 376 -15 303 -15 c 0
 162 -15 128 90 128 181 c 2
 128 378 l 1
 54 378 l 1
 54 513 l 1
 128 513 l 1
EndSplineSet
EndChar

StartChar: u
Encoding: 117 117 86
Width: 694
Flags: W
HStem: -15 144<279.336 414.664> 493 20G<69 246 448 625>
VStem: 69 177<166.262 513> 448 177<166.262 513>
LayerCount: 2
Fore
SplineSet
246 513 m 1
 246 269 l 2
 246 168 273 129 347 129 c 0
 421 129 448 168 448 269 c 2
 448 513 l 1
 625 513 l 1
 625 226 l 2
 625 54 539 -15 347 -15 c 0
 155 -15 69 54 69 226 c 2
 69 513 l 1
 246 513 l 1
EndSplineSet
EndChar

StartChar: v
Encoding: 118 118 87
Width: 767
Flags: W
HStem: 0 21G<312.779 454.221> 493 20G<48.5 267.461 499.539 718.5>
LayerCount: 2
Fore
SplineSet
258.5 513 m 1
 383.5 234 l 1
 508.5 513 l 1
 718.5 513 l 1
 443.5 0 l 1
 323.5 0 l 1
 48.5 513 l 1
 258.5 513 l 1
EndSplineSet
EndChar

StartChar: w
Encoding: 119 119 88
Width: 1123
Flags: W
HStem: 0 21G<312.779 452.406 670.594 810.221> 493 20G<48.5 261.525 491.619 631.381 861.475 1074.5>
LayerCount: 2
Fore
SplineSet
443.5 0 m 1
 323.5 0 l 1
 48.5 513 l 1
 252.5 513 l 1
 377.5 236 l 1
 500.5 513 l 1
 622.5 513 l 1
 745.5 236 l 1
 870.5 513 l 1
 1074.5 513 l 1
 799.5 0 l 1
 679.5 0 l 1
 561.5 265 l 1
 443.5 0 l 1
EndSplineSet
EndChar

StartChar: x
Encoding: 120 120 89
Width: 744
Flags: W
HStem: 0 21G<45 274.586 469.414 699> 493 20G<76 297.958 446.042 668>
LayerCount: 2
Fore
SplineSet
699 0 m 1
 485 0 l 1
 372 145 l 1
 259 0 l 1
 45 0 l 1
 264 268 l 1
 76 513 l 1
 283 513 l 1
 372 394 l 1
 461 513 l 1
 668 513 l 1
 480 268 l 1
 699 0 l 1
EndSplineSet
EndChar

StartChar: y
Encoding: 121 121 90
Width: 765
Flags: W
HStem: -260 21G<112 326.427> 493 20G<46 260.875 505.722 719>
LayerCount: 2
Fore
SplineSet
515 513 m 1
 719 513 l 1
 316 -260 l 1
 112 -260 l 1
 289 80 l 1
 46 513 l 1
 250 513 l 1
 393 250 l 1
 515 513 l 1
EndSplineSet
EndChar

StartChar: z
Encoding: 122 122 91
Width: 648
Flags: W
HStem: 0 135<345.5 579.5> 378 135<90.5 302.5>
LayerCount: 2
Fore
SplineSet
599.5 513 m 1
 345.5 135 l 1
 579.5 135 l 1
 579.5 0 l 1
 48.5 0 l 1
 302.5 378 l 1
 90.5 378 l 1
 90.5 513 l 1
 599.5 513 l 1
EndSplineSet
EndChar

StartChar: braceleft
Encoding: 123 123 92
Width: 432
Flags: W
HStem: -260 128<301.463 379> 253 94<53 110.369> 732 128<301.463 379>
VStem: 123 153<-104.163 239.006 360.551 704.163>
CounterMasks: 1 e0
LayerCount: 2
Fore
SplineSet
123 188 m 0
 123 234 96 253 53 253 c 1
 53 347 l 1
 96 347 123 366 123 412 c 0
 123 774 106 860 379 860 c 1
 379 732 l 1
 263 732 276 694 276 407 c 0
 276 350 249 318 215 300 c 1
 249 282 276 249 276 193 c 0
 276 -94 263 -132 379 -132 c 1
 379 -260 l 1
 106 -260 123 -174 123 188 c 0
EndSplineSet
EndChar

StartChar: bar
Encoding: 124 124 93
Width: 302
Flags: W
HStem: 0 21G<74.5 227.5>
VStem: 74.5 153<0 860>
LayerCount: 2
Fore
SplineSet
74.5 0 m 1
 74.5 860 l 1
 227.5 860 l 1
 227.5 0 l 1
 74.5 0 l 1
EndSplineSet
EndChar

StartChar: braceright
Encoding: 125 125 94
Width: 432
Flags: W
HStem: -260 128<53 130.537> 253 94<321.631 379> 732 128<53 130.537>
VStem: 156 153<-104.163 239.006 360.551 704.163>
CounterMasks: 1 e0
LayerCount: 2
Fore
SplineSet
309 188 m 0
 309 -174 326 -260 53 -260 c 1
 53 -132 l 1
 169 -132 156 -94 156 193 c 0
 156 249 183 282 217 300 c 1
 183 318 156 350 156 407 c 0
 156 694 169 732 53 732 c 1
 53 860 l 1
 326 860 309 774 309 412 c 0
 309 366 336 347 379 347 c 1
 379 253 l 1
 336 253 309 234 309 188 c 0
EndSplineSet
EndChar

StartChar: asciitilde
Encoding: 126 126 95
Width: 691
Flags: W
HStem: 303 140<394.375 504.351> 388 140<186.649 295.907> 501 20G<539.5 562.463>
LayerCount: 2
Fore
SplineSet
455.5 303 m 0xa0
 352.252929688 303 297.5 388 235.5 388 c 0
 177.5 388 151.5 310 151.5 310 c 1
 58.5 391 l 1
 58.5 391 123.5 528 235.5 528 c 0x40
 302.5 528 410.72265625 443 455.5 443 c 0
 513.5 443 539.5 521 539.5 521 c 1
 632.5 440 l 1
 632.5 440 567.5 303 455.5 303 c 0xa0
EndSplineSet
EndChar

StartChar: exclamdown
Encoding: 161 161 97
Width: 303
Flags: W
HStem: -260 21G<63 240> 380 176<98.7577 209.242>
VStem: 69 170<-260 -227.222 410.655 525.345> 87 129<157.917 330>
LayerCount: 2
Fore
SplineSet
63 -260 m 1xd0
 87 330 l 1
 216 330 l 1
 240 -260 l 1
 63 -260 l 1xd0
69 468 m 0xe0
 69 516 108 556 154 556 c 0
 200 556 239 516 239 468 c 0
 239 420 200 380 154 380 c 0
 108 380 69 420 69 468 c 0xe0
EndSplineSet
EndChar

StartChar: cent
Encoding: 162 162 98
Width: 568
Flags: W
HStem: -129 259<297.955 387.137> 383 144<359.755 448.605>
VStem: 56 188<185.149 326.562> 251 108<527 636> 281 108<-129 -8.39621>
LayerCount: 2
Fore
SplineSet
281 -129 m 1xe8
 281 -8 l 1xe8
 158 18 56 125 56 255 c 0
 56 375 141 477 251 513 c 1
 251 636 l 1
 359 636 l 1
 359 527 l 1xf0
 460 522 512 480 512 480 c 1
 452 359 l 1
 452 359 419 383 366 383 c 0
 299 383 244 327 244 257 c 0
 244 186 299 130 366 130 c 0
 419 130 452 154 452 154 c 1
 512 31 l 1
 512 31 469 -1 389 -12 c 1
 389 -129 l 1
 281 -129 l 1xe8
EndSplineSet
EndChar

StartChar: sterling
Encoding: 163 163 99
Width: 763
Flags: W
HStem: -15 144<386.666 549.284> 0 21G<53.5 168.5> 289 98<53.5 155.5 348.824 510.5> 689 152<327.098 445.858>
VStem: 103.5 186<445.637 644.788>
LayerCount: 2
Fore
SplineSet
359.5 164 m 0x78
 373.709960938 148.25 431.5 129 505.5 129 c 0
 562.5 129 572.5 201 572.5 201 c 1
 709.5 133 l 1
 709.5 133 686.5 -15 526.5 -15 c 0xb8
 402.5 -15 309.5 43 215.5 43 c 0
 174.5 43 168.5 0 168.5 0 c 1
 53.5 0 l 1
 53.5 54 109.5 178 199.5 178 c 0
 237.333007812 178 207.5 259 191.5 289 c 1
 53.5 289 l 1
 53.5 387 l 1
 155.5 387 l 1
 127.5 431 103.5 483 103.5 558 c 0
 103.5 714 199.5 841 384.5 841 c 0
 618.5 841 658.5 651 658.5 651 c 1
 500.5 574 l 1
 500.5 574 481.5 689 384.5 689 c 0
 322.5 689 289.5 634 289.5 558 c 0
 289.5 476 315.5 436 337.5 387 c 1
 510.5 387 l 1
 510.5 289 l 1
 356.5 289 l 1
 334.57421875 239.446289062 339.762695312 185.875976562 359.5 164 c 0x78
EndSplineSet
EndChar

StartChar: currency
Encoding: 164 164 100
Width: 888
Flags: W
HStem: 48.3516 154.7<363.567 537.086> 621.251 153.851<365.302 535.695>
VStem: 96.4258 172.549<305.555 515.917> 630.225 172.551<305.131 516.502>
LayerCount: 2
Fore
SplineSet
268.974609375 412.151367188 m 0
 268.974609375 310.151367188 323.375 203.051757812 450.025390625 203.051757812 c 0
 577.525390625 203.051757812 630.224609375 307.6015625 630.224609375 412.151367188 c 0
 630.224609375 516.701171875 574.125 621.250976562 450.025390625 621.250976562 c 0
 326.775390625 621.250976562 268.974609375 516.701171875 268.974609375 412.151367188 c 0
837.5390625 121.140625 m 1
 752.8671875 24.138671875 l 1
 656.263671875 113.756835938 l 1
 599.0546875 72.3662109375 528.328125 48.3515625 450.02734375 48.3515625 c 0
 375.228515625 48.3515625 308.390625 69.025390625 253.5 105.0703125 c 1
 168.611328125 13.564453125 l 1
 71.609375 98.236328125 l 1
 161.490234375 195.124023438 l 1
 119.94140625 255.221679688 96.42578125 329.995117188 96.42578125 412.150390625 c 0
 96.42578125 482.611328125 115.43359375 547.541015625 148.22265625 602.409179688 c 1
 49.984375 693.543945312 l 1
 134.65625 790.546875 l 1
 233.021484375 699.295898438 l 1
 293.236328125 747.060546875 368.765625 775.1015625 450.025390625 775.1015625 c 0
 526.51953125 775.1015625 597.3671875 750.685546875 655.1953125 708.611328125 c 1
 741.013671875 801.119140625 l 1
 838.015625 716.446289062 l 1
 743.84375 614.934570312 l 1
 781.0703125 557.534179688 802.775390625 488.051757812 802.775390625 412.151367188 c 0
 802.775390625 335.508789062 781.595703125 265.291015625 744.53515625 207.418945312 c 1
 837.5390625 121.140625 l 1
EndSplineSet
EndChar

StartChar: yen
Encoding: 165 165 101
Width: 895
Flags: W
HStem: 0 21G<340 555> 107 130<201 340 555 700> 298 130<201 277 618 700> 805 20G<46 277.235 617.827 849>
VStem: 340 215<0 107 237 298>
LayerCount: 2
Fore
SplineSet
629 825 m 1
 849 825 l 1
 618 428 l 1
 700 428 l 1
 700 298 l 1
 555 298 l 1
 555 237 l 1
 700 237 l 1
 700 107 l 1
 555 107 l 1
 555 0 l 1
 340 0 l 1
 340 107 l 1
 201 107 l 1
 201 237 l 1
 340 237 l 1
 340 298 l 1
 201 298 l 1
 201 428 l 1
 277 428 l 1
 46 825 l 1
 266 825 l 1
 448 501 l 1
 629 825 l 1
EndSplineSet
EndChar

StartChar: brokenbar
Encoding: 166 166 102
Width: 297
Flags: W
HStem: 0 21G<72 225> 528 21G<72 225>
VStem: 72 153<0 332 528 860>
LayerCount: 2
Fore
SplineSet
72 0 m 1
 72 332 l 1
 225 332 l 1
 225 0 l 1
 72 0 l 1
72 528 m 1
 72 860 l 1
 225 860 l 1
 225 528 l 1
 72 528 l 1
EndSplineSet
EndChar

StartChar: section
Encoding: 167 167 103
Width: 699
Flags: W
HStem: -275 148<257.26 387.952> 692 148<307.721 415.093>
VStem: 100 195<598.359 680.608> 402 197<-112.968 -33.3181>
LayerCount: 2
Fore
SplineSet
391 176 m 0
 433.2890625 153.986328125 481 219 480 260 c 1
 471 312 360.651367188 364.130859375 307 389 c 0
 258.8515625 411.318359375 210 352 219 305 c 1
 222 256 318 214 391 176 c 0
320 -275 m 0
 87 -275 55 -84 55 -84 c 1
 215 -50 l 1
 215 -50 238 -127 320 -127 c 0
 381 -127 402 -101 402 -72 c 0
 402 -31 339 -2 252 38 c 0
 131 95 55 162 55 276 c 1
 59 351 106 419 189 456 c 1
 129 499 100 549 100 631 c 0
 100 739 178 840 358 840 c 0
 571 840 599 661 599 661 c 1
 439 627 l 1
 439 627 434 692 358 692 c 0
 316 692 295 668 295 637 c 0
 295 597 360 567 447 527 c 0
 568 470 644 403 644 289 c 1
 640 214 593 146 510 109 c 1
 569 65 599 15 599 -66 c 0
 599 -152 540 -275 320 -275 c 0
EndSplineSet
EndChar

StartChar: diaeresis
Encoding: 168 168 104
Width: 544
Flags: W
HStem: 607 184<94.9006 212.099 331.901 449.099>
VStem: 61.5 184<640.401 757.599> 298.5 184<640.401 757.599>
LayerCount: 2
Fore
SplineSet
390.5 791 m 0
 441.5 791 482.5 750 482.5 699 c 0
 482.5 648 441.5 607 390.5 607 c 0
 339.5 607 298.5 648 298.5 699 c 0
 298.5 750 339.5 791 390.5 791 c 0
153.5 791 m 0
 204.5 791 245.5 750 245.5 699 c 0
 245.5 648 204.5 607 153.5 607 c 0
 102.5 607 61.5 648 61.5 699 c 0
 61.5 750 102.5 791 153.5 791 c 0
EndSplineSet
EndChar

StartChar: copyright
Encoding: 169 169 105
Width: 973
Flags: W
HStem: -15 114<375.574 596.901> 206 107<466.942 600.624> 516 108<466.942 601.835> 726 114<375.574 596.901>
VStem: 59 114<301.574 522.901> 287 141<351.257 476.684> 800 114<301.574 522.901>
LayerCount: 2
Fore
SplineSet
526 516 m 0
 472 516 428 471 428 415 c 0
 428 357 472 313 526 313 c 0
 564 313 587 326 592 329 c 1
 607 297 621 271 636 239 c 1
 636 239 582 206 505 206 c 0
 392 206 287 298 287 413 c 0
 287 530 392 624 505 624 c 0
 590 624 633 592 636 589 c 1
 593 500 l 1
 593 500 559 516 526 516 c 0
173 412 m 0
 173 240 314 99 486 99 c 0
 659 99 800 240 800 412 c 0
 800 585 659 726 486 726 c 0
 314 726 173 585 173 412 c 0
59 412 m 0
 59 648 251 840 486 840 c 0
 722 840 914 648 914 412 c 0
 914 177 722 -15 486 -15 c 0
 251 -15 59 177 59 412 c 0
EndSplineSet
EndChar

StartChar: ordfeminine
Encoding: 170 170 106
Width: 500
Flags: W
HStem: 504 93<201.117 298.689> 513 21G<328 436> 746 94<203.762 302.223> 810 20G<327 436>
VStem: 64 117<617.094 725.037> 328 108<513 549 616.66 726.226 800 830>
LayerCount: 2
Fore
SplineSet
181 671 m 0xac
 181 628 211 597 255 597 c 0
 298 597 329 628 329 671 c 0
 329 715 296 746 255 746 c 0
 214 746 181 715 181 671 c 0xac
328 513 m 1x5c
 328 549 l 1
 304 523 266 504 222 504 c 0
 129 504 64 579 64 671 c 0
 64 764 129 840 222 840 c 0xac
 265 840 300 825 327 800 c 1
 327 830 l 1
 436 830 l 1
 436 513 l 1
 328 513 l 1x5c
EndSplineSet
EndChar

StartChar: guillemotleft
Encoding: 171 171 107
Width: 649
Flags: W
HStem: 508 20G<234.9 275.979 484.9 525.979>
LayerCount: 2
Fore
SplineSet
500.5 28 m 1
 305.5 278 l 1
 500.5 528 l 1
 593.5 455 l 1
 455.5 278 l 1
 593.5 101 l 1
 500.5 28 l 1
250.5 28 m 1
 55.5 278 l 1
 250.5 528 l 1
 343.5 455 l 1
 205.5 278 l 1
 343.5 101 l 1
 250.5 28 l 1
EndSplineSet
EndChar

StartChar: logicalnot
Encoding: 172 172 108
Width: 645
Flags: W
HStem: 288 85<66 503>
VStem: 503 76<197 288>
LayerCount: 2
Fore
SplineSet
579 197 m 1
 503 197 l 1
 503 288 l 1
 66 288 l 1
 66 373 l 1
 579 373 l 1
 579 197 l 1
EndSplineSet
EndChar

StartChar: uni00AD
Encoding: 173 173 109
Width: 392
Flags: W
HStem: 232 153<67.2002 324.8>
VStem: 67.2002 257.6<232 385>
LayerCount: 2
Fore
SplineSet
67.2001953125 385 m 1
 324.799804688 385 l 1
 324.799804688 232 l 1
 67.2001953125 232 l 1
 67.2001953125 385 l 1
EndSplineSet
EndChar

StartChar: registered
Encoding: 174 174 110
Width: 567
Flags: W
HStem: 392 60<201.515 365.161> 513 21G<214.5 261.5 309.134 386.5> 683 37<261.5 303.307> 780 60<204.055 362.588>
VStem: 59.5 60<536.132 694.665> 214.5 47<513 595 628 683> 304.5 51<629.238 681.451> 447.5 60<536.132 697.233>
LayerCount: 2
Fore
SplineSet
261.5 628 m 1
 267.5 628 l 2
 284.5 628 304.5 630 304.5 655 c 0
 304.5 681 284.5 683 267.5 683 c 2
 261.5 683 l 1
 261.5 628 l 1
214.5 720 m 1
 287.5 720 l 2
 326.5 720 355.5 699 355.5 659 c 0
 355.5 627 338.5 608 313.5 599 c 1
 386.5 513 l 1
 324.5 513 l 1
 261.5 595 l 1
 261.5 513 l 1
 214.5 513 l 1
 214.5 720 l 1
119.5 615 m 0
 119.5 525 193.5 452 282.5 452 c 0
 374.5 452 447.5 525 447.5 615 c 0
 447.5 706 374.5 780 282.5 780 c 0
 193.5 780 119.5 706 119.5 615 c 0
59.5 615 m 0
 59.5 739 160.5 840 282.5 840 c 0
 407.5 840 507.5 739 507.5 615 c 0
 507.5 492 407.5 392 282.5 392 c 0
 160.5 392 59.5 492 59.5 615 c 0
EndSplineSet
EndChar

StartChar: macron
Encoding: 175 175 111
Width: 539
Flags: W
HStem: 634 120<65.5 473.5>
LayerCount: 2
Fore
SplineSet
65.5 754 m 1
 473.5 754 l 1
 473.5 634 l 1
 65.5 634 l 1
 65.5 754 l 1
EndSplineSet
EndChar

StartChar: degree
Encoding: 176 176 112
Width: 352
Flags: W
HStem: 669 57<139.444 212.599> 817 58<140.162 213.68>
VStem: 60 73<732.291 811.375> 220 72<732.566 810.175>
LayerCount: 2
Fore
SplineSet
133 772 m 0
 133 747 150 726 176 726 c 0
 201 726 220 747 220 772 c 0
 220 798 201 817 176 817 c 0
 152 817 133 798 133 772 c 0
60 772 m 0
 60 833 111 875 176 875 c 0
 241 875 292 833 292 772 c 0
 292 712 244 669 176 669 c 0
 107 669 60 712 60 772 c 0
EndSplineSet
EndChar

StartChar: plusminus
Encoding: 177 177 113
Width: 645
Flags: W
HStem: 0 153<66 579> 363 153<66 246 399 579>
VStem: 246 153<208 363 516 671>
LayerCount: 2
Fore
SplineSet
66 153 m 1
 579 153 l 1
 579 0 l 1
 66 0 l 1
 66 153 l 1
399 208 m 1
 246 208 l 1
 246 363 l 1
 66 363 l 1
 66 516 l 1
 246 516 l 1
 246 671 l 1
 399 671 l 1
 399 516 l 1
 579 516 l 1
 579 363 l 1
 399 363 l 1
 399 208 l 1
EndSplineSet
EndChar

StartChar: uni00B2
Encoding: 178 178 114
Width: 373
Flags: W
HStem: 513 64<193 312> 778 62<147.011 219.183>
VStem: 227 85<678.95 771.899>
LayerCount: 2
Fore
SplineSet
181 778 m 0
 146 778 124 717 124 717 c 1
 63 747 l 1
 63 747 94 840 181 840 c 0
 292 840 306 768 306 727 c 0
 306 652 193 577 193 577 c 1
 312 577 l 1
 312 513 l 1
 61 513 l 1
 61 531 l 1
 61 531 227 668 227 727 c 0
 227 739 224 778 181 778 c 0
EndSplineSet
EndChar

StartChar: uni00B3
Encoding: 179 179 115
Width: 350
Flags: W
HStem: 513 61.5605<136.561 222.005> 659.681 46.7393<162.44 212.962> 780.521 57.3799<137.972 212.208>
VStem: 58.7002 234.08
LayerCount: 2
Fore
SplineSet
73.900390625 769.120117188 m 1
 73.900390625 769.120117188 89.8603515625 837.900390625 177.640625 837.900390625 c 0
 237.299804688 837.900390625 280.620117188 799.900390625 280.620117188 746.700195312 c 0
 280.620117188 720.860351562 269.98046875 701.100585938 252.879882812 687.799804688 c 1
 277.200195312 672.98046875 292.780273438 649.040039062 292.780273438 615.98046875 c 0
 292.780273438 555.940429688 243.759765625 513 176.5 513 c 0
 79.98046875 513 58.7001953125 590.140625 58.7001953125 590.140625 c 1
 124.8203125 622.440429688 l 1
 124.8203125 622.440429688 129 574.560546875 176.120117188 574.560546875 c 0
 242.439453125 574.560546875 260.100585938 662.719726562 162.440429688 659.680664062 c 1
 162.440429688 706.419921875 l 1
 241.100585938 706.419921875 223.252929688 780.520507812 176.879882812 780.520507812 c 0
 137.360351562 780.520507812 130.140625 741.759765625 130.140625 741.759765625 c 1
 73.900390625 769.120117188 l 1
EndSplineSet
EndChar

StartChar: acute
Encoding: 180 180 116
Width: 405
Flags: W
HStem: 587 253
VStem: 55.5 294
LayerCount: 2
Fore
SplineSet
55.5 664 m 1
 258.5 840 l 1
 349.5 725 l 1
 111.5 587 l 1
 55.5 664 l 1
EndSplineSet
EndChar

StartChar: mu
Encoding: 181 181 117
Width: 696
Flags: W
HStem: -15 144<279.375 415.664> 493 20G<70 247 449 626>
VStem: 70 177<-133 -6.75977 163.26 513> 449 177<166.262 513>
LayerCount: 2
Fore
SplineSet
247 269 m 2
 247 168 274 129 348 129 c 0
 422 129 449 168 449 269 c 2
 449 513 l 1
 626 513 l 1
 626 226 l 2
 626 54 540 -15 348 -15 c 0
 310.295898438 -15 276.6796875 -12.3388671875 247 -6.759765625 c 1
 247 -133 l 1
 70 -133 l 1
 70 513 l 1
 247 513 l 1
 247 269 l 2
EndSplineSet
EndChar

StartChar: paragraph
Encoding: 182 182 118
Width: 757
Flags: W
HStem: 0 21G<424 527 588 691> 721 104<527 588>
VStem: 66 461<464.674 675.84> 424 103<0 306> 588 103<0 721>
LayerCount: 2
Fore
SplineSet
588 0 m 1xe8
 588 721 l 1
 527 721 l 1
 527 0 l 1
 424 0 l 1
 424 306 l 1xd8
 328 306 l 2
 167 306 66 431 66 571 c 0
 66 712 167 825 328 825 c 2
 691 825 l 1
 691 0 l 1
 588 0 l 1xe8
EndSplineSet
EndChar

StartChar: periodcentered
Encoding: 183 183 119
Width: 299
Flags: W
HStem: 251 176<94.2577 204.742>
VStem: 64.5 170<281.655 396.345>
LayerCount: 2
Fore
SplineSet
64.5 339 m 0
 64.5 387 103.5 427 149.5 427 c 0
 195.5 427 234.5 387 234.5 339 c 0
 234.5 291 195.5 251 149.5 251 c 0
 103.5 251 64.5 291 64.5 339 c 0
EndSplineSet
EndChar

StartChar: cedilla
Encoding: 184 184 120
Width: 570
Flags: W
HStem: -294 90<152.568 266.719> -120 57<230.5 260.071>
VStem: 53.5 306
LayerCount: 2
Fore
SplineSet
125.5 -157 m 1
 125.5 -157 161.5 -204 207.5 -204 c 0
 303.206054688 -204 291.5 -120 195.5 -120 c 0
 159.5 -120 144.5 -129 144.5 -129 c 1
 182.5 26 l 1
 252.5 4 l 1
 230.5 -63 l 1
 285.5 -63 359.5 -96 359.5 -165 c 0
 359.5 -228 318.5 -294 207.5 -294 c 0
 117.5 -294 53.5 -211 53.5 -211 c 1
 125.5 -157 l 1
EndSplineSet
EndChar

StartChar: uni00B9
Encoding: 185 185 121
Width: 247
Flags: W
HStem: 513 312<150.5 184.5>
VStem: 113.5 71<513 730>
LayerCount: 2
Fore
SplineSet
62.5 697 m 1
 62.5 768 l 1
 150.5 825 l 1
 184.5 825 l 1
 184.5 513 l 1
 113.5 513 l 1
 113.5 730 l 1
 62.5 697 l 1
EndSplineSet
EndChar

StartChar: ordmasculine
Encoding: 186 186 122
Width: 500
Flags: W
HStem: 504 93<196.197 301.95> 746 94<198.361 303.167>
VStem: 59.5 117<618.114 724.179> 324.5 116<618.722 724.179>
LayerCount: 2
Fore
SplineSet
176.5 671 m 0
 176.5 628 205.5 597 250.5 597 c 0
 293.5 597 324.5 628 324.5 671 c 0
 324.5 715 291.5 746 250.5 746 c 0
 209.5 746 176.5 715 176.5 671 c 0
59.5 671 m 0
 59.5 770 144.5 840 251.5 840 c 0
 356.5 840 440.5 770 440.5 671 c 0
 440.5 574 360.5 504 251.5 504 c 0
 136.5 504 59.5 574 59.5 671 c 0
EndSplineSet
EndChar

StartChar: guillemotright
Encoding: 187 187 123
Width: 649
Flags: W
HStem: 508 20G<123.021 164.1 373.021 414.1>
LayerCount: 2
Fore
SplineSet
305.5 101 m 1
 443.5 278 l 1
 305.5 455 l 1
 398.5 528 l 1
 593.5 278 l 1
 398.5 28 l 1
 305.5 101 l 1
148.5 528 m 1
 343.5 278 l 1
 148.5 28 l 1
 55.5 101 l 1
 193.5 278 l 1
 55.5 455 l 1
 148.5 528 l 1
EndSplineSet
EndChar

StartChar: onequarter
Encoding: 188 188 124
Width: 819
Flags: W
HStem: 0 21G<92 221.636 611 714> 101 96<525 611 714 769> 805 20G<156.091 239 560.364 690>
VStem: 130 109<345 680> 611 103<0 101 197 334>
LayerCount: 2
Fore
SplineSet
611 334 m 1
 610 334 l 1
 525 197 l 1
 611 197 l 1
 611 334 l 1
714 197 m 1
 769 197 l 1
 769 101 l 1
 714 101 l 1
 714 0 l 1
 611 0 l 1
 611 101 l 1
 375 101 l 1
 375 134 l 1
 606 480 l 1
 714 480 l 1
 714 197 l 1
690 825 m 1
 210 0 l 1
 92 0 l 1
 572 825 l 1
 690 825 l 1
51 628 m 1
 51 737 l 1
 187 825 l 1
 239 825 l 1
 239 345 l 1
 130 345 l 1
 130 680 l 1
 51 628 l 1
EndSplineSet
EndChar

StartChar: onehalf
Encoding: 189 189 125
Width: 888
Flags: W
HStem: 0 95<661 837> 391 91<603.407 693.709> 805 20G<156.091 239 560.364 690>
VStem: 130 109<345 680> 712 116<260.806 374.092>
LayerCount: 2
Fore
SplineSet
644 391 m 0
 593 391 560 301 560 301 c 1
 470 344 l 1
 470 344 516 482 644 482 c 0
 807 482 828 375 828 316 c 0
 828 205 661 95 661 95 c 1
 837 95 l 1
 837 0 l 1
 468 0 l 1
 468 27 l 1
 468 27 712 228 712 316 c 0
 712 333 708 391 644 391 c 0
690 825 m 1
 210 0 l 1
 92 0 l 1
 572 825 l 1
 690 825 l 1
51 628 m 1
 51 737 l 1
 187 825 l 1
 239 825 l 1
 239 345 l 1
 130 345 l 1
 130 680 l 1
 51 628 l 1
EndSplineSet
EndChar

StartChar: threequarters
Encoding: 190 190 126
Width: 920
Flags: W
HStem: 0 21G<197.148 326.785 709.148 812.148> 101 96<623.148 709.148 812.148 867.148> 342 91.5293<169.112 280.349> 560.09 69.4951<202.244 266.491> 739.76 85.3145<174.632 268.901>
VStem: 709.148 103<0 101 197 334>
LayerCount: 2
Fore
SplineSet
70.599609375 722.809570312 m 1
 70.599609375 722.809570312 94.328125 825.07421875 224.84375 825.07421875 c 0
 313.548828125 825.07421875 377.958984375 768.57421875 377.958984375 689.474609375 c 0
 377.958984375 651.0546875 362.138671875 621.674804688 336.71484375 601.899414062 c 1
 372.875 579.864257812 396.0390625 544.26953125 396.0390625 495.114257812 c 0
 396.0390625 405.844726562 323.154296875 342 223.1484375 342 c 0
 79.638671875 342 48 456.694335938 48 456.694335938 c 1
 146.30859375 504.719726562 l 1
 146.30859375 504.719726562 152.5234375 433.529296875 222.583984375 433.529296875 c 0
 321.189453125 433.529296875 347.44921875 564.609375 202.244140625 560.08984375 c 1
 202.244140625 629.584960938 l 1
 319.19921875 629.584960938 292.6640625 739.759765625 223.71484375 739.759765625 c 0
 164.953125 739.759765625 154.21875 682.129882812 154.21875 682.129882812 c 1
 70.599609375 722.809570312 l 1
709.1484375 334 m 1
 708.1484375 334 l 1
 623.1484375 197 l 1
 709.1484375 197 l 1
 709.1484375 334 l 1
812.1484375 197 m 1
 867.1484375 197 l 1
 867.1484375 101 l 1
 812.1484375 101 l 1
 812.1484375 0 l 1
 709.1484375 0 l 1
 709.1484375 101 l 1
 473.1484375 101 l 1
 473.1484375 134 l 1
 704.1484375 480 l 1
 812.1484375 480 l 1
 812.1484375 197 l 1
795.1484375 825 m 1
 315.1484375 0 l 1
 197.1484375 0 l 1
 677.1484375 825 l 1
 795.1484375 825 l 1
EndSplineSet
EndChar

StartChar: questiondown
Encoding: 191 191 127
Width: 672
Flags: W
HStem: -15 157<291.871 413.984> 609 176<291.758 402.242>
VStem: 63 204<167.504 279.923> 262 170<430.467 555 639.655 754.345>
LayerCount: 2
Fore
SplineSet
232 423 m 1xe0
 269 450 266.401367188 462.352539062 267 555 c 1xe0
 432 555 l 1xd0
 432 403 429 365 385 337 c 0
 324 298 267 295 267 224 c 0
 267 176 303 142 348 142 c 0
 420 142 455 202 466 245 c 1
 613 174 l 1
 613 169 570 -15 347 -15 c 0
 197 -15 63 83 63 224 c 0
 63 322 136 382 232 423 c 1xe0
432 697 m 0xd0
 432 649 393 609 347 609 c 0
 301 609 262 649 262 697 c 0
 262 745 301 785 347 785 c 0
 393 785 432 745 432 697 c 0xd0
EndSplineSet
EndChar

StartChar: Agrave
Encoding: 192 192 128
Width: 930
Flags: W
HStem: 0 21G<45 254.273 675.485 885> 165 165<371 557> 805 20G<368.952 559.097>
LayerCount: 2
Fore
SplineSet
320 1152 m 1
 523 976 l 1
 467 899 l 1
 229 1037 l 1
 320 1152 l 1
551 825 m 1
 885 0 l 1
 683 0 l 1
 621 165 l 1
 307 165 l 1
 247 0 l 1
 45 0 l 1
 377 825 l 1
 551 825 l 1
557 330 m 1
 463 570 l 1
 371 330 l 1
 557 330 l 1
EndSplineSet
EndChar

StartChar: Aacute
Encoding: 193 193 129
Width: 930
Flags: W
HStem: 0 21G<45 254.273 675.485 885> 165 165<371 557> 805 20G<368.952 559.097>
LayerCount: 2
Fore
SplineSet
406 976 m 1
 609 1152 l 1
 700 1037 l 1
 462 899 l 1
 406 976 l 1
551 825 m 1
 885 0 l 1
 683 0 l 1
 621 165 l 1
 307 165 l 1
 247 0 l 1
 45 0 l 1
 377 825 l 1
 551 825 l 1
557 330 m 1
 463 570 l 1
 371 330 l 1
 557 330 l 1
EndSplineSet
EndChar

StartChar: Acircumflex
Encoding: 194 194 130
Width: 930
Flags: W
HStem: 0 21G<45 254.273 675.485 885> 165 165<371 557> 805 20G<368.952 559.097>
LayerCount: 2
Fore
SplineSet
244 990 m 1
 465 1152 l 1
 686 990 l 1
 618 899 l 1
 465 1011 l 1
 312 899 l 1
 244 990 l 1
551 825 m 1
 885 0 l 1
 683 0 l 1
 621 165 l 1
 307 165 l 1
 247 0 l 1
 45 0 l 1
 377 825 l 1
 551 825 l 1
557 330 m 1
 463 570 l 1
 371 330 l 1
 557 330 l 1
EndSplineSet
EndChar

StartChar: Atilde
Encoding: 195 195 131
Width: 930
Flags: W
HStem: 0 21G<45 254.273 675.485 885> 165 165<371 557> 805 20G<368.952 559.097> 927 126<483.882 581.732> 973 126<348.268 455.427>
LayerCount: 2
Fore
SplineSet
380 973 m 0xe8
 348 973 335 927 335 927 c 1
 234 927 l 1xf0
 234 927 260 1099 370 1099 c 0xe8
 409 1099 509 1053 550 1053 c 0xf0
 582 1053 595 1099 595 1099 c 1
 696 1099 l 1xe8
 696 1099 670 927 560 927 c 0xf0
 521 927 444.203125 973 380 973 c 0xe8
551 825 m 1
 885 0 l 1
 683 0 l 1
 621 165 l 1
 307 165 l 1
 247 0 l 1
 45 0 l 1
 377 825 l 1
 551 825 l 1
557 330 m 1
 463 570 l 1
 371 330 l 1
 557 330 l 1
EndSplineSet
EndChar

StartChar: Adieresis
Encoding: 196 196 132
Width: 930
Flags: W
HStem: 0 21G<45 254.273 675.485 885> 165 165<371 557> 805 20G<368.952 559.097> 919 184<287.401 404.599 524.401 641.599>
VStem: 254 184<952.401 1069.6> 491 184<952.401 1069.6>
LayerCount: 2
Fore
SplineSet
583 1103 m 0
 634 1103 675 1062 675 1011 c 0
 675 960 634 919 583 919 c 0
 532 919 491 960 491 1011 c 0
 491 1062 532 1103 583 1103 c 0
346 1103 m 0
 397 1103 438 1062 438 1011 c 0
 438 960 397 919 346 919 c 0
 295 919 254 960 254 1011 c 0
 254 1062 295 1103 346 1103 c 0
551 825 m 1
 885 0 l 1
 683 0 l 1
 621 165 l 1
 307 165 l 1
 247 0 l 1
 45 0 l 1
 377 825 l 1
 551 825 l 1
557 330 m 1
 463 570 l 1
 371 330 l 1
 557 330 l 1
EndSplineSet
EndChar

StartChar: Aring
Encoding: 197 197 133
Width: 930
Flags: W
HStem: 0 21G<45 254.273 675.485 885> 165 165<371 557> 805 20G<368.952 559.097> 902 79<418.729 510.743> 1107 80<419.824 510.521>
VStem: 304 100<996.459 1092.06> 526 100<996.459 1092.06>
LayerCount: 2
Fore
SplineSet
404 1045 m 0
 404 1010 429 981 465 981 c 0
 500 981 526 1010 526 1045 c 0
 526 1079 499 1107 465 1107 c 0
 432 1107 404 1079 404 1045 c 0
304 1045 m 0
 304 1128 375 1187 465 1187 c 0
 556 1187 626 1128 626 1045 c 0
 626 961 559 902 465 902 c 0
 369 902 304 961 304 1045 c 0
551 825 m 1
 885 0 l 1
 683 0 l 1
 621 165 l 1
 307 165 l 1
 247 0 l 1
 45 0 l 1
 377 825 l 1
 551 825 l 1
557 330 m 1
 463 570 l 1
 371 330 l 1
 557 330 l 1
EndSplineSet
EndChar

StartChar: AE
Encoding: 198 198 134
Width: 1282
Flags: W
HStem: 0 165<871.625 1226.62> 165 165<477.875 636.625> 331 165<871.625 1211.62> 660 165<871.625 1226.62>
VStem: 636.625 235<330 331 496 635>
LayerCount: 2
Fore
SplineSet
636.625 635 m 1x78
 477.875 330 l 1
 636.625 330 l 1
 636.625 635 l 1x78
395.375 165 m 1
 307.875 0 l 1
 55.375 0 l 1
 526.625 825 l 1
 1226.625 825 l 1
 1226.625 660 l 1
 871.625 660 l 1
 871.625 496 l 1
 1211.625 496 l 1
 1211.625 331 l 1
 871.625 331 l 1
 871.625 165 l 1
 1226.625 165 l 1
 1226.625 0 l 1
 636.625 0 l 1xb8
 636.625 165 l 1
 395.375 165 l 1
EndSplineSet
EndChar

StartChar: Ccedilla
Encoding: 199 199 135
Width: 798
Flags: W
HStem: -294 90<346.068 460.219> -120 57<424 453.571> -15 185<438.327 655.498> 655 185<414.445 655.498>
VStem: 54 204<316.701 507.757>
LayerCount: 2
Fore
SplineSet
501 -15 m 0
 481 -15 461 -14 441 -11 c 1
 424 -63 l 1
 479 -63 553 -96 553 -165 c 0
 553 -228 512 -294 401 -294 c 0
 311 -294 247 -211 247 -211 c 1
 319 -157 l 1
 319 -157 355 -204 401 -204 c 0
 496.706054688 -204 485 -120 389 -120 c 0
 353 -120 338 -129 338 -129 c 1
 369 5 l 1
 193 60 54 220 54 411 c 0
 54 648 267 840 501 840 c 0
 680 840 739 800 739 800 c 1
 699 615 l 1
 699 615 626 655 530 655 c 0
 341 655 258 523 258 413 c 0
 258 302 341 170 530 170 c 0
 626 170 699 210 699 210 c 1
 739 25 l 1
 739 25 680 -15 501 -15 c 0
EndSplineSet
EndChar

StartChar: Egrave
Encoding: 200 200 136
Width: 613
Flags: W
HStem: 0 165<261.5 545.5> 331 165<261.5 533.5> 660 165<261.5 545.5>
VStem: 73.5 188<165 331 496 660>
LayerCount: 2
Fore
SplineSet
545.5 825 m 1
 545.5 660 l 1
 261.5 660 l 1
 261.5 496 l 1
 533.5 496 l 1
 533.5 331 l 1
 261.5 331 l 1
 261.5 165 l 1
 545.5 165 l 1
 545.5 0 l 1
 73.5 0 l 1
 73.5 825 l 1
 545.5 825 l 1
158.5 1152 m 1
 361.5 976 l 1
 305.5 899 l 1
 67.5 1037 l 1
 158.5 1152 l 1
EndSplineSet
EndChar

StartChar: Eacute
Encoding: 201 201 137
Width: 612
Flags: W
HStem: 0 165<258 542> 331 165<258 530> 660 165<258 542>
VStem: 70 188<165 331 496 660>
LayerCount: 2
Fore
SplineSet
542 825 m 1
 542 660 l 1
 258 660 l 1
 258 496 l 1
 530 496 l 1
 530 331 l 1
 258 331 l 1
 258 165 l 1
 542 165 l 1
 542 0 l 1
 70 0 l 1
 70 825 l 1
 542 825 l 1
182 976 m 1
 385 1152 l 1
 476 1037 l 1
 238 899 l 1
 182 976 l 1
EndSplineSet
EndChar

StartChar: Ecircumflex
Encoding: 202 202 138
Width: 612
Flags: W
HStem: 0 165<258 542> 331 165<258 530> 660 165<258 542>
VStem: 70 188<165 331 496 660>
LayerCount: 2
Fore
SplineSet
542 825 m 1
 542 660 l 1
 258 660 l 1
 258 496 l 1
 530 496 l 1
 530 331 l 1
 258 331 l 1
 258 165 l 1
 542 165 l 1
 542 0 l 1
 70 0 l 1
 70 825 l 1
 542 825 l 1
79 990 m 1
 300 1152 l 1
 521 990 l 1
 453 899 l 1
 300 1011 l 1
 147 899 l 1
 79 990 l 1
EndSplineSet
EndChar

StartChar: Edieresis
Encoding: 203 203 139
Width: 612
Flags: W
HStem: 0 165<258 542> 331 165<258 530> 660 165<258 542> 919 184<122.401 239.599 359.401 476.599>
VStem: 70 188<165 331 496 660> 89 184<952.401 1069.6> 326 184<952.401 1069.6>
LayerCount: 2
Fore
SplineSet
542 825 m 1xfa
 542 660 l 1
 258 660 l 1
 258 496 l 1
 530 496 l 1
 530 331 l 1
 258 331 l 1
 258 165 l 1
 542 165 l 1
 542 0 l 1
 70 0 l 1
 70 825 l 1
 542 825 l 1xfa
418 1103 m 0
 469 1103 510 1062 510 1011 c 0
 510 960 469 919 418 919 c 0
 367 919 326 960 326 1011 c 0
 326 1062 367 1103 418 1103 c 0
181 1103 m 0
 232 1103 273 1062 273 1011 c 0
 273 960 232 919 181 919 c 0
 130 919 89 960 89 1011 c 0xf6
 89 1062 130 1103 181 1103 c 0
EndSplineSet
EndChar

StartChar: Igrave
Encoding: 204 204 140
Width: 444
Flags: W
HStem: 0 21G<199 387> 805 20G<199 387>
VStem: 199 188<0 825>
LayerCount: 2
Fore
SplineSet
387 825 m 1
 387 0 l 1
 199 0 l 1
 199 825 l 1
 387 825 l 1
148 1152 m 1
 351 976 l 1
 295 899 l 1
 57 1037 l 1
 148 1152 l 1
EndSplineSet
EndChar

StartChar: Iacute
Encoding: 205 205 141
Width: 402
Flags: W
HStem: 0 21G<58 246> 805 20G<58 246>
VStem: 58 188<0 825>
LayerCount: 2
Fore
SplineSet
246 825 m 1
 246 0 l 1
 58 0 l 1
 58 825 l 1
 246 825 l 1
54 976 m 1
 257 1152 l 1
 348 1037 l 1
 110 899 l 1
 54 976 l 1
EndSplineSet
EndChar

StartChar: Icircumflex
Encoding: 206 206 142
Width: 518
Flags: W
HStem: 0 21G<165 353> 805 20G<165 353>
VStem: 165 188<0 825>
LayerCount: 2
Fore
SplineSet
353 825 m 1
 353 0 l 1
 165 0 l 1
 165 825 l 1
 353 825 l 1
38 990 m 1
 259 1152 l 1
 480 990 l 1
 412 899 l 1
 259 1011 l 1
 106 899 l 1
 38 990 l 1
EndSplineSet
EndChar

StartChar: Idieresis
Encoding: 207 207 143
Width: 498
Flags: W
HStem: 0 21G<154.5 342.5> 805 20G<154.5 342.5> 919 184<71.9006 189.099 308.901 426.099>
VStem: 38.5 184<952.401 1069.6> 154.5 188<0 825> 275.5 184<952.401 1069.6>
LayerCount: 2
Fore
SplineSet
342.5 825 m 1xe8
 342.5 0 l 1
 154.5 0 l 1
 154.5 825 l 1
 342.5 825 l 1xe8
367.5 1103 m 0
 418.5 1103 459.5 1062 459.5 1011 c 0
 459.5 960 418.5 919 367.5 919 c 0
 316.5 919 275.5 960 275.5 1011 c 0xe4
 275.5 1062 316.5 1103 367.5 1103 c 0
130.5 1103 m 0
 181.5 1103 222.5 1062 222.5 1011 c 0
 222.5 960 181.5 919 130.5 919 c 0
 79.5 919 38.5 960 38.5 1011 c 0xf0
 38.5 1062 79.5 1103 130.5 1103 c 0
EndSplineSet
EndChar

StartChar: Eth
Encoding: 208 208 144
Width: 851
Flags: W
HStem: 0 168<327 460.575> 657 168<327 460.575>
VStem: 139 188<168 336 489 657> 593 201<293.486 531.414>
LayerCount: 2
Fore
SplineSet
593 412 m 0
 593 556 530 657 327 657 c 1
 327 489 l 1
 441.70703125 461.194335938 l 1
 441.70703125 371.572265625 l 1
 327 336 l 1
 327 168 l 1
 530 168 593 268 593 412 c 0
139 489 m 1
 139 825 l 1
 378 825 l 2
 604 825 794 653 794 413 c 0
 794 172 605 0 378 0 c 2
 139 0 l 1
 139 336 l 1
 57 371.572265625 l 1
 57 461.194335938 l 1
 139 489 l 1
EndSplineSet
EndChar

StartChar: Ntilde
Encoding: 209 209 145
Width: 856
Flags: W
HStem: 0 21G<75 263 756.566 781> 805 20G<75 99.2824 592.906 781> 927 126<446.882 544.732> 973 126<311.268 418.427>
VStem: 75 188<0 424> 591 190<400 825>
LayerCount: 2
Fore
SplineSet
343 973 m 0xdc
 311 973 298 927 298 927 c 1
 197 927 l 1xec
 197 927 223 1099 333 1099 c 0xdc
 372 1099 472 1053 513 1053 c 0xec
 545 1053 558 1099 558 1099 c 1
 659 1099 l 1xdc
 659 1099 633 927 523 927 c 0xec
 484 927 407.203125 973 343 973 c 0xdc
75 0 m 1
 75 825 l 1
 591 400 l 1
 593 825 l 1
 781 825 l 1
 781 0 l 1
 263 424 l 1
 263 0 l 1
 75 0 l 1
EndSplineSet
EndChar

StartChar: Ograve
Encoding: 210 210 146
Width: 952
Flags: W
HStem: -15 182<378.181 572.78> 659 181<382.728 570.69>
VStem: 60.5 203<295.231 523> 688.5 203<295.231 525.587>
LayerCount: 2
Fore
SplineSet
263.5 413 m 0
 263.5 290 322.5 167 476.5 167 c 0
 626.5 167 688.5 290 688.5 413 c 0
 688.5 536 622.5 659 476.5 659 c 0
 331.5 659 263.5 536 263.5 413 c 0
60.5 413 m 0
 60.5 654 249.5 840 476.5 840 c 0
 705.5 840 891.5 654 891.5 413 c 0
 891.5 172 713.5 -15 476.5 -15 c 0
 232.5 -15 60.5 172 60.5 413 c 0
330.5 1152 m 1
 533.5 976 l 1
 477.5 899 l 1
 239.5 1037 l 1
 330.5 1152 l 1
EndSplineSet
EndChar

StartChar: Oacute
Encoding: 211 211 147
Width: 952
Flags: W
HStem: -15 182<378.181 572.78> 659 181<382.728 570.69>
VStem: 60.5 203<295.231 523> 688.5 203<295.231 525.587>
LayerCount: 2
Fore
SplineSet
263.5 413 m 0
 263.5 290 322.5 167 476.5 167 c 0
 626.5 167 688.5 290 688.5 413 c 0
 688.5 536 622.5 659 476.5 659 c 0
 331.5 659 263.5 536 263.5 413 c 0
60.5 413 m 0
 60.5 654 249.5 840 476.5 840 c 0
 705.5 840 891.5 654 891.5 413 c 0
 891.5 172 713.5 -15 476.5 -15 c 0
 232.5 -15 60.5 172 60.5 413 c 0
377.5 976 m 1
 580.5 1152 l 1
 671.5 1037 l 1
 433.5 899 l 1
 377.5 976 l 1
EndSplineSet
EndChar

StartChar: Ocircumflex
Encoding: 212 212 148
Width: 952
Flags: W
HStem: -15 182<378.181 572.78> 659 181<382.728 570.69>
VStem: 60.5 203<295.231 523> 688.5 203<295.231 525.587>
LayerCount: 2
Fore
SplineSet
263.5 413 m 0
 263.5 290 322.5 167 476.5 167 c 0
 626.5 167 688.5 290 688.5 413 c 0
 688.5 536 622.5 659 476.5 659 c 0
 331.5 659 263.5 536 263.5 413 c 0
60.5 413 m 0
 60.5 654 249.5 840 476.5 840 c 0
 705.5 840 891.5 654 891.5 413 c 0
 891.5 172 713.5 -15 476.5 -15 c 0
 232.5 -15 60.5 172 60.5 413 c 0
254.5 990 m 1
 475.5 1152 l 1
 696.5 990 l 1
 628.5 899 l 1
 475.5 1011 l 1
 322.5 899 l 1
 254.5 990 l 1
EndSplineSet
EndChar

StartChar: Otilde
Encoding: 213 213 149
Width: 952
Flags: W
HStem: -15 182<378.181 572.78> 659 181<382.728 570.69> 927 126<494.382 592.232> 973 126<358.768 465.927>
VStem: 60.5 203<295.231 523> 688.5 203<295.231 525.587>
LayerCount: 2
Fore
SplineSet
390.5 973 m 0xdc
 358.5 973 345.5 927 345.5 927 c 1
 244.5 927 l 1xec
 244.5 927 270.5 1099 380.5 1099 c 0xdc
 419.5 1099 519.5 1053 560.5 1053 c 0xec
 592.5 1053 605.5 1099 605.5 1099 c 1
 706.5 1099 l 1xdc
 706.5 1099 680.5 927 570.5 927 c 0xec
 531.5 927 454.703125 973 390.5 973 c 0xdc
263.5 413 m 0
 263.5 290 322.5 167 476.5 167 c 0
 626.5 167 688.5 290 688.5 413 c 0
 688.5 536 622.5 659 476.5 659 c 0
 331.5 659 263.5 536 263.5 413 c 0
60.5 413 m 0
 60.5 654 249.5 840 476.5 840 c 0
 705.5 840 891.5 654 891.5 413 c 0
 891.5 172 713.5 -15 476.5 -15 c 0
 232.5 -15 60.5 172 60.5 413 c 0
EndSplineSet
EndChar

StartChar: Odieresis
Encoding: 214 214 150
Width: 952
Flags: W
HStem: -15 182<378.181 572.78> 659 181<382.728 570.69> 919 184<298.901 416.099 535.901 653.099>
VStem: 60.5 203<295.231 523> 265.5 184<952.401 1069.6> 502.5 184<952.401 1069.6> 688.5 203<295.231 525.587>
LayerCount: 2
Fore
SplineSet
263.5 413 m 0
 263.5 290 322.5 167 476.5 167 c 0
 626.5 167 688.5 290 688.5 413 c 0
 688.5 536 622.5 659 476.5 659 c 0
 331.5 659 263.5 536 263.5 413 c 0
60.5 413 m 0
 60.5 654 249.5 840 476.5 840 c 0
 705.5 840 891.5 654 891.5 413 c 0
 891.5 172 713.5 -15 476.5 -15 c 0
 232.5 -15 60.5 172 60.5 413 c 0
594.5 1103 m 0
 645.5 1103 686.5 1062 686.5 1011 c 0
 686.5 960 645.5 919 594.5 919 c 0
 543.5 919 502.5 960 502.5 1011 c 0
 502.5 1062 543.5 1103 594.5 1103 c 0
357.5 1103 m 0
 408.5 1103 449.5 1062 449.5 1011 c 0
 449.5 960 408.5 919 357.5 919 c 0
 306.5 919 265.5 960 265.5 1011 c 0
 265.5 1062 306.5 1103 357.5 1103 c 0
EndSplineSet
EndChar

StartChar: multiply
Encoding: 215 215 151
Width: 629
Flags: W
LayerCount: 2
Fore
SplineSet
575 262 m 1
 468 154 l 1
 315 307 l 1
 162 154 l 1
 54 263 l 1
 206 415 l 1
 54 568 l 1
 162 675 l 1
 314 523 l 1
 467 675 l 1
 575 567 l 1
 422 414 l 1
 575 262 l 1
EndSplineSet
EndChar

StartChar: Oslash
Encoding: 216 216 152
Width: 952
Flags: W
HStem: -15 182<385.447 572.78> 659 181<382.728 564.348>
VStem: 60.5 203<292.7 523> 688.5 203<295.231 527.234>
LayerCount: 2
Fore
SplineSet
688.5 413 m 0
 688.5 455 680.5 498 663.5 536 c 1
 384.5 185 l 1
 410.5 173 440.5 167 476.5 167 c 0
 626.5 167 688.5 290 688.5 413 c 0
263.5 413 m 0
 263.5 370 270.5 326 286.5 288 c 1
 565.5 640 l 1
 540.5 652 510.5 659 476.5 659 c 0
 331.5 659 263.5 536 263.5 413 c 0
104.5 59 m 1
 159.5 128 l 1
 96.5 203 60.5 302 60.5 413 c 0
 60.5 654 249.5 840 476.5 840 c 0
 550.5 840 620.5 820 681.5 785 c 1
 735.5 853 l 1
 847.5 767 l 1
 789.5 694 l 1
 852.5 620 891.5 522 891.5 413 c 0
 891.5 172 713.5 -15 476.5 -15 c 0
 398.5 -15 327.5 4 267.5 38 c 1
 216.5 -27 l 1
 104.5 59 l 1
EndSplineSet
EndChar

StartChar: Ugrave
Encoding: 217 217 153
Width: 785
Flags: W
HStem: -15 185<308.429 476.571> 805 20G<70.5 258.5 526.5 714.5>
VStem: 70.5 188<229.657 825> 526.5 188<229.657 825>
LayerCount: 2
Fore
SplineSet
526.5 825 m 1
 714.5 825 l 1
 714.5 293 l 2
 714.5 89 602.5 -15 392.5 -15 c 0
 182.5 -15 70.5 89 70.5 293 c 2
 70.5 825 l 1
 258.5 825 l 1
 258.5 348 l 2
 258.5 210 300.5 170 392.5 170 c 0
 484.5 170 526.5 210 526.5 348 c 2
 526.5 825 l 1
247.5 1152 m 1
 450.5 976 l 1
 394.5 899 l 1
 156.5 1037 l 1
 247.5 1152 l 1
EndSplineSet
EndChar

StartChar: Uacute
Encoding: 218 218 154
Width: 785
Flags: W
HStem: -15 185<308.429 476.571> 805 20G<70.5 258.5 526.5 714.5>
VStem: 70.5 188<229.657 825> 526.5 188<229.657 825>
LayerCount: 2
Fore
SplineSet
526.5 825 m 1
 714.5 825 l 1
 714.5 293 l 2
 714.5 89 602.5 -15 392.5 -15 c 0
 182.5 -15 70.5 89 70.5 293 c 2
 70.5 825 l 1
 258.5 825 l 1
 258.5 348 l 2
 258.5 210 300.5 170 392.5 170 c 0
 484.5 170 526.5 210 526.5 348 c 2
 526.5 825 l 1
274.5 976 m 1
 477.5 1152 l 1
 568.5 1037 l 1
 330.5 899 l 1
 274.5 976 l 1
EndSplineSet
EndChar

StartChar: Ucircumflex
Encoding: 219 219 155
Width: 785
Flags: W
HStem: -15 185<308.429 476.571> 805 20G<70.5 258.5 526.5 714.5>
VStem: 70.5 188<229.657 825> 526.5 188<229.657 825>
LayerCount: 2
Fore
SplineSet
526.5 825 m 1
 714.5 825 l 1
 714.5 293 l 2
 714.5 89 602.5 -15 392.5 -15 c 0
 182.5 -15 70.5 89 70.5 293 c 2
 70.5 825 l 1
 258.5 825 l 1
 258.5 348 l 2
 258.5 210 300.5 170 392.5 170 c 0
 484.5 170 526.5 210 526.5 348 c 2
 526.5 825 l 1
171.5 990 m 1
 392.5 1152 l 1
 613.5 990 l 1
 545.5 899 l 1
 392.5 1011 l 1
 239.5 899 l 1
 171.5 990 l 1
EndSplineSet
EndChar

StartChar: Udieresis
Encoding: 220 220 156
Width: 785
Flags: W
HStem: -15 185<308.429 476.571> 805 20G<70.5 258.5 526.5 714.5> 919 184<214.901 332.099 451.901 569.099>
VStem: 70.5 188<229.657 825> 181.5 184<952.401 1069.6> 418.5 184<952.401 1069.6> 526.5 188<229.657 825>
LayerCount: 2
Fore
SplineSet
526.5 825 m 1xf2
 714.5 825 l 1
 714.5 293 l 2
 714.5 89 602.5 -15 392.5 -15 c 0
 182.5 -15 70.5 89 70.5 293 c 2
 70.5 825 l 1
 258.5 825 l 1
 258.5 348 l 2
 258.5 210 300.5 170 392.5 170 c 0
 484.5 170 526.5 210 526.5 348 c 2
 526.5 825 l 1xf2
510.5 1103 m 0
 561.5 1103 602.5 1062 602.5 1011 c 0
 602.5 960 561.5 919 510.5 919 c 0
 459.5 919 418.5 960 418.5 1011 c 0xe4
 418.5 1062 459.5 1103 510.5 1103 c 0
273.5 1103 m 0
 324.5 1103 365.5 1062 365.5 1011 c 0
 365.5 960 324.5 919 273.5 919 c 0
 222.5 919 181.5 960 181.5 1011 c 0xe8
 181.5 1062 222.5 1103 273.5 1103 c 0
EndSplineSet
EndChar

StartChar: Yacute
Encoding: 221 221 157
Width: 879
Flags: W
HStem: 0 21G<345.5 533.5> 805 20G<41.5 280.53 598.47 837.5>
VStem: 345.5 188<0 370>
LayerCount: 2
Fore
SplineSet
41.5 825 m 1
 267.5 825 l 1
 439.5 561 l 1
 611.5 825 l 1
 837.5 825 l 1
 533.5 370 l 1
 533.5 0 l 1
 345.5 0 l 1
 345.5 370 l 1
 41.5 825 l 1
322.5 976 m 1
 525.5 1152 l 1
 616.5 1037 l 1
 378.5 899 l 1
 322.5 976 l 1
EndSplineSet
EndChar

StartChar: Thorn
Encoding: 222 222 158
Width: 718
Flags: W
HStem: 0 21G<67.5 255.5> 153 150<255.5 398.199> 522 150<255.5 398.199> 805 20G<67.5 255.5>
VStem: 67.5 188<0 153 303 522 672 825> 447.5 203<344.618 478.687>
LayerCount: 2
Fore
SplineSet
255.5 303 m 1
 308.5 303 l 2
 382.5 303 447.5 329 447.5 412 c 0
 447.5 496 382.5 522 308.5 522 c 2
 255.5 522 l 1
 255.5 303 l 1
255.5 825 m 1
 255.5 672 l 1
 368.5 672 l 2
 529.5 672 650.5 589 650.5 418 c 0
 650.5 248 529.5 153 368.5 153 c 2
 255.5 153 l 1
 255.5 0 l 1
 67.5 0 l 1
 67.5 825 l 1
 255.5 825 l 1
EndSplineSet
EndChar

StartChar: germandbls
Encoding: 223 223 159
Width: 678
Flags: W
HStem: 0 21G<66.9692 235 278 278>
VStem: 67 168<0 707.76> 409 178<577.442 689.757> 434 178<189.522 312.551>
LayerCount: 2
Fore
SplineSet
587 638 m 1xe0
 587 535 541 484 479 444 c 1
 572 398 612 315 612 232 c 0
 612 -7 278 0 278 0 c 1
 278 142 l 1
 267 167 434 131 434 244 c 0xd0
 434 341 336 363 297 392 c 1
 297 509 l 2
 297 568 409 543 409 626 c 0
 408 718 344 733 278 724 c 0
 241.286132812 718.993164062 235 653 235 584 c 2
 235 0 l 1
 67 0 l 1
 66 650 l 2
 65.4892578125 981.903320312 611.799804688 929.125976562 587 638 c 1xe0
EndSplineSet
EndChar

StartChar: agrave
Encoding: 224 224 160
Width: 733
Flags: W
HStem: -15 151<306.057 421.346> 0 21G<492.5 667.5> 377 151<307.144 442.31> 820 20G<223.674 262.568>
VStem: 67.5 188<186.537 325.882> 492.5 175<0 58 182.601 330.189>
LayerCount: 2
Fore
SplineSet
255.5 256 m 0xbc
 255.5 186 303.5 136 375.5 136 c 0
 444.5 136 494.5 186 494.5 256 c 0
 494.5 327 441.5 377 375.5 377 c 0
 308.5 377 255.5 327 255.5 256 c 0xbc
667.5 454 m 2
 667.5 0 l 1
 492.5 0 l 1x7c
 492.5 58 l 1
 454.5 16 392.5 -15 322.5 -15 c 0
 172.5 -15 67.5 106 67.5 256 c 0
 67.5 406 172.5 528 322.5 528 c 0
 391.5 528 667 541 667.5 454 c 2
239.5 840 m 1
 442.5 664 l 1
 386.5 587 l 1
 148.5 725 l 1
 239.5 840 l 1
EndSplineSet
EndChar

StartChar: aacute
Encoding: 225 225 161
Width: 733
Flags: W
HStem: -15 151<306.057 421.346> 0 21G<492.5 667.5> 377 151<307.144 442.31> 820 20G<506.432 545.326>
VStem: 67.5 188<186.537 325.882> 492.5 175<0 58 182.601 330.189>
LayerCount: 2
Fore
SplineSet
255.5 256 m 0xbc
 255.5 186 303.5 136 375.5 136 c 0
 444.5 136 494.5 186 494.5 256 c 0
 494.5 327 441.5 377 375.5 377 c 0
 308.5 377 255.5 327 255.5 256 c 0xbc
667.5 454 m 2
 667.5 0 l 1
 492.5 0 l 1x7c
 492.5 58 l 1
 454.5 16 392.5 -15 322.5 -15 c 0
 172.5 -15 67.5 106 67.5 256 c 0
 67.5 406 172.5 528 322.5 528 c 0
 391.5 528 667 541 667.5 454 c 2
326.5 664 m 1
 529.5 840 l 1
 620.5 725 l 1
 382.5 587 l 1
 326.5 664 l 1
EndSplineSet
EndChar

StartChar: acircumflex
Encoding: 226 226 162
Width: 733
Flags: W
HStem: -15 151<306.057 421.346> 0 21G<492.5 667.5> 377 151<307.144 442.31> 820 20G<357.216 411.784>
VStem: 67.5 188<186.537 325.882> 492.5 175<0 58 182.601 330.189>
LayerCount: 2
Fore
SplineSet
255.5 256 m 0xbc
 255.5 186 303.5 136 375.5 136 c 0
 444.5 136 494.5 186 494.5 256 c 0
 494.5 327 441.5 377 375.5 377 c 0
 308.5 377 255.5 327 255.5 256 c 0xbc
667.5 454 m 2
 667.5 0 l 1
 492.5 0 l 1x7c
 492.5 58 l 1
 454.5 16 392.5 -15 322.5 -15 c 0
 172.5 -15 67.5 106 67.5 256 c 0
 67.5 406 172.5 528 322.5 528 c 0
 391.5 528 667 541 667.5 454 c 2
163.5 678 m 1
 384.5 840 l 1
 605.5 678 l 1
 537.5 587 l 1
 384.5 699 l 1
 231.5 587 l 1
 163.5 678 l 1
EndSplineSet
EndChar

StartChar: atilde
Encoding: 227 227 163
Width: 733
Flags: W
HStem: -15 151<306.057 421.346> 0 21G<492.5 667.5> 377 151<307.144 442.31> 615 126<403.382 501.232> 661 126<267.768 374.927>
VStem: 67.5 188<186.537 325.882> 492.5 175<0 58 182.601 330.189>
LayerCount: 2
Fore
SplineSet
255.5 256 m 0xa6
 255.5 186 303.5 136 375.5 136 c 0
 444.5 136 494.5 186 494.5 256 c 0
 494.5 327 441.5 377 375.5 377 c 0
 308.5 377 255.5 327 255.5 256 c 0xa6
667.5 454 m 2
 667.5 0 l 1
 492.5 0 l 1x66
 492.5 58 l 1
 454.5 16 392.5 -15 322.5 -15 c 0
 172.5 -15 67.5 106 67.5 256 c 0
 67.5 406 172.5 528 322.5 528 c 0
 391.5 528 667 541 667.5 454 c 2
299.5 661 m 0x2e
 267.5 661 254.5 615 254.5 615 c 1
 153.5 615 l 1x36
 153.5 615 179.5 787 289.5 787 c 0x2e
 328.5 787 428.5 741 469.5 741 c 0x36
 501.5 741 514.5 787 514.5 787 c 1
 615.5 787 l 1x2e
 615.5 787 589.5 615 479.5 615 c 0x36
 440.5 615 363.703125 661 299.5 661 c 0x2e
EndSplineSet
EndChar

StartChar: adieresis
Encoding: 228 228 164
Width: 733
Flags: W
HStem: -15 151<306.057 421.346> 0 21G<492.5 667.5> 377 151<307.144 442.31> 607 184<207.901 325.099 444.901 562.099>
VStem: 67.5 188<186.537 325.882> 174.5 184<640.401 757.599> 411.5 184<640.401 757.599> 492.5 175<0 58 182.601 330.189>
LayerCount: 2
Fore
SplineSet
255.5 256 m 0xb8
 255.5 186 303.5 136 375.5 136 c 0
 444.5 136 494.5 186 494.5 256 c 0
 494.5 327 441.5 377 375.5 377 c 0
 308.5 377 255.5 327 255.5 256 c 0xb8
667.5 454 m 2xb9
 667.5 0 l 1
 492.5 0 l 1x79
 492.5 58 l 1
 454.5 16 392.5 -15 322.5 -15 c 0
 172.5 -15 67.5 106 67.5 256 c 0
 67.5 406 172.5 528 322.5 528 c 0
 391.5 528 667 541 667.5 454 c 2xb9
503.5 791 m 0
 554.5 791 595.5 750 595.5 699 c 0
 595.5 648 554.5 607 503.5 607 c 0
 452.5 607 411.5 648 411.5 699 c 0x32
 411.5 750 452.5 791 503.5 791 c 0
266.5 791 m 0
 317.5 791 358.5 750 358.5 699 c 0
 358.5 648 317.5 607 266.5 607 c 0
 215.5 607 174.5 648 174.5 699 c 0x34
 174.5 750 215.5 791 266.5 791 c 0
EndSplineSet
EndChar

StartChar: aring
Encoding: 229 229 165
Width: 733
Flags: W
HStem: -15 151<306.057 421.346> 0 21G<492.5 667.5> 377 151<307.144 442.31> 590 79<338.229 430.243> 795 80<339.324 430.021>
VStem: 67.5 188<186.537 325.882> 223.5 100<684.459 780.057> 445.5 100<684.459 780.057> 492.5 175<0 58 182.601 330.189>
LayerCount: 2
Fore
SplineSet
255.5 256 m 0xbc
 255.5 186 303.5 136 375.5 136 c 0
 444.5 136 494.5 186 494.5 256 c 0
 494.5 327 441.5 377 375.5 377 c 0
 308.5 377 255.5 327 255.5 256 c 0xbc
667.5 454 m 2xbc80
 667.5 0 l 1
 492.5 0 l 1x7c80
 492.5 58 l 1
 454.5 16 392.5 -15 322.5 -15 c 0
 172.5 -15 67.5 106 67.5 256 c 0
 67.5 406 172.5 528 322.5 528 c 0
 391.5 528 667 541 667.5 454 c 2xbc80
323.5 733 m 0x3b
 323.5 698 348.5 669 384.5 669 c 0
 419.5 669 445.5 698 445.5 733 c 0
 445.5 767 418.5 795 384.5 795 c 0
 351.5 795 323.5 767 323.5 733 c 0x3b
223.5 733 m 0
 223.5 816 294.5 875 384.5 875 c 0
 475.5 875 545.5 816 545.5 733 c 0
 545.5 649 478.5 590 384.5 590 c 0
 288.5 590 223.5 649 223.5 733 c 0
EndSplineSet
EndChar

StartChar: ae
Encoding: 230 230 166
Width: 1015
Flags: W
HStem: -15 141<625.192 777.915> -15 106<195.5 369.506> 207 94<184 366.08> 232 98<588 783> 387 141<166.156 359.061> 413 115<618.256 751.051>
VStem: 59 176<109.143 190.879>
LayerCount: 2
Fore
SplineSet
235 151 m 0x62
 235 115 267 91 314 91 c 0
 361 91 399 121 399 151 c 0
 399 181 361 207 314 207 c 0
 267 207 235 187 235 151 c 0x62
588 330 m 1x16
 783 330 l 1
 775 384 738 413 686 413 c 0
 625 413 591 377 588 330 c 1x16
148 357 m 1
 92 478 l 1
 92 478 156 528 287 528 c 0x6a
 349 528 437 513 499 464 c 1
 548 504 612 528 681 528 c 0
 837 528 956 436 956 256 c 0
 956 249 956 238 955 232 c 1
 583 232 l 1
 583 153 649 126 694 126 c 0
 751 126 776 137 819 183 c 1
 947 119 l 1
 889 22 795 -15 681 -15 c 0x96
 596 -15 520 21 468 79 c 1
 468 79 406 -15 249 -15 c 0
 142 -15 59 43 59 136 c 0
 59 228 126 301 242 301 c 0
 327 301 376 278 399 262 c 1
 399 299 l 2
 399 355 338 387 287 387 c 0x6a
 195 387 148 357 148 357 c 1
EndSplineSet
EndChar

StartChar: ccedilla
Encoding: 231 231 167
Width: 570
Flags: W
HStem: -294 90<229.068 343.219> -120 57<307 336.571> -15 145<320.118 458.309> 383 145<299.259 456.899>
VStem: 57 188<185.414 325.466>
LayerCount: 2
Fore
SplineSet
513 31 m 1
 513 31 455 -15 341 -15 c 0
 335 -15 329 -15 323 -14 c 1
 307 -63 l 1
 362 -63 436 -96 436 -165 c 0
 436 -228 395 -294 284 -294 c 0
 194 -294 130 -211 130 -211 c 1
 202 -157 l 1
 202 -157 238 -204 284 -204 c 0
 379.70703125 -204 368 -120 272 -120 c 0
 236 -120 221 -129 221 -129 c 1
 250 0 l 1
 142 36 57 136 57 255 c 0
 57 406 192 528 341 528 c 0
 455 528 513 480 513 480 c 1
 453 359 l 1
 453 359 420 383 367 383 c 0
 300 383 245 327 245 257 c 0
 245 186 300 130 367 130 c 0
 420 130 453 154 453 154 c 1
 513 31 l 1
EndSplineSet
EndChar

StartChar: egrave
Encoding: 232 232 168
Width: 676
Flags: W
HStem: -15 21G<264 398.5> 227 90<248.5 443.5> 413 115<285.337 404.927> 820 20G<176.674 215.568>
VStem: 59.5 184<169.341 227 317 360.092>
LayerCount: 2
Fore
SplineSet
248.5 317 m 1
 443.5 317 l 1
 435.5 371 398.5 413 346.5 413 c 0
 285.5 413 251.5 364 248.5 317 c 1
479.5 173 m 1
 607.5 119 l 1
 549.5 22 455.5 -15 341.5 -15 c 0
 186.5 -15 59.5 107 59.5 256 c 0
 59.5 406 186.5 528 341.5 528 c 0
 497.5 528 616.5 418 616.5 227 c 1
 243.5 227 l 1
 243.5 141 366.5 60 479.5 173 c 1
192.5 840 m 1
 395.5 664 l 1
 339.5 587 l 1
 101.5 725 l 1
 192.5 840 l 1
EndSplineSet
EndChar

StartChar: eacute
Encoding: 233 233 169
Width: 675
Flags: W
HStem: -15 21G<264 398.5> 227 90<248.5 443.5> 413 115<285.337 404.927> 820 20G<458.932 497.826>
VStem: 59.5 184<169.341 227 317 360.092>
LayerCount: 2
Fore
SplineSet
248.5 317 m 1
 443.5 317 l 1
 435.5 371 398.5 413 346.5 413 c 0
 285.5 413 251.5 364 248.5 317 c 1
479.5 173 m 1
 607.5 119 l 1
 549.5 22 455.5 -15 341.5 -15 c 0
 186.5 -15 59.5 107 59.5 256 c 0
 59.5 406 186.5 528 341.5 528 c 0
 497.5 528 616.5 418 616.5 227 c 1
 243.5 227 l 1
 243.5 141 366.5 60 479.5 173 c 1
279 664 m 1
 482 840 l 1
 573 725 l 1
 335 587 l 1
 279 664 l 1
EndSplineSet
EndChar

StartChar: ecircumflex
Encoding: 234 234 170
Width: 675
Flags: W
HStem: -15 21G<264 398.5> 227 90<248.5 443.5> 413 115<285.337 404.927> 820 20G<309.716 364.284>
VStem: 59.5 184<169.341 227 317 360.092>
LayerCount: 2
Fore
SplineSet
248.5 317 m 1
 443.5 317 l 1
 435.5 371 398.5 413 346.5 413 c 0
 285.5 413 251.5 364 248.5 317 c 1
479.5 173 m 1
 607.5 119 l 1
 549.5 22 455.5 -15 341.5 -15 c 0
 186.5 -15 59.5 107 59.5 256 c 0
 59.5 406 186.5 528 341.5 528 c 0
 497.5 528 616.5 418 616.5 227 c 1
 243.5 227 l 1
 243.5 141 366.5 60 479.5 173 c 1
116 678 m 1
 337 840 l 1
 558 678 l 1
 490 587 l 1
 337 699 l 1
 184 587 l 1
 116 678 l 1
EndSplineSet
EndChar

StartChar: edieresis
Encoding: 235 235 171
Width: 676
Flags: W
HStem: -15 21G<264 398.5> 227 90<248.5 443.5> 413 115<285.337 404.927> 607 184<160.901 278.099 397.901 515.099>
VStem: 59.5 184<169.341 227 317 360.092> 127.5 184<640.401 757.599> 364.5 184<640.401 757.599>
LayerCount: 2
Fore
SplineSet
248.5 317 m 1xf2
 443.5 317 l 1
 435.5 371 398.5 413 346.5 413 c 0
 285.5 413 251.5 364 248.5 317 c 1xf2
479.5 173 m 1
 607.5 119 l 1
 549.5 22 455.5 -15 341.5 -15 c 0
 186.5 -15 59.5 107 59.5 256 c 0
 59.5 406 186.5 528 341.5 528 c 0
 497.5 528 616.5 418 616.5 227 c 1
 243.5 227 l 1xfa
 243.5 141 366.5 60 479.5 173 c 1
456.5 791 m 0
 507.5 791 548.5 750 548.5 699 c 0
 548.5 648 507.5 607 456.5 607 c 0
 405.5 607 364.5 648 364.5 699 c 0
 364.5 750 405.5 791 456.5 791 c 0
219.5 791 m 0
 270.5 791 311.5 750 311.5 699 c 0
 311.5 648 270.5 607 219.5 607 c 0
 168.5 607 127.5 648 127.5 699 c 0xf6
 127.5 750 168.5 791 219.5 791 c 0
EndSplineSet
EndChar

StartChar: igrave
Encoding: 236 236 172
Width: 440
Flags: W
HStem: 0 21G<205 382> 493 20G<205 382> 820 20G<133.174 172.068>
VStem: 205 177<0 513>
LayerCount: 2
Fore
SplineSet
205 513 m 1
 382 513 l 1
 382 0 l 1
 205 0 l 1
 205 513 l 1
149 840 m 1
 352 664 l 1
 296 587 l 1
 58 725 l 1
 149 840 l 1
EndSplineSet
EndChar

StartChar: iacute
Encoding: 237 237 173
Width: 438
Flags: W
HStem: 0 21G<57 234> 493 20G<57 234> 820 20G<266.932 305.826>
VStem: 57 177<0 513>
LayerCount: 2
Fore
SplineSet
57 513 m 1
 234 513 l 1
 234 0 l 1
 57 0 l 1
 57 513 l 1
87 664 m 1
 290 840 l 1
 381 725 l 1
 143 587 l 1
 87 664 l 1
EndSplineSet
EndChar

StartChar: icircumflex
Encoding: 238 238 174
Width: 529
Flags: W
HStem: 0 21G<175.5 352.5> 493 20G<175.5 352.5> 820 20G<237.216 291.784>
VStem: 175.5 177<0 513>
LayerCount: 2
Fore
SplineSet
175.5 513 m 1
 352.5 513 l 1
 352.5 0 l 1
 175.5 0 l 1
 175.5 513 l 1
43.5 678 m 1
 264.5 840 l 1
 485.5 678 l 1
 417.5 587 l 1
 264.5 699 l 1
 111.5 587 l 1
 43.5 678 l 1
EndSplineSet
EndChar

StartChar: idieresis
Encoding: 239 239 175
Width: 516
Flags: W
HStem: 0 21G<169.5 346.5> 493 20G<169.5 346.5> 607 184<80.9006 198.099 317.901 435.099>
VStem: 47.5 184<640.401 757.599> 169.5 177<0 513> 284.5 184<640.401 757.599>
LayerCount: 2
Fore
SplineSet
169.5 513 m 1xe8
 346.5 513 l 1
 346.5 0 l 1
 169.5 0 l 1
 169.5 513 l 1xe8
376.5 791 m 0
 427.5 791 468.5 750 468.5 699 c 0
 468.5 648 427.5 607 376.5 607 c 0
 325.5 607 284.5 648 284.5 699 c 0xe4
 284.5 750 325.5 791 376.5 791 c 0
139.5 791 m 0
 190.5 791 231.5 750 231.5 699 c 0
 231.5 648 190.5 607 139.5 607 c 0
 88.5 607 47.5 648 47.5 699 c 0xf0
 47.5 750 88.5 791 139.5 791 c 0
EndSplineSet
EndChar

StartChar: eth
Encoding: 240 240 176
Width: 736
Flags: W
HStem: -15 151<299.825 436.14> 377 151<300.759 407.759>
VStem: 60.5 188<185.202 325.414> 487.5 188<185.493 321.741>
LayerCount: 2
Fore
SplineSet
248.5 256 m 0
 248.5 186 296.5 136 368.5 136 c 0
 437.5 136 487.5 186 487.5 256 c 2
 487.5 261 l 1
 484.5 329 432.5 377 368.5 377 c 0
 301.5 377 248.5 327 248.5 256 c 0
60.5 256 m 0
 60.5 424 208.5 528 318.5 528 c 0
 332.5 528 379.5 528 408.5 512 c 1
 375.5 559 333.5 597 291.5 627 c 1
 208.5 545 l 1
 131.5 622 l 1
 193.5 684 l 1
 130.5 714 82.5 725 82.5 725 c 1
 124.5 875 l 1
 124.5 875 209.5 856 312.5 803 c 1
 385.5 875 l 1
 461.5 797 l 1
 409.5 745 l 1
 543.5 651 675.5 498 675.5 256 c 0
 675.5 98 546.5 -15 369.5 -15 c 0
 184.5 -15 60.5 98 60.5 256 c 0
EndSplineSet
EndChar

StartChar: ntilde
Encoding: 241 241 177
Width: 692
Flags: W
HStem: 0 21G<70.5 254.5 456.5 633.5> 384 144<288.075 423.962> 500 20G<70.5 210.5> 615 126<359.382 457.232> 661 126<223.768 330.927>
VStem: 70.5 184<0 349.74> 456.5 177<0 346.738>
LayerCount: 2
Fore
SplineSet
255.5 661 m 0x8e
 223.5 661 210.5 615 210.5 615 c 1
 109.5 615 l 1x96
 109.5 615 135.5 787 245.5 787 c 0x8e
 284.5 787 384.5 741 425.5 741 c 0x96
 457.5 741 470.5 787 470.5 787 c 1
 571.5 787 l 1x8e
 571.5 787 545.5 615 435.5 615 c 0x96
 396.5 615 319.703125 661 255.5 661 c 0x8e
254.5 0 m 1
 70.5 0 l 1
 70.5 520 l 1
 210.5 520 l 1xa6
 210.5 491 l 1
 244.5 514 291.5 528 356.5 528 c 0
 548.5 528 633.5 459 633.5 287 c 2
 633.5 0 l 1
 456.5 0 l 1
 456.5 244 l 2
 456.5 345 430.5 384 356.5 384 c 0xc6
 282.5 384 254.5 345 254.5 244 c 2
 254.5 0 l 1
EndSplineSet
EndChar

StartChar: ograve
Encoding: 242 242 178
Width: 735
Flags: W
HStem: -15 151<299.325 435.64> 377 151<298.352 433.983> 820 20G<206.174 245.068>
VStem: 60 188<185.202 327.551> 487 188<185.202 327.551>
LayerCount: 2
Fore
SplineSet
248 256 m 0
 248 186 296 136 368 136 c 0
 437 136 487 186 487 256 c 0
 487 327 434 377 368 377 c 0
 301 377 248 327 248 256 c 0
60 256 m 0
 60 416 196 528 369 528 c 0
 539 528 675 416 675 256 c 0
 675 98 546 -15 369 -15 c 0
 184 -15 60 98 60 256 c 0
222 840 m 1
 425 664 l 1
 369 587 l 1
 131 725 l 1
 222 840 l 1
EndSplineSet
EndChar

StartChar: oacute
Encoding: 243 243 179
Width: 735
Flags: W
HStem: -15 151<299.325 435.64> 377 151<298.352 433.983> 820 20G<448.932 487.826>
VStem: 60 188<185.202 327.551> 487 188<185.202 327.551>
LayerCount: 2
Fore
SplineSet
248 256 m 0
 248 186 296 136 368 136 c 0
 437 136 487 186 487 256 c 0
 487 327 434 377 368 377 c 0
 301 377 248 327 248 256 c 0
60 256 m 0
 60 416 196 528 369 528 c 0
 539 528 675 416 675 256 c 0
 675 98 546 -15 369 -15 c 0
 184 -15 60 98 60 256 c 0
269 664 m 1
 472 840 l 1
 563 725 l 1
 325 587 l 1
 269 664 l 1
EndSplineSet
EndChar

StartChar: ocircumflex
Encoding: 244 244 180
Width: 734
Flags: W
HStem: -15 151<298.825 435.14> 377 151<297.852 433.483> 820 20G<339.216 393.784>
VStem: 59.5 188<185.202 327.551> 486.5 188<185.202 327.551>
LayerCount: 2
Fore
SplineSet
247.5 256 m 0
 247.5 186 295.5 136 367.5 136 c 0
 436.5 136 486.5 186 486.5 256 c 0
 486.5 327 433.5 377 367.5 377 c 0
 300.5 377 247.5 327 247.5 256 c 0
59.5 256 m 0
 59.5 416 195.5 528 368.5 528 c 0
 538.5 528 674.5 416 674.5 256 c 0
 674.5 98 545.5 -15 368.5 -15 c 0
 183.5 -15 59.5 98 59.5 256 c 0
145.5 678 m 1
 366.5 840 l 1
 587.5 678 l 1
 519.5 587 l 1
 366.5 699 l 1
 213.5 587 l 1
 145.5 678 l 1
EndSplineSet
EndChar

StartChar: otilde
Encoding: 245 245 181
Width: 735
Flags: W
HStem: -15 151<299.325 435.64> 377 151<298.352 433.983> 615 126<385.882 483.732> 661 126<250.268 357.427>
VStem: 60 188<185.202 327.551> 487 188<185.202 327.551>
LayerCount: 2
Fore
SplineSet
282 661 m 0xdc
 250 661 237 615 237 615 c 1
 136 615 l 1xec
 136 615 162 787 272 787 c 0xdc
 311 787 411 741 452 741 c 0xec
 484 741 497 787 497 787 c 1
 598 787 l 1xdc
 598 787 572 615 462 615 c 0xec
 423 615 346.203125 661 282 661 c 0xdc
248 256 m 0
 248 186 296 136 368 136 c 0
 437 136 487 186 487 256 c 0
 487 327 434 377 368 377 c 0
 301 377 248 327 248 256 c 0
60 256 m 0
 60 416 196 528 369 528 c 0
 539 528 675 416 675 256 c 0
 675 98 546 -15 369 -15 c 0
 184 -15 60 98 60 256 c 0
EndSplineSet
EndChar

StartChar: odieresis
Encoding: 246 246 182
Width: 734
Flags: W
HStem: -15 151<298.825 435.14> 377 151<297.852 433.483> 607 184<189.901 307.099 426.901 544.099>
VStem: 59.5 188<185.202 327.551> 156.5 184<640.401 757.599> 393.5 184<640.401 757.599> 486.5 188<185.202 327.551>
LayerCount: 2
Fore
SplineSet
247.5 256 m 0xf2
 247.5 186 295.5 136 367.5 136 c 0
 436.5 136 486.5 186 486.5 256 c 0
 486.5 327 433.5 377 367.5 377 c 0
 300.5 377 247.5 327 247.5 256 c 0xf2
59.5 256 m 0
 59.5 416 195.5 528 368.5 528 c 0
 538.5 528 674.5 416 674.5 256 c 0
 674.5 98 545.5 -15 368.5 -15 c 0
 183.5 -15 59.5 98 59.5 256 c 0
485.5 791 m 0
 536.5 791 577.5 750 577.5 699 c 0
 577.5 648 536.5 607 485.5 607 c 0
 434.5 607 393.5 648 393.5 699 c 0xe4
 393.5 750 434.5 791 485.5 791 c 0
248.5 791 m 0
 299.5 791 340.5 750 340.5 699 c 0
 340.5 648 299.5 607 248.5 607 c 0
 197.5 607 156.5 648 156.5 699 c 0xe8
 156.5 750 197.5 791 248.5 791 c 0
EndSplineSet
EndChar

StartChar: divide
Encoding: 247 247 183
Width: 639
Flags: W
HStem: 109 162<264.282 373.418> 338 153<63 576> 558 162<264.282 373.418>
VStem: 238 162<135.282 244.418 584.282 693.418>
CounterMasks: 1 e0
LayerCount: 2
Fore
SplineSet
318 271 m 0
 364 271 400 235 400 189 c 0
 400 145 364 109 318 109 c 0
 274 109 238 145 238 189 c 0
 238 235 274 271 318 271 c 0
63 491 m 1
 576 491 l 1
 576 338 l 1
 63 338 l 1
 63 491 l 1
318 720 m 0
 364 720 400 684 400 638 c 0
 400 594 364 558 318 558 c 0
 274 558 238 594 238 638 c 0
 238 684 274 720 318 720 c 0
EndSplineSet
EndChar

StartChar: oslash
Encoding: 248 248 184
Width: 775
Flags: W
HStem: -15 151<319.49 455.64> 377 151<318.352 455.299>
VStem: 80 188<210.766 327.551> 507 188<185.202 300.437>
LayerCount: 2
Fore
SplineSet
388 136 m 0
 457 136 507 186 507 256 c 0
 507 272 504 287 499 301 c 1
 319 155 l 1
 338 143 361 136 388 136 c 0
268 256 m 0
 268 239 270 224 275 210 c 1
 456 356 l 1
 437 369 413 377 388 377 c 0
 321 377 268 327 268 256 c 0
725 484 m 1
 640 415 l 1
 675 372 695 317 695 256 c 0
 695 98 566 -15 389 -15 c 0
 307 -15 236 7 184 46 c 1
 95 -26 l 1
 50 28 l 1
 133 95 l 1
 99 139 80 194 80 256 c 0
 80 416 216 528 389 528 c 0
 466 528 536 505 590 465 c 1
 680 538 l 1
 725 484 l 1
EndSplineSet
EndChar

StartChar: ugrave
Encoding: 249 249 185
Width: 693
Flags: W
HStem: -15 144<278.836 414.164> 493 20G<68.5 245.5 447.5 624.5> 820 20G<185.674 224.568>
VStem: 68.5 177<166.262 513> 447.5 177<166.262 513>
LayerCount: 2
Fore
SplineSet
68.5 513 m 1
 245.5 513 l 1
 245.5 269 l 2
 245.5 168 272.5 129 346.5 129 c 0
 420.5 129 447.5 168 447.5 269 c 2
 447.5 513 l 1
 624.5 513 l 1
 624.5 226 l 2
 624.5 54 538.5 -15 346.5 -15 c 0
 154.5 -15 68.5 54 68.5 226 c 2
 68.5 513 l 1
201.5 840 m 1
 404.5 664 l 1
 348.5 587 l 1
 110.5 725 l 1
 201.5 840 l 1
EndSplineSet
EndChar

StartChar: uacute
Encoding: 250 250 186
Width: 693
Flags: W
HStem: -15 144<278.836 414.164> 493 20G<68.5 245.5 447.5 624.5> 820 20G<467.432 506.326>
VStem: 68.5 177<166.262 513> 447.5 177<166.262 513>
LayerCount: 2
Fore
SplineSet
68.5 513 m 1
 245.5 513 l 1
 245.5 269 l 2
 245.5 168 272.5 129 346.5 129 c 0
 420.5 129 447.5 168 447.5 269 c 2
 447.5 513 l 1
 624.5 513 l 1
 624.5 226 l 2
 624.5 54 538.5 -15 346.5 -15 c 0
 154.5 -15 68.5 54 68.5 226 c 2
 68.5 513 l 1
287.5 664 m 1
 490.5 840 l 1
 581.5 725 l 1
 343.5 587 l 1
 287.5 664 l 1
EndSplineSet
EndChar

StartChar: ucircumflex
Encoding: 251 251 187
Width: 692
Flags: W
HStem: -15 144<278.336 413.664> 493 20G<68 245 447 624> 820 20G<318.716 373.284>
VStem: 68 177<166.262 513> 447 177<166.262 513>
LayerCount: 2
Fore
SplineSet
68 513 m 1
 245 513 l 1
 245 269 l 2
 245 168 272 129 346 129 c 0
 420 129 447 168 447 269 c 2
 447 513 l 1
 624 513 l 1
 624 226 l 2
 624 54 538 -15 346 -15 c 0
 154 -15 68 54 68 226 c 2
 68 513 l 1
125 678 m 1
 346 840 l 1
 567 678 l 1
 499 587 l 1
 346 699 l 1
 193 587 l 1
 125 678 l 1
EndSplineSet
EndChar

StartChar: udieresis
Encoding: 252 252 188
Width: 693
Flags: W
HStem: -15 144<278.836 414.164> 493 20G<68.5 245.5 447.5 624.5> 607 184<168.901 286.099 405.901 523.099>
VStem: 68.5 177<166.262 513> 135.5 184<640.401 757.599> 372.5 184<640.401 757.599> 447.5 177<166.262 513>
LayerCount: 2
Fore
SplineSet
68.5 513 m 1xf2
 245.5 513 l 1
 245.5 269 l 2
 245.5 168 272.5 129 346.5 129 c 0
 420.5 129 447.5 168 447.5 269 c 2
 447.5 513 l 1
 624.5 513 l 1
 624.5 226 l 2
 624.5 54 538.5 -15 346.5 -15 c 0
 154.5 -15 68.5 54 68.5 226 c 2
 68.5 513 l 1xf2
464.5 791 m 0
 515.5 791 556.5 750 556.5 699 c 0
 556.5 648 515.5 607 464.5 607 c 0
 413.5 607 372.5 648 372.5 699 c 0xe4
 372.5 750 413.5 791 464.5 791 c 0
227.5 791 m 0
 278.5 791 319.5 750 319.5 699 c 0
 319.5 648 278.5 607 227.5 607 c 0
 176.5 607 135.5 648 135.5 699 c 0xe8
 135.5 750 176.5 791 227.5 791 c 0
EndSplineSet
EndChar

StartChar: yacute
Encoding: 253 253 189
Width: 767
Flags: W
HStem: -260 21G<113 327.427> 493 20G<47 261.875 506.722 720> 820 20G<465.932 504.826>
LayerCount: 2
Fore
SplineSet
516 513 m 1
 720 513 l 1
 317 -260 l 1
 113 -260 l 1
 290 80 l 1
 47 513 l 1
 251 513 l 1
 394 250 l 1
 516 513 l 1
286 664 m 1
 489 840 l 1
 580 725 l 1
 342 587 l 1
 286 664 l 1
EndSplineSet
EndChar

StartChar: thorn
Encoding: 254 254 190
Width: 736
Flags: W
HStem: -260 21G<68 243> -15 151<314.154 429.443> 377 151<308.387 428.356>
VStem: 68 175<-260 58 182.601 330.189 464 860> 480 188<186.537 325.882>
LayerCount: 2
Fore
SplineSet
480 256 m 0
 480 327 427 377 360 377 c 0
 294 377 241 327 241 256 c 0
 241 186 291 136 360 136 c 0
 432 136 480 186 480 256 c 0
243 -260 m 1
 68 -260 l 1
 68 860 l 1
 245 860 l 1
 245 464 l 1
 287 505 344 528 413 528 c 0
 563 528 668 406 668 256 c 0
 668 106 563 -15 413 -15 c 0
 343 -15 281 16 243 58 c 1
 243 -260 l 1
EndSplineSet
EndChar

StartChar: ydieresis
Encoding: 255 255 191
Width: 766
Flags: W
HStem: -260 21G<112.5 326.927> 493 20G<46.5 261.375 506.222 719.5> 607 184<205.901 323.099 442.901 560.099>
VStem: 172.5 184<640.401 757.599> 409.5 184<640.401 757.599>
LayerCount: 2
Fore
SplineSet
515.5 513 m 1
 719.5 513 l 1
 316.5 -260 l 1
 112.5 -260 l 1
 289.5 80 l 1
 46.5 513 l 1
 250.5 513 l 1
 393.5 250 l 1
 515.5 513 l 1
501.5 791 m 0
 552.5 791 593.5 750 593.5 699 c 0
 593.5 648 552.5 607 501.5 607 c 0
 450.5 607 409.5 648 409.5 699 c 0
 409.5 750 450.5 791 501.5 791 c 0
264.5 791 m 0
 315.5 791 356.5 750 356.5 699 c 0
 356.5 648 315.5 607 264.5 607 c 0
 213.5 607 172.5 648 172.5 699 c 0
 172.5 750 213.5 791 264.5 791 c 0
EndSplineSet
EndChar

StartChar: Amacron
Encoding: 256 256 192
Width: 931
Flags: W
HStem: 0 21G<45.5 254.773 675.985 885.5> 165 165<371.5 557.5> 805 20G<369.452 559.597> 946 120<258.5 666.5>
LayerCount: 2
Fore
SplineSet
258.5 1066 m 1
 666.5 1066 l 1
 666.5 946 l 1
 258.5 946 l 1
 258.5 1066 l 1
551.5 825 m 1
 885.5 0 l 1
 683.5 0 l 1
 621.5 165 l 1
 307.5 165 l 1
 247.5 0 l 1
 45.5 0 l 1
 377.5 825 l 1
 551.5 825 l 1
557.5 330 m 1
 463.5 570 l 1
 371.5 330 l 1
 557.5 330 l 1
EndSplineSet
EndChar

StartChar: amacron
Encoding: 257 257 193
Width: 733
Flags: W
HStem: -15 151<306.057 421.346> 0 21G<492.5 667.5> 377 151<307.144 442.31> 634 120<180.5 588.5>
VStem: 67.5 188<186.537 325.882> 492.5 175<0 58 182.601 330.189>
LayerCount: 2
Fore
SplineSet
255.5 256 m 0xbc
 255.5 186 303.5 136 375.5 136 c 0
 444.5 136 494.5 186 494.5 256 c 0
 494.5 327 441.5 377 375.5 377 c 0
 308.5 377 255.5 327 255.5 256 c 0xbc
667.5 454 m 2
 667.5 0 l 1
 492.5 0 l 1x7c
 492.5 58 l 1
 454.5 16 392.5 -15 322.5 -15 c 0
 172.5 -15 67.5 106 67.5 256 c 0
 67.5 406 172.5 528 322.5 528 c 0
 391.5 528 667 541 667.5 454 c 2
180.5 754 m 1
 588.5 754 l 1
 588.5 634 l 1
 180.5 634 l 1
 180.5 754 l 1
EndSplineSet
EndChar

StartChar: Abreve
Encoding: 258 258 194
Width: 930
Flags: W
HStem: 0 21G<45 254.273 675.485 885> 165 165<371 557> 805 20G<368.952 559.097> 940 109<401.741 528.259>
LayerCount: 2
Fore
SplineSet
570 1152 m 1
 696 1121 l 1
 684 1014 594 940 465 940 c 0
 336 940 246 1014 234 1121 c 1
 360 1152 l 1
 360 1152 371 1049 465 1049 c 0
 559 1049 570 1152 570 1152 c 1
551 825 m 1
 885 0 l 1
 683 0 l 1
 621 165 l 1
 307 165 l 1
 247 0 l 1
 45 0 l 1
 377 825 l 1
 551 825 l 1
557 330 m 1
 463 570 l 1
 371 330 l 1
 557 330 l 1
EndSplineSet
EndChar

StartChar: abreve
Encoding: 259 259 195
Width: 733
Flags: W
HStem: -15 151<306.057 421.346> 0 21G<492.5 667.5> 377 151<307.144 442.31> 628 109<321.241 447.759> 820 20G<198.21 279.5 489.5 570.79>
VStem: 67.5 188<186.537 325.882> 492.5 175<0 58 182.601 330.189>
LayerCount: 2
Fore
SplineSet
255.5 256 m 0xbe
 255.5 186 303.5 136 375.5 136 c 0
 444.5 136 494.5 186 494.5 256 c 0
 494.5 327 441.5 377 375.5 377 c 0
 308.5 377 255.5 327 255.5 256 c 0xbe
667.5 454 m 2
 667.5 0 l 1
 492.5 0 l 1x7e
 492.5 58 l 1
 454.5 16 392.5 -15 322.5 -15 c 0
 172.5 -15 67.5 106 67.5 256 c 0
 67.5 406 172.5 528 322.5 528 c 0
 391.5 528 667 541 667.5 454 c 2
489.5 840 m 1
 615.5 809 l 1
 603.5 702 513.5 628 384.5 628 c 0
 255.5 628 165.5 702 153.5 809 c 1
 279.5 840 l 1
 279.5 840 290.5 737 384.5 737 c 0
 478.5 737 489.5 840 489.5 840 c 1
EndSplineSet
EndChar

StartChar: Aogonek
Encoding: 260 260 196
Width: 932
Flags: W
HStem: -275 96<711.538 787.622> 0 21G<46 255.273> 165 165<372 558> 805 20G<369.952 560.097>
VStem: 604 103<-174.514 -84.794>
LayerCount: 2
Fore
SplineSet
558 330 m 1
 464 570 l 1
 372 330 l 1
 558 330 l 1
552 825 m 1
 886 0 l 1
 766 0 l 1
 766 0 707 -70 707 -140 c 0
 707 -165 727 -179 744 -179 c 0
 775 -179 795 -149 795 -149 c 1
 867 -203 l 1
 867 -203 822 -275 730 -275 c 0
 678 -275 604 -245 604 -158 c 0
 604 -101 654 -35 684 0 c 1
 622 165 l 1
 308 165 l 1
 248 0 l 1
 46 0 l 1
 378 825 l 1
 552 825 l 1
EndSplineSet
EndChar

StartChar: aogonek
Encoding: 261 261 197
Width: 735
Flags: W
HStem: -275 96<516.038 592.122> -15 151<306.057 421.346> 377 151<307.144 442.31>
VStem: 67.5 188<186.537 325.882> 408.5 103<-174.514 -87.6754> 492.5 175<0 58 182.601 330.189>
LayerCount: 2
Fore
SplineSet
492.5 0 m 1xf4
 492.5 58 l 1
 454.5 16 392.5 -15 322.5 -15 c 0
 172.5 -15 67.5 106 67.5 256 c 0
 67.5 406 172.5 528 322.5 528 c 0
 391.5 528 667 541 667.5 454 c 2
 667.5 0 l 1xf4
 571.5 0 l 1
 571.5 0 511.5 -70 511.5 -140 c 0
 511.5 -165 531.5 -179 548.5 -179 c 0
 579.5 -179 599.5 -149 599.5 -149 c 1
 671.5 -203 l 1
 671.5 -203 626.5 -275 534.5 -275 c 0
 482.5 -275 408.5 -245 408.5 -158 c 0xf8
 408.5 -101 462.5 -35 492.5 0 c 1xf4
255.5 256 m 0
 255.5 186 303.5 136 375.5 136 c 0
 444.5 136 494.5 186 494.5 256 c 0
 494.5 327 441.5 377 375.5 377 c 0
 308.5 377 255.5 327 255.5 256 c 0
EndSplineSet
EndChar

StartChar: Cacute
Encoding: 262 262 198
Width: 826
Flags: W
HStem: -15 185<414.589 655.498> 655 185<414.445 655.498>
VStem: 54 204<316.166 507.757>
LayerCount: 2
Fore
SplineSet
739 25 m 1
 739 25 680 -15 501 -15 c 0
 268 -15 54 175 54 411 c 0
 54 648 267 840 501 840 c 0
 680 840 739 800 739 800 c 1
 699 615 l 1
 699 615 626 655 530 655 c 0
 341 655 258 523 258 413 c 0
 258 302 341 170 530 170 c 0
 626 170 699 210 699 210 c 1
 739 25 l 1
302 976 m 1
 505 1152 l 1
 596 1037 l 1
 358 899 l 1
 302 976 l 1
EndSplineSet
EndChar

StartChar: cacute
Encoding: 263 263 199
Width: 570
Flags: W
HStem: -15 145<296.374 455.309> 383 145<296.259 453.899> 820 20G<401.932 440.826>
VStem: 54 188<186.422 325.466>
LayerCount: 2
Fore
SplineSet
510 31 m 1
 510 31 452 -15 338 -15 c 0
 190 -15 54 105 54 255 c 0
 54 406 189 528 338 528 c 0
 452 528 510 480 510 480 c 1
 450 359 l 1
 450 359 417 383 364 383 c 0
 297 383 242 327 242 257 c 0
 242 186 297 130 364 130 c 0
 417 130 450 154 450 154 c 1
 510 31 l 1
222 664 m 1
 425 840 l 1
 516 725 l 1
 278 587 l 1
 222 664 l 1
EndSplineSet
EndChar

StartChar: Ccircumflex
Encoding: 264 264 200
Width: 826
Flags: W
HStem: -15 185<414.589 655.498> 655 185<414.445 655.498>
VStem: 54 204<316.166 507.757>
LayerCount: 2
Fore
SplineSet
739 25 m 1
 739 25 680 -15 501 -15 c 0
 268 -15 54 175 54 411 c 0
 54 648 267 840 501 840 c 0
 680 840 739 800 739 800 c 1
 699 615 l 1
 699 615 626 655 530 655 c 0
 341 655 258 523 258 413 c 0
 258 302 341 170 530 170 c 0
 626 170 699 210 699 210 c 1
 739 25 l 1
231 976 m 1
 452 1138 l 1
 673 976 l 1
 605 885 l 1
 452 997 l 1
 299 885 l 1
 231 976 l 1
EndSplineSet
EndChar

StartChar: ccircumflex
Encoding: 265 265 201
Width: 571
Flags: W
HStem: -15 145<296.374 455.309> 383 145<296.259 453.899>
VStem: 54 188<186.422 325.466>
LayerCount: 2
Fore
SplineSet
510 31 m 1
 510 31 452 -15 338 -15 c 0
 190 -15 54 105 54 255 c 0
 54 406 189 528 338 528 c 0
 452 528 510 480 510 480 c 1
 450 359 l 1
 450 359 417 383 364 383 c 0
 297 383 242 327 242 257 c 0
 242 186 297 130 364 130 c 0
 417 130 450 154 450 154 c 1
 510 31 l 1
75 658 m 1
 296 820 l 1
 517 658 l 1
 449 567 l 1
 296 679 l 1
 143 567 l 1
 75 658 l 1
EndSplineSet
EndChar

StartChar: Cdotaccent
Encoding: 266 266 202
Width: 826
Flags: W
HStem: -15 185<414.589 655.498> 655 185<414.445 655.498> 919 184<390.401 507.599>
VStem: 54 204<316.166 507.757> 357 184<952.401 1069.6>
LayerCount: 2
Fore
SplineSet
739 25 m 1
 739 25 680 -15 501 -15 c 0
 268 -15 54 175 54 411 c 0
 54 648 267 840 501 840 c 0
 680 840 739 800 739 800 c 1
 699 615 l 1
 699 615 626 655 530 655 c 0
 341 655 258 523 258 413 c 0
 258 302 341 170 530 170 c 0
 626 170 699 210 699 210 c 1
 739 25 l 1
449 1103 m 0
 500 1103 541 1062 541 1011 c 0
 541 960 500 919 449 919 c 0
 398 919 357 960 357 1011 c 0
 357 1062 398 1103 449 1103 c 0
EndSplineSet
EndChar

StartChar: cdotaccent
Encoding: 267 267 203
Width: 567
Flags: W
HStem: -15 145<296.374 455.309> 383 145<296.259 453.899> 597 184<238.901 356.099>
VStem: 54 188<186.422 325.466> 205.5 184<630.401 747.599>
LayerCount: 2
Fore
SplineSet
510 31 m 1xf0
 510 31 452 -15 338 -15 c 0
 190 -15 54 105 54 255 c 0
 54 406 189 528 338 528 c 0
 452 528 510 480 510 480 c 1
 450 359 l 1
 450 359 417 383 364 383 c 0
 297 383 242 327 242 257 c 0
 242 186 297 130 364 130 c 0
 417 130 450 154 450 154 c 1
 510 31 l 1xf0
297.5 781 m 0
 348.5 781 389.5 740 389.5 689 c 0
 389.5 638 348.5 597 297.5 597 c 0
 246.5 597 205.5 638 205.5 689 c 0xe8
 205.5 740 246.5 781 297.5 781 c 0
EndSplineSet
EndChar

StartChar: Ccaron
Encoding: 268 268 204
Width: 826
Flags: W
HStem: -15 185<414.589 655.498> 655 185<414.445 655.498>
VStem: 54 204<316.166 507.757>
LayerCount: 2
Fore
SplineSet
739 25 m 1
 739 25 680 -15 501 -15 c 0
 268 -15 54 175 54 411 c 0
 54 648 267 840 501 840 c 0
 680 840 739 800 739 800 c 1
 699 615 l 1
 699 615 626 655 530 655 c 0
 341 655 258 523 258 413 c 0
 258 302 341 170 530 170 c 0
 626 170 699 210 699 210 c 1
 739 25 l 1
319 1152 m 1
 472 1040 l 1
 625 1152 l 1
 693 1061 l 1
 472 899 l 1
 251 1061 l 1
 319 1152 l 1
EndSplineSet
EndChar

StartChar: ccaron
Encoding: 269 269 205
Width: 568
Flags: W
HStem: -15 145<296.374 455.309> 383 145<296.259 453.899> 820 20G<122.055 164.321 415.679 457.945>
VStem: 54 188<186.422 325.466>
LayerCount: 2
Fore
SplineSet
510 31 m 1
 510 31 452 -15 338 -15 c 0
 190 -15 54 105 54 255 c 0
 54 406 189 528 338 528 c 0
 452 528 510 480 510 480 c 1
 450 359 l 1
 450 359 417 383 364 383 c 0
 297 383 242 327 242 257 c 0
 242 186 297 130 364 130 c 0
 417 130 450 154 450 154 c 1
 510 31 l 1
137 840 m 1
 290 728 l 1
 443 840 l 1
 511 749 l 1
 290 587 l 1
 69 749 l 1
 137 840 l 1
EndSplineSet
EndChar

StartChar: Dcaron
Encoding: 270 270 206
Width: 791
Flags: W
HStem: 0 168<256 389.575> 657 168<256 389.575>
VStem: 68 188<168 657> 522 201<293.486 531.414>
LayerCount: 2
Fore
SplineSet
522 412 m 0
 522 556 459 657 256 657 c 1
 256 168 l 1
 459 168 522 268 522 412 c 0
68 825 m 1
 307 825 l 2
 533 825 723 653 723 413 c 0
 723 172 534 0 307 0 c 2
 68 0 l 1
 68 825 l 1
215 1152 m 1
 368 1040 l 1
 521 1152 l 1
 589 1061 l 1
 368 899 l 1
 147 1061 l 1
 215 1152 l 1
EndSplineSet
EndChar

StartChar: dcaron
Encoding: 271 271 207
Width: 931
Flags: W
HStem: -15 151<292.557 407.689> 0 21G<479 654> 377 151<295.071 431.887> 513 21G<721.194 778.5>
VStem: 54 188<186.537 325.882> 477.923 176.077<0 58 179.834 331.039 525.995 860> 699 178<679.819 793.018>
LayerCount: 2
Fore
SplineSet
242 256 m 0xae
 242 186 290 136 362 136 c 0
 422.416015625 136 468.264648438 174.333007812 478.73828125 230.860351562 c 1
 478.59765625 281.5625 l 1
 467.55859375 338.708984375 419.756835938 377 362 377 c 0
 295 377 242 327 242 256 c 0xae
654 0 m 1x6e
 479 0 l 1x6e
 479 58 l 1
 441 16 379 -15 309 -15 c 0x8e
 159 -15 54 106 54 256 c 0
 54 406 159 528 309 528 c 0
 339.203125 528 408.970703125 530.491210938 477.922851562 525.995117188 c 1
 477 860 l 1
 654 860 l 1
 654 0 l 1x6e
787 824 m 0
 837 824 877 784 877 734 c 0
 877 641 810 565 747 513 c 1x1e
 707 544 l 1
 707 544 754 589 766 654 c 1
 728 663 699 694 699 734 c 0
 699 784 739 824 787 824 c 0
EndSplineSet
EndChar

StartChar: Dcroat
Encoding: 272 272 208
Width: 851
Flags: W
HStem: 0 168<327 460.575> 657 168<327 460.575>
VStem: 139 188<168 336 489 657> 593 201<293.486 531.414>
LayerCount: 2
Fore
SplineSet
593 412 m 0
 593 556 530 657 327 657 c 1
 327 489 l 1
 441.70703125 461.194335938 l 1
 441.70703125 371.572265625 l 1
 327 336 l 1
 327 168 l 1
 530 168 593 268 593 412 c 0
139 489 m 1
 139 825 l 1
 378 825 l 2
 604 825 794 653 794 413 c 0
 794 172 605 0 378 0 c 2
 139 0 l 1
 139 336 l 1
 57 371.572265625 l 1
 57 461.194335938 l 1
 139 489 l 1
EndSplineSet
EndChar

StartChar: dcroat
Encoding: 273 273 209
Width: 774
Flags: W
HStem: -15 151<288.557 403.689> 0 21G<475 650> 377 151<291.071 427.887> 628 114<348.5 473.326 650 723.5>
VStem: 50 188<186.537 325.882> 473.923 176.077<0 58 179.834 331.039 525.995 628 742 860>
LayerCount: 2
Fore
SplineSet
650 0 m 1x7c
 475 0 l 1x7c
 475 58 l 1
 437 16 375 -15 305 -15 c 0xbc
 155 -15 50 106 50 256 c 0
 50 406 155 528 305 528 c 0
 335.203125 528 404.970703125 530.491210938 473.922851562 525.995117188 c 1
 473.640625 628 l 1
 348.5 628 l 1
 348.5 742 l 1
 473.326171875 742 l 1
 473 860 l 1
 650 860 l 1
 650 742 l 1
 723.5 742 l 1
 723.5 628 l 1
 650 628 l 1
 650 0 l 1x7c
238 256 m 0
 238 186 286 136 358 136 c 0xbc
 418.416015625 136 464.264648438 174.333007812 474.73828125 230.860351562 c 1
 474.59765625 281.5625 l 1
 463.55859375 338.708984375 415.756835938 377 358 377 c 0
 291 377 238 327 238 256 c 0
EndSplineSet
EndChar

StartChar: Emacron
Encoding: 274 274 210
Width: 613
Flags: W
HStem: 0 165<258.5 542.5> 331 165<258.5 530.5> 660 165<258.5 542.5> 946 120<96.5 504.5>
VStem: 70.5 188<165 331 496 660>
LayerCount: 2
Fore
SplineSet
542.5 825 m 1
 542.5 660 l 1
 258.5 660 l 1
 258.5 496 l 1
 530.5 496 l 1
 530.5 331 l 1
 258.5 331 l 1
 258.5 165 l 1
 542.5 165 l 1
 542.5 0 l 1
 70.5 0 l 1
 70.5 825 l 1
 542.5 825 l 1
96.5 1066 m 1
 504.5 1066 l 1
 504.5 946 l 1
 96.5 946 l 1
 96.5 1066 l 1
EndSplineSet
EndChar

StartChar: emacron
Encoding: 275 275 211
Width: 676
Flags: W
HStem: -15 21G<264 398.5> 227 90<248.5 443.5> 413 115<285.337 404.927> 634 120<133.5 541.5>
VStem: 59.5 184<169.341 227 317 360.092>
LayerCount: 2
Fore
SplineSet
248.5 317 m 1
 443.5 317 l 1
 435.5 371 398.5 413 346.5 413 c 0
 285.5 413 251.5 364 248.5 317 c 1
479.5 173 m 1
 607.5 119 l 1
 549.5 22 455.5 -15 341.5 -15 c 0
 186.5 -15 59.5 107 59.5 256 c 0
 59.5 406 186.5 528 341.5 528 c 0
 497.5 528 616.5 418 616.5 227 c 1
 243.5 227 l 1
 243.5 141 366.5 60 479.5 173 c 1
133.5 754 m 1
 541.5 754 l 1
 541.5 634 l 1
 133.5 634 l 1
 133.5 754 l 1
EndSplineSet
EndChar

StartChar: Ebreve
Encoding: 276 276 212
Width: 612
Flags: W
HStem: 0 165<257.5 541.5> 331 165<257.5 529.5> 660 165<257.5 541.5> 913 109<248.241 374.759>
VStem: 69.5 188<165 331 496 660>
LayerCount: 2
Fore
SplineSet
541.5 825 m 1
 541.5 660 l 1
 257.5 660 l 1
 257.5 496 l 1
 529.5 496 l 1
 529.5 331 l 1
 257.5 331 l 1
 257.5 165 l 1
 541.5 165 l 1
 541.5 0 l 1
 69.5 0 l 1
 69.5 825 l 1
 541.5 825 l 1
416.5 1125 m 1
 542.5 1094 l 1
 530.5 987 440.5 913 311.5 913 c 0
 182.5 913 92.5 987 80.5 1094 c 1
 206.5 1125 l 1
 206.5 1125 217.5 1022 311.5 1022 c 0
 405.5 1022 416.5 1125 416.5 1125 c 1
EndSplineSet
EndChar

StartChar: ebreve
Encoding: 277 277 213
Width: 675
Flags: W
HStem: -15 21G<264 398.5> 227 90<248.5 443.5> 413 115<285.337 404.927> 595 109<278.241 404.759>
VStem: 59.5 184<169.341 227 317 360.092>
LayerCount: 2
Fore
SplineSet
248.5 317 m 1
 443.5 317 l 1
 435.5 371 398.5 413 346.5 413 c 0
 285.5 413 251.5 364 248.5 317 c 1
479.5 173 m 1
 607.5 119 l 1
 549.5 22 455.5 -15 341.5 -15 c 0
 186.5 -15 59.5 107 59.5 256 c 0
 59.5 406 186.5 528 341.5 528 c 0
 497.5 528 616.5 418 616.5 227 c 1
 243.5 227 l 1
 243.5 141 366.5 60 479.5 173 c 1
446.5 807 m 1
 572.5 776 l 1
 560.5 669 470.5 595 341.5 595 c 0
 212.5 595 122.5 669 110.5 776 c 1
 236.5 807 l 1
 236.5 807 247.5 704 341.5 704 c 0
 435.5 704 446.5 807 446.5 807 c 1
EndSplineSet
EndChar

StartChar: Edotaccent
Encoding: 278 278 214
Width: 613
Flags: W
HStem: 0 165<258.5 542.5> 331 165<258.5 530.5> 660 165<258.5 542.5> 919 184<241.901 359.099>
VStem: 70.5 188<165 331 496 660> 208.5 184<952.401 1069.6>
LayerCount: 2
Fore
SplineSet
542.5 825 m 1xf8
 542.5 660 l 1
 258.5 660 l 1
 258.5 496 l 1
 530.5 496 l 1
 530.5 331 l 1
 258.5 331 l 1
 258.5 165 l 1
 542.5 165 l 1
 542.5 0 l 1
 70.5 0 l 1
 70.5 825 l 1
 542.5 825 l 1xf8
300.5 1103 m 0
 351.5 1103 392.5 1062 392.5 1011 c 0
 392.5 960 351.5 919 300.5 919 c 0
 249.5 919 208.5 960 208.5 1011 c 0xf4
 208.5 1062 249.5 1103 300.5 1103 c 0
EndSplineSet
EndChar

StartChar: edotaccent
Encoding: 279 279 215
Width: 676
Flags: W
HStem: -15 21G<264 398.5> 227 90<248.5 443.5> 413 115<285.337 404.927> 607 184<278.901 396.099>
VStem: 59.5 184<169.341 227 317 360.092> 245.5 184<640.401 757.599>
LayerCount: 2
Fore
SplineSet
248.5 317 m 1
 443.5 317 l 1
 435.5 371 398.5 413 346.5 413 c 0
 285.5 413 251.5 364 248.5 317 c 1
479.5 173 m 1
 607.5 119 l 1
 549.5 22 455.5 -15 341.5 -15 c 0
 186.5 -15 59.5 107 59.5 256 c 0
 59.5 406 186.5 528 341.5 528 c 0
 497.5 528 616.5 418 616.5 227 c 1
 243.5 227 l 1
 243.5 141 366.5 60 479.5 173 c 1
337.5 791 m 0
 388.5 791 429.5 750 429.5 699 c 0
 429.5 648 388.5 607 337.5 607 c 0
 286.5 607 245.5 648 245.5 699 c 0
 245.5 750 286.5 791 337.5 791 c 0
EndSplineSet
EndChar

StartChar: Eogonek
Encoding: 280 280 216
Width: 612
Flags: W
HStem: -275 96<388.538 464.622> 0 165<256 361 443 540> 331 165<256 528> 660 165<256 540>
VStem: 68 188<165 331 496 660> 281 103<-174.514 -85.3714>
LayerCount: 2
Fore
SplineSet
540 825 m 1
 540 660 l 1
 256 660 l 1
 256 496 l 1
 528 496 l 1
 528 331 l 1
 256 331 l 1
 256 165 l 1
 540 165 l 1
 540 0 l 1
 443 0 l 1
 443 0 384 -70 384 -140 c 0
 384 -165 404 -179 421 -179 c 0
 452 -179 472 -149 472 -149 c 1
 544 -203 l 1
 544 -203 499 -275 407 -275 c 0
 355 -275 281 -245 281 -158 c 0
 281 -103 331 -36 361 0 c 1
 68 0 l 1
 68 825 l 1
 540 825 l 1
EndSplineSet
EndChar

StartChar: eogonek
Encoding: 281 281 217
Width: 679
Flags: W
HStem: -275 96<401.538 477.622> -15 21G<264 344.873> 227 90<248.5 443.5> 413 115<285.337 404.927>
VStem: 59.5 184<169.341 227 317 360.092> 294 103<-174.514 -85.271>
LayerCount: 2
Fore
SplineSet
456 0 m 1
 456 0 397 -70 397 -140 c 0
 397 -165 417 -179 434 -179 c 0
 465 -179 485 -149 485 -149 c 1
 557 -203 l 1
 557 -203 512 -275 420 -275 c 0
 368 -275 294 -245 294 -158 c 0
 294 -110.254882812 331.59765625 -52.615234375 361.521484375 -14.6064453125 c 1
 354.919921875 -14.8701171875 348.245117188 -15 341.5 -15 c 0
 186.5 -15 59.5 107 59.5 256 c 0
 59.5 406 186.5 528 341.5 528 c 0
 497.5 528 616.5 418 616.5 227 c 1
 243.5 227 l 1
 243.5 141 366.5 60 479.5 173 c 1
 607.5 119 l 1
 570.360451297 56.8876716461 518.460168544 18.9476173367 456 0 c 1
248.5 317 m 1
 443.5 317 l 1
 435.5 371 398.5 413 346.5 413 c 0
 285.5 413 251.5 364 248.5 317 c 1
EndSplineSet
EndChar

StartChar: Ecaron
Encoding: 282 282 218
Width: 612
Flags: W
HStem: 0 165<258 542> 331 165<258 530> 660 165<258 542>
VStem: 70 188<165 331 496 660>
LayerCount: 2
Fore
SplineSet
542 825 m 1
 542 660 l 1
 258 660 l 1
 258 496 l 1
 530 496 l 1
 530 331 l 1
 258 331 l 1
 258 165 l 1
 542 165 l 1
 542 0 l 1
 70 0 l 1
 70 825 l 1
 542 825 l 1
147 1152 m 1
 300 1040 l 1
 453 1152 l 1
 521 1061 l 1
 300 899 l 1
 79 1061 l 1
 147 1152 l 1
EndSplineSet
EndChar

StartChar: ecaron
Encoding: 283 283 219
Width: 675
Flags: W
HStem: -15 21G<264 398.5> 227 90<248.5 443.5> 413 115<285.337 404.927> 820 20G<169.055 211.321 462.679 504.945>
VStem: 59.5 184<169.341 227 317 360.092>
LayerCount: 2
Fore
SplineSet
248.5 317 m 1
 443.5 317 l 1
 435.5 371 398.5 413 346.5 413 c 0
 285.5 413 251.5 364 248.5 317 c 1
479.5 173 m 1
 607.5 119 l 1
 549.5 22 455.5 -15 341.5 -15 c 0
 186.5 -15 59.5 107 59.5 256 c 0
 59.5 406 186.5 528 341.5 528 c 0
 497.5 528 616.5 418 616.5 227 c 1
 243.5 227 l 1
 243.5 141 366.5 60 479.5 173 c 1
184 840 m 1
 337 728 l 1
 490 840 l 1
 558 749 l 1
 337 587 l 1
 116 749 l 1
 184 840 l 1
EndSplineSet
EndChar

StartChar: Gcircumflex
Encoding: 284 284 220
Width: 908
Flags: W
HStem: -15 173<391.047 564.315> 0 21G<785.941 843> 317 145<482 652> 670 170<389.746 568.532>
VStem: 60 203<303.615 521.624> 746 97<31.5464 93.8164>
LayerCount: 2
Fore
SplineSet
843 462 m 1xbc
 843 0 l 1x7c
 746 34 l 1
 750.506835938 93.81640625 l 1
 681.975585938 18.2783203125 581.521484375 -15 462 -15 c 0
 240 -15 60 176 60 412 c 0
 60 649 230 840 462 840 c 0
 607 840 708 786 780 699 c 1
 657 564 l 1
 609 641 546 670 473 670 c 0
 357 670 263 555 263 412 c 0
 263 272 357 158 473 158 c 0
 563 158 652 216 652 317 c 1
 482 317 l 1
 448 462 l 1
 843 462 l 1xbc
233 974 m 1
 454 1136 l 1
 675 974 l 1
 607 883 l 1
 454 995 l 1
 301 883 l 1
 233 974 l 1
EndSplineSet
EndChar

StartChar: gcircumflex
Encoding: 285 285 221
Width: 732
Flags: W
HStem: -275 154<272.281 436.209> -15 151<304.557 444.613> 377 151<305.644 481.796>
VStem: 66 188<186.537 325.882> 489 177<-67.4509 37 180.338 364.616>
LayerCount: 2
Fore
SplineSet
666 256 m 2
 666 -14 l 2
 666 -186 539 -275 364 -275 c 0
 257 -275 134 -251 80 -126 c 1
 225 -55 l 1
 244 -86 287 -121 364 -121 c 0
 413 -121 489 -92 489 -1 c 2
 489 37 l 1
 451 -5 391 -15 321 -15 c 0
 171 -15 66 106 66 256 c 0
 66 406 171 528 321 528 c 0
 612.650390625 528 666 528 666 256 c 2
254 256 m 0
 254 186 302 136 374 136 c 0
 443 136 493 186 493 256 c 0
 493 263.943359375 493 310.623046875 492.833007812 318 c 0
 491.510742188 364.561523438 479.6875 377 374 377 c 0
 307 377 254 327 254 256 c 0
179.5 688 m 1
 400.5 850 l 1
 621.5 688 l 1
 553.5 597 l 1
 400.5 709 l 1
 247.5 597 l 1
 179.5 688 l 1
EndSplineSet
EndChar

StartChar: Gbreve
Encoding: 286 286 222
Width: 908
Flags: W
HStem: -15 173<391.047 564.315> 0 21G<785.941 843> 317 145<482 652> 670 170<389.746 568.532> 911 109<401.241 527.759>
VStem: 60 203<303.615 521.624> 746 97<31.5464 93.8164>
LayerCount: 2
Fore
SplineSet
843 462 m 1xbe
 843 0 l 1x7e
 746 34 l 1
 750.506835938 93.81640625 l 1
 681.975585938 18.2783203125 581.521484375 -15 462 -15 c 0
 240 -15 60 176 60 412 c 0
 60 649 230 840 462 840 c 0
 607 840 708 786 780 699 c 1
 657 564 l 1
 609 641 546 670 473 670 c 0
 357 670 263 555 263 412 c 0
 263 272 357 158 473 158 c 0
 563 158 652 216 652 317 c 1
 482 317 l 1
 448 462 l 1
 843 462 l 1xbe
569.5 1123 m 1
 695.5 1092 l 1
 683.5 985 593.5 911 464.5 911 c 0
 335.5 911 245.5 985 233.5 1092 c 1
 359.5 1123 l 1
 359.5 1123 370.5 1020 464.5 1020 c 0
 558.5 1020 569.5 1123 569.5 1123 c 1
EndSplineSet
EndChar

StartChar: gbreve
Encoding: 287 287 223
Width: 732
Flags: W
HStem: -275 154<272.781 436.709> -15 151<305.057 445.113> 377 151<306.144 482.296> 598 109<306.241 432.759>
VStem: 66.5 188<186.537 325.882> 493.5 173<-66.5173 37 184.912 364.616>
LayerCount: 2
Fore
SplineSet
666.5 256 m 2
 666.5 -14 l 2
 666.5 -186 539.5 -275 364.5 -275 c 0
 257.5 -275 134.5 -251 80.5 -126 c 1
 225.5 -55 l 1
 244.5 -86 287.5 -121 364.5 -121 c 0
 413.5 -121 489.5 -92 489.5 -1 c 2
 489.5 37 l 1
 451.5 -5 391.5 -15 321.5 -15 c 0
 171.5 -15 66.5 106 66.5 256 c 0
 66.5 406 171.5 528 321.5 528 c 0
 613.150390625 528 666.5 528 666.5 256 c 2
254.5 256 m 0
 254.5 186 302.5 136 374.5 136 c 0
 443.5 136 493.5 186 493.5 256 c 0
 493.5 263.943359375 493.5 310.623046875 493.333007812 318 c 0
 492.010742188 364.561523438 480.1875 377 374.5 377 c 0
 307.5 377 254.5 327 254.5 256 c 0
474.5 810 m 1
 600.5 779 l 1
 588.5 672 498.5 598 369.5 598 c 0
 240.5 598 150.5 672 138.5 779 c 1
 264.5 810 l 1
 264.5 810 275.5 707 369.5 707 c 0
 463.5 707 474.5 810 474.5 810 c 1
EndSplineSet
EndChar

StartChar: Gdotaccent
Encoding: 288 288 224
Width: 908
Flags: W
HStem: -15 173<391.047 564.315> 0 21G<785.941 843> 317 145<482 652> 670 170<389.746 568.532> 919 184<401.401 518.599>
VStem: 60 203<303.615 521.624> 368 184<952.401 1069.6> 746 97<31.5464 93.8164>
LayerCount: 2
Fore
SplineSet
843 462 m 1xbf
 843 0 l 1x7f
 746 34 l 1
 750.506835938 93.81640625 l 1
 681.975585938 18.2783203125 581.521484375 -15 462 -15 c 0
 240 -15 60 176 60 412 c 0
 60 649 230 840 462 840 c 0
 607 840 708 786 780 699 c 1
 657 564 l 1
 609 641 546 670 473 670 c 0
 357 670 263 555 263 412 c 0
 263 272 357 158 473 158 c 0
 563 158 652 216 652 317 c 1
 482 317 l 1
 448 462 l 1
 843 462 l 1xbf
460 1103 m 0
 511 1103 552 1062 552 1011 c 0
 552 960 511 919 460 919 c 0
 409 919 368 960 368 1011 c 0
 368 1062 409 1103 460 1103 c 0
EndSplineSet
EndChar

StartChar: gdotaccent
Encoding: 289 289 225
Width: 733
Flags: W
HStem: -275 154<272.781 436.709> -15 151<305.057 445.113> 377 151<306.144 482.296> 600 184<314.401 431.599>
VStem: 66.5 188<186.537 325.882> 281 184<633.401 750.599> 493.5 173<-66.5173 37 184.912 364.616>
LayerCount: 2
Fore
SplineSet
666.5 256 m 2
 666.5 -14 l 2
 666.5 -186 539.5 -275 364.5 -275 c 0
 257.5 -275 134.5 -251 80.5 -126 c 1
 225.5 -55 l 1
 244.5 -86 287.5 -121 364.5 -121 c 0
 413.5 -121 489.5 -92 489.5 -1 c 2
 489.5 37 l 1
 451.5 -5 391.5 -15 321.5 -15 c 0
 171.5 -15 66.5 106 66.5 256 c 0
 66.5 406 171.5 528 321.5 528 c 0
 613.150390625 528 666.5 528 666.5 256 c 2
254.5 256 m 0
 254.5 186 302.5 136 374.5 136 c 0
 443.5 136 493.5 186 493.5 256 c 0
 493.5 263.943359375 493.5 310.623046875 493.333007812 318 c 0
 492.010742188 364.561523438 480.1875 377 374.5 377 c 0
 307.5 377 254.5 327 254.5 256 c 0
373 784 m 0
 424 784 465 743 465 692 c 0
 465 641 424 600 373 600 c 0
 322 600 281 641 281 692 c 0
 281 743 322 784 373 784 c 0
EndSplineSet
EndChar

StartChar: uni0122
Encoding: 290 290 226
Width: 908
Flags: W
HStem: -15 173<391.047 564.315> 0 21G<785.941 843> 317 145<482 652> 670 170<389.746 568.532>
VStem: 60 203<303.615 521.624> 374 178<-184.181 -70.982> 746 97<31.5464 93.8164>
LayerCount: 2
Fore
SplineSet
843 462 m 1xbe
 843 0 l 1x7e
 746 34 l 1
 750.506835938 93.81640625 l 1
 681.975585938 18.2783203125 581.521484375 -15 462 -15 c 0
 240 -15 60 176 60 412 c 0
 60 649 230 840 462 840 c 0
 607 840 708 786 780 699 c 1
 657 564 l 1
 609 641 546 670 473 670 c 0
 357 670 263 555 263 412 c 0
 263 272 357 158 473 158 c 0
 563 158 652 216 652 317 c 1
 482 317 l 1
 448 462 l 1
 843 462 l 1xbe
462 -40 m 0
 512 -40 552 -80 552 -130 c 0
 552 -223 485 -299 422 -351 c 1
 382 -320 l 1
 382 -320 429 -275 441 -210 c 1
 403 -201 374 -170 374 -130 c 0
 374 -80 414 -40 462 -40 c 0
EndSplineSet
EndChar

StartChar: uni0123
Encoding: 291 291 227
Width: 733
Flags: W
HStem: -275 154<272.781 436.709> -15 151<305.057 445.113> 377 151<306.144 482.296>
VStem: 66.5 188<186.537 325.882> 295.5 178<637.982 751.181> 493.5 173<-66.5173 37 184.912 364.616>
LayerCount: 2
Fore
SplineSet
666.5 256 m 2
 666.5 -14 l 2
 666.5 -186 539.5 -275 364.5 -275 c 0
 257.5 -275 134.5 -251 80.5 -126 c 1
 225.5 -55 l 1
 244.5 -86 287.5 -121 364.5 -121 c 0
 413.5 -121 489.5 -92 489.5 -1 c 2
 489.5 37 l 1
 451.5 -5 391.5 -15 321.5 -15 c 0
 171.5 -15 66.5 106 66.5 256 c 0
 66.5 406 171.5 528 321.5 528 c 0
 613.150390625 528 666.5 528 666.5 256 c 2
254.5 256 m 0
 254.5 186 302.5 136 374.5 136 c 0
 443.5 136 493.5 186 493.5 256 c 0
 493.5 263.943359375 493.5 310.623046875 493.333007812 318 c 0
 492.010742188 364.561523438 480.1875 377 374.5 377 c 0
 307.5 377 254.5 327 254.5 256 c 0
385.5 607 m 0
 335.5 607 295.5 647 295.5 697 c 0
 295.5 790 362.5 866 425.5 918 c 1
 465.5 887 l 1
 465.5 887 418.5 842 406.5 777 c 1
 444.5 768 473.5 737 473.5 697 c 0
 473.5 647 433.5 607 385.5 607 c 0
EndSplineSet
EndChar

StartChar: Hcircumflex
Encoding: 292 292 228
Width: 792
Flags: W
HStem: 0 21G<75 263 529 717> 331 165<263 529> 805 20G<75 263 529 717>
VStem: 75 188<0 331 496 825> 529 188<0 331 496 825>
LayerCount: 2
Fore
SplineSet
263 331 m 1
 263 0 l 1
 75 0 l 1
 75 825 l 1
 263 825 l 1
 263 496 l 1
 529 496 l 1
 529 825 l 1
 717 825 l 1
 717 0 l 1
 529 0 l 1
 529 331 l 1
 263 331 l 1
178.5 976 m 1
 399.5 1138 l 1
 620.5 976 l 1
 552.5 885 l 1
 399.5 997 l 1
 246.5 885 l 1
 178.5 976 l 1
EndSplineSet
EndChar

StartChar: hcircumflex
Encoding: 293 293 229
Width: 695
Flags: W
HStem: 0 21G<72 249 446 623> 390 138<312.861 411.575>
VStem: 72 177<0 346.049 459 860> 446 177<0 351.126>
LayerCount: 2
Fore
SplineSet
249 860 m 1
 249 459 l 1
 289 499 342 528 398 528 c 0
 492 528 623 481 623 338 c 2
 623 0 l 1
 446 0 l 1
 446 290 l 2
 446 341 411 390 354 390 c 0
 301 390 249 341 249 290 c 2
 249 0 l 1
 72 0 l 1
 72 860 l 1
 249 860 l 1
122.5 1018 m 1
 343.5 1180 l 1
 564.5 1018 l 1
 496.5 927 l 1
 343.5 1039 l 1
 190.5 927 l 1
 122.5 1018 l 1
EndSplineSet
EndChar

StartChar: Hbar
Encoding: 294 294 230
Width: 960
Flags: W
HStem: 0 21G<167.5 355.5 621.5 809.5> 310 165<355.5 621.5> 541.5 177<50 167.5 355.5 621.5 809.5 910> 805 20G<167.5 355.5 621.5 809.5>
VStem: 167.5 188<0 310 475 541.5 718.5 825> 621.5 188<0 310 475 541.5 718.5 825>
LayerCount: 2
Fore
SplineSet
355.5 310 m 1
 355.5 0 l 1
 167.5 0 l 1
 167.5 541.5 l 1
 50 541.5 l 1
 50 718.5 l 1
 167.5 718.5 l 1
 167.5 825 l 1
 355.5 825 l 1
 355.5 718.5 l 1
 621.5 718.5 l 1
 621.5 825 l 1
 809.5 825 l 1
 809.5 718.5 l 1
 910 718.5 l 1
 910 541.5 l 1
 809.5 541.5 l 1
 809.5 0 l 1
 621.5 0 l 1
 621.5 310 l 1
 355.5 310 l 1
355.5 541.5 m 1
 355.5 475 l 1
 621.5 475 l 1
 621.5 541.5 l 1
 355.5 541.5 l 1
EndSplineSet
EndChar

StartChar: hbar
Encoding: 295 295 231
Width: 785
Flags: W
HStem: 0 21G<174.25 351.25 548.25 725.25> 390 138<415.111 513.825> 608.5 139<59.75 174.25 351.25 660.75>
VStem: 174.25 177<0 346.049 459 608.5 747.5 860> 548.25 177<0 351.126>
LayerCount: 2
Fore
SplineSet
351.25 608.5 m 1
 351.25 459 l 1
 391.25 499 444.25 528 500.25 528 c 0
 594.25 528 725.25 481 725.25 338 c 2
 725.25 0 l 1
 548.25 0 l 1
 548.25 290 l 2
 548.25 341 513.25 390 456.25 390 c 0
 403.25 390 351.25 341 351.25 290 c 2
 351.25 0 l 1
 174.25 0 l 1
 174.25 608.5 l 1
 59.75 608.5 l 1
 59.75 747.5 l 1
 174.25 747.5 l 1
 174.25 860 l 1
 351.25 860 l 1
 351.25 747.5 l 1
 660.75 747.5 l 1
 660.75 608.5 l 1
 351.25 608.5 l 1
EndSplineSet
EndChar

StartChar: Itilde
Encoding: 296 296 232
Width: 538
Flags: W
HStem: 0 21G<174 362> 805 20G<174 362> 885 126<287.882 385.732> 931 126<152.268 259.427>
VStem: 174 188<0 825>
LayerCount: 2
Fore
SplineSet
184 931 m 0xd8
 152 931 139 885 139 885 c 1
 38 885 l 1xe8
 38 885 64 1057 174 1057 c 0xd8
 213 1057 313 1011 354 1011 c 0xe8
 386 1011 399 1057 399 1057 c 1
 500 1057 l 1xd8
 500 1057 474 885 364 885 c 0xe8
 325 885 248.203125 931 184 931 c 0xd8
362 825 m 1
 362 0 l 1
 174 0 l 1
 174 825 l 1
 362 825 l 1
EndSplineSet
EndChar

StartChar: itilde
Encoding: 297 297 233
Width: 550
Flags: W
HStem: 0 21G<187 364> 493 20G<187 364> 578 126<293.882 391.732> 624 126<158.268 265.427>
VStem: 187 177<0 513>
LayerCount: 2
Fore
SplineSet
190 624 m 0xd8
 158 624 145 578 145 578 c 1
 44 578 l 1xe8
 44 578 70 750 180 750 c 0xd8
 219 750 319 704 360 704 c 0xe8
 392 704 405 750 405 750 c 1
 506 750 l 1xd8
 506 750 480 578 370 578 c 0xe8
 331 578 254.203125 624 190 624 c 0xd8
187 513 m 1
 364 513 l 1
 364 0 l 1
 187 0 l 1
 187 513 l 1
EndSplineSet
EndChar

StartChar: Imacron
Encoding: 298 298 234
Width: 486
Flags: W
HStem: 0 21G<149 337> 805 20G<149 337> 946 120<39 447>
VStem: 149 188<0 825>
LayerCount: 2
Fore
SplineSet
337 825 m 1
 337 0 l 1
 149 0 l 1
 149 825 l 1
 337 825 l 1
39 1066 m 1
 447 1066 l 1
 447 946 l 1
 39 946 l 1
 39 1066 l 1
EndSplineSet
EndChar

StartChar: imacron
Encoding: 299 299 235
Width: 509
Flags: W
HStem: 0 21G<165.5 342.5> 493 20G<165.5 342.5> 634 120<50.5 458.5>
VStem: 165.5 177<0 513>
LayerCount: 2
Fore
SplineSet
165.5 513 m 1
 342.5 513 l 1
 342.5 0 l 1
 165.5 0 l 1
 165.5 513 l 1
50.5 754 m 1
 458.5 754 l 1
 458.5 634 l 1
 50.5 634 l 1
 50.5 754 l 1
EndSplineSet
EndChar

StartChar: Ibreve
Encoding: 300 300 236
Width: 538
Flags: W
HStem: 0 21G<171 359> 805 20G<171 359> 919 109<205.741 332.259>
VStem: 171 188<0 825>
LayerCount: 2
Fore
SplineSet
359 825 m 1
 359 0 l 1
 171 0 l 1
 171 825 l 1
 359 825 l 1
374 1131 m 1
 500 1100 l 1
 488 993 398 919 269 919 c 0
 140 919 50 993 38 1100 c 1
 164 1131 l 1
 164 1131 175 1028 269 1028 c 0
 363 1028 374 1131 374 1131 c 1
EndSplineSet
EndChar

StartChar: ibreve
Encoding: 301 301 237
Width: 551
Flags: W
HStem: 0 21G<181.5 358.5> 493 20G<181.5 358.5> 604 109<212.241 338.759>
VStem: 181.5 177<0 513>
LayerCount: 2
Fore
SplineSet
181.5 513 m 1
 358.5 513 l 1
 358.5 0 l 1
 181.5 0 l 1
 181.5 513 l 1
380.5 816 m 1
 506.5 785 l 1
 494.5 678 404.5 604 275.5 604 c 0
 146.5 604 56.5 678 44.5 785 c 1
 170.5 816 l 1
 170.5 816 181.5 713 275.5 713 c 0
 369.5 713 380.5 816 380.5 816 c 1
EndSplineSet
EndChar

StartChar: Iogonek
Encoding: 302 302 238
Width: 356
Flags: W
HStem: -275 96<154.038 230.122> 805 20G<73.5 261.5>
VStem: 46.5 103<-174.514 -85.3714> 73.5 188<0 825>
LayerCount: 2
Fore
SplineSet
261.5 825 m 1xd0
 261.5 0 l 1xd0
 208.5 0 l 1
 208.5 0 149.5 -70 149.5 -140 c 0
 149.5 -165 169.5 -179 186.5 -179 c 0
 217.5 -179 237.5 -149 237.5 -149 c 1
 309.5 -203 l 1
 309.5 -203 264.5 -275 172.5 -275 c 0
 120.5 -275 46.5 -245 46.5 -158 c 0xe0
 46.5 -103 96.5 -36 126.5 0 c 1
 73.5 0 l 1
 73.5 825 l 1
 261.5 825 l 1xd0
EndSplineSet
EndChar

StartChar: iogonek
Encoding: 303 303 239
Width: 353
Flags: W
HStem: -275 96<152.538 228.622> 493 20G<76 253> 620 210<104.172 229.828>
VStem: 45 103<-174.514 -84.794> 62 210<662.172 787.828> 76 177<0 513>
LayerCount: 2
Fore
SplineSet
45 -158 m 0xf0
 45 -101 95 -35 125 0 c 1
 76 0 l 1
 76 513 l 1
 253 513 l 1
 253 0 l 1xe4
 207 0 l 1
 207 0 148 -70 148 -140 c 0
 148 -165 168 -179 185 -179 c 0
 216 -179 236 -149 236 -149 c 1
 308 -203 l 1
 308 -203 263 -275 171 -275 c 0
 119 -275 45 -245 45 -158 c 0xf0
167 830 m 0
 225 830 272 783 272 725 c 0
 272 667 225 620 167 620 c 0
 109 620 62 667 62 725 c 0xe8
 62 783 109 830 167 830 c 0
EndSplineSet
EndChar

StartChar: Idotaccent
Encoding: 304 304 240
Width: 337
Flags: W
HStem: 0 21G<74.5 262.5> 805 20G<74.5 262.5> 905 210<105.672 231.328>
VStem: 63.5 210<947.172 1072.83> 74.5 188<0 825>
LayerCount: 2
Fore
SplineSet
262.5 825 m 1xe8
 262.5 0 l 1
 74.5 0 l 1
 74.5 825 l 1
 262.5 825 l 1xe8
168.5 1115 m 0
 226.5 1115 273.5 1068 273.5 1010 c 0
 273.5 952 226.5 905 168.5 905 c 0
 110.5 905 63.5 952 63.5 1010 c 0xf0
 63.5 1068 110.5 1115 168.5 1115 c 0
EndSplineSet
EndChar

StartChar: dotlessi
Encoding: 305 305 241
Width: 324
Flags: W
HStem: 0 21G<73.5 250.5> 493 20G<73.5 250.5>
VStem: 73.5 177<0 513>
LayerCount: 2
Fore
SplineSet
73.5 0 m 1
 73.5 513 l 1
 250.5 513 l 1
 250.5 0 l 1
 73.5 0 l 1
EndSplineSet
EndChar

StartChar: IJ
Encoding: 306 306 242
Width: 791
Flags: W
HStem: -15 180<375.151 494.436> 805 20G<73 261 530 718>
VStem: 73 188<-15 825> 530 188<203.518 825>
LayerCount: 2
Fore
SplineSet
718 825 m 1
 718 233 l 2
 718 71 626 -15 461 -15 c 0
 343 -15 268 64 268 64 c 1
 328 221 l 1
 328 221 387 165 435 165 c 0
 489 165 530 198 530 281 c 2
 530 825 l 1
 718 825 l 1
261 825 m 1
 261 -15 l 1
 73 -15 l 1
 73 825 l 1
 261 825 l 1
EndSplineSet
EndChar

StartChar: ij
Encoding: 307 307 243
Width: 590
Flags: W
HStem: 0 21G<60.5 237.5> 493 20G<60.5 237.5 345.5 522.5> 620 210<88.6725 214.328 370.672 496.328>
VStem: 46.5 210<662.172 787.828> 60.5 177<0 513> 328.5 210<662.172 787.828> 345.526 176.974<18.2356 513>
LayerCount: 2
Fore
SplineSet
345.5 513 m 1xe2
 522.5 513 l 1
 522.5 92 l 2
 522.5 -47 446.5 -148 316.5 -148 c 0
 285.903320312 -148 230.559570312 -23.4609375 258.885742188 -12 c 0
 295.623046875 2.8642578125 345.498046875 0.3955078125 345.526367188 86 c 2
 345.5 513 l 1xe2
433.5 830 m 0
 491.5 830 538.5 783 538.5 725 c 0
 538.5 667 491.5 620 433.5 620 c 0
 375.5 620 328.5 667 328.5 725 c 0xe4
 328.5 783 375.5 830 433.5 830 c 0
237.5 513 m 1xe8
 237.5 0 l 1
 60.5 0 l 1
 60.5 513 l 1
 237.5 513 l 1xe8
46.5 725 m 0xf0
 46.5 783 93.5 830 151.5 830 c 0
 209.5 830 256.5 783 256.5 725 c 0
 256.5 667 209.5 620 151.5 620 c 0
 93.5 620 46.5 667 46.5 725 c 0xf0
EndSplineSet
EndChar

StartChar: Jcircumflex
Encoding: 308 308 244
Width: 661
Flags: W
HStem: -15 180<149.901 269.186> 805 20G<304.75 492.75>
VStem: 304.75 188<203.518 825>
LayerCount: 2
Fore
SplineSet
492.75 825 m 1
 492.75 233 l 2
 492.75 71 400.75 -15 235.75 -15 c 0
 117.75 -15 42.75 64 42.75 64 c 1
 102.75 221 l 1
 102.75 221 161.75 165 209.75 165 c 0
 263.75 165 304.75 198 304.75 281 c 2
 304.75 825 l 1
 492.75 825 l 1
176.25 975 m 1
 397.25 1137 l 1
 618.25 975 l 1
 550.25 884 l 1
 397.25 996 l 1
 244.25 884 l 1
 176.25 975 l 1
EndSplineSet
EndChar

StartChar: jcircumflex
Encoding: 309 309 245
Width: 542
Flags: W
HStem: 493 20G<190.25 367.25> 815 20G<252.466 307.034>
VStem: 190.276 176.974<18.2356 513>
LayerCount: 2
Fore
SplineSet
190.25 513 m 1
 367.25 513 l 1
 367.25 92 l 2
 367.25 -47 291.25 -148 161.25 -148 c 0
 130.653320312 -148 75.3095703125 -23.4609375 103.635742188 -12 c 0
 140.373046875 2.8642578125 190.248046875 0.3955078125 190.276367188 86 c 2
 190.25 513 l 1
58.75 673 m 1
 279.75 835 l 1
 500.75 673 l 1
 432.75 582 l 1
 279.75 694 l 1
 126.75 582 l 1
 58.75 673 l 1
EndSplineSet
EndChar

StartChar: uni0136
Encoding: 310 310 246
Width: 869
Flags: W
HStem: 0 21G<59 247 533.629 810> 805 20G<59 247 513.205 758>
VStem: 59 188<0 350 488 825> 303 178<-184.181 -70.982>
LayerCount: 2
Fore
SplineSet
391 -40 m 0
 441 -40 481 -80 481 -130 c 0
 481 -223 414 -299 351 -351 c 1
 311 -320 l 1
 311 -320 358 -275 370 -210 c 1
 332 -201 303 -170 303 -130 c 0
 303 -80 343 -40 391 -40 c 0
810 0 m 1
 551 0 l 1
 247 350 l 1
 247 0 l 1
 59 0 l 1
 59 825 l 1
 247 825 l 1
 247 488 l 1
 530 825 l 1
 758 825 l 1
 426 434 l 1
 810 0 l 1
EndSplineSet
EndChar

StartChar: uni0137
Encoding: 311 311 247
Width: 728
Flags: W
HStem: 0 21G<59 236 421 669> 493 20G<395 645>
VStem: 59 177<0 205 334 860> 233 178<-184.181 -70.982>
LayerCount: 2
Fore
SplineSet
321 -40 m 0xd0
 371 -40 411 -80 411 -130 c 0
 411 -223 344 -299 281 -351 c 1
 241 -320 l 1
 241 -320 288 -275 300 -210 c 1
 262 -201 233 -170 233 -130 c 0
 233 -80 273 -40 321 -40 c 0xd0
645 513 m 1
 401 268 l 1
 669 0 l 1
 441 0 l 1
 236 205 l 1
 236 0 l 1
 59 0 l 1
 59 860 l 1
 236 860 l 1
 236 334 l 1xe0
 415 513 l 1
 645 513 l 1
EndSplineSet
EndChar

StartChar: kgreenlandic
Encoding: 312 312 248
Width: 718
Flags: W
VStem: 58.5996 150.4<1.5 281.5 391.9 661.5>
LayerCount: 2
Fore
SplineSet
659.400390625 1.5 m 1
 452.200195312 1.5 l 1
 209 281.5 l 1
 209 1.5 l 1
 58.599609375 1.5 l 1
 58.599609375 661.5 l 1
 209 661.5 l 1
 209 391.900390625 l 1
 435.400390625 661.5 l 1
 617.799804688 661.5 l 1
 352.200195312 348.700195312 l 1
 659.400390625 1.5 l 1
EndSplineSet
EndChar

StartChar: Lacute
Encoding: 313 313 249
Width: 603
Flags: W
HStem: 0 165<253.5 537.5> 805 20G<65.5 253.5>
VStem: 65.5 188<165 825>
LayerCount: 2
Fore
SplineSet
253.5 825 m 1
 253.5 165 l 1
 537.5 165 l 1
 537.5 0 l 1
 65.5 0 l 1
 65.5 825 l 1
 253.5 825 l 1
141.5 976 m 1
 344.5 1152 l 1
 435.5 1037 l 1
 197.5 899 l 1
 141.5 976 l 1
EndSplineSet
EndChar

StartChar: lacute
Encoding: 314 314 250
Width: 406
Flags: W
HStem: 0 21G<197 277.298> 805 20G<56.6143 232.75>
VStem: 58.6143 178<187.331 825>
LayerCount: 2
Fore
SplineSet
262 0 m 0
 132 0 58.6142578125 86 58.6142578125 225 c 2
 56.6142578125 825 l 1
 232.614257812 825 l 1
 236.614257812 234 l 2
 236.642578125 169.395507812 308.876953125 163.864257812 319.614257812 163 c 0
 350.072265625 160.548828125 292.596679688 0 262 0 c 0
56 1011 m 1
 259 1187 l 1
 350 1072 l 1
 112 934 l 1
 56 1011 l 1
EndSplineSet
EndChar

StartChar: uni013B
Encoding: 315 315 251
Width: 603
Flags: W
HStem: 0 165<253.5 537.5> 805 20G<65.5 253.5>
VStem: 65.5 188<165 825> 198.5 178<-184.181 -70.982>
LayerCount: 2
Fore
SplineSet
286.5 -40 m 0xd0
 336.5 -40 376.5 -80 376.5 -130 c 0
 376.5 -223 309.5 -299 246.5 -351 c 1
 206.5 -320 l 1
 206.5 -320 253.5 -275 265.5 -210 c 1
 227.5 -201 198.5 -170 198.5 -130 c 0
 198.5 -80 238.5 -40 286.5 -40 c 0xd0
253.5 825 m 1xe0
 253.5 165 l 1
 537.5 165 l 1
 537.5 0 l 1
 65.5 0 l 1
 65.5 825 l 1
 253.5 825 l 1xe0
EndSplineSet
EndChar

StartChar: uni013C
Encoding: 316 316 252
Width: 328
Flags: W
HStem: 0 21G<205 285.298> 805 20G<64.6143 240.75>
VStem: 66.6143 178<187.331 825> 75 178<-184.181 -70.982>
LayerCount: 2
Fore
SplineSet
270 0 m 0xe0
 140 0 66.6142578125 86 66.6142578125 225 c 2
 64.6142578125 825 l 1
 240.614257812 825 l 1
 244.614257812 234 l 2
 244.642578125 169.395507812 316.876953125 163.864257812 327.614257812 163 c 0
 358.072265625 160.548828125 300.596679688 0 270 0 c 0xe0
163 -40 m 0
 213 -40 253 -80 253 -130 c 0
 253 -223 186 -299 123 -351 c 1
 83 -320 l 1
 83 -320 130 -275 142 -210 c 1
 104 -201 75 -170 75 -130 c 0xd0
 75 -80 115 -40 163 -40 c 0
EndSplineSet
EndChar

StartChar: Lcaron
Encoding: 317 317 253
Width: 603
Flags: W
HStem: 0 165<253.5 537.5> 513 21G<356.694 414> 805 20G<65.5 253.5>
VStem: 65.5 188<165 825> 334.5 178<679.819 793.018>
LayerCount: 2
Fore
SplineSet
422.5 824 m 0
 472.5 824 512.5 784 512.5 734 c 0
 512.5 641 445.5 565 382.5 513 c 1
 342.5 544 l 1
 342.5 544 389.5 589 401.5 654 c 1
 363.5 663 334.5 694 334.5 734 c 0
 334.5 784 374.5 824 422.5 824 c 0
253.5 825 m 1
 253.5 165 l 1
 537.5 165 l 1
 537.5 0 l 1
 65.5 0 l 1
 65.5 825 l 1
 253.5 825 l 1
EndSplineSet
EndChar

StartChar: lcaron
Encoding: 318 318 254
Width: 523
Flags: W
HStem: 0 21G<201 281.298> 513 21G<305.694 363> 805 20G<60.6143 236.75>
VStem: 62.6143 178<187.331 825> 283.5 178<679.819 793.018>
LayerCount: 2
Fore
SplineSet
266 0 m 0
 136 0 62.6142578125 86 62.6142578125 225 c 2
 60.6142578125 825 l 1
 236.614257812 825 l 1
 240.614257812 234 l 2
 240.642578125 169.395507812 312.876953125 163.864257812 323.614257812 163 c 0
 354.072265625 160.548828125 296.596679688 0 266 0 c 0
371.5 824 m 0
 421.5 824 461.5 784 461.5 734 c 0
 461.5 641 394.5 565 331.5 513 c 1
 291.5 544 l 1
 291.5 544 338.5 589 350.5 654 c 1
 312.5 663 283.5 694 283.5 734 c 0
 283.5 784 323.5 824 371.5 824 c 0
EndSplineSet
EndChar

StartChar: Ldot
Encoding: 319 319 255
Width: 604
Flags: W
HStem: 0 165<254 538> 383 184<369.901 487.099> 805 20G<66 254>
VStem: 66 188<165 825> 336.5 184<416.401 533.599>
LayerCount: 2
Fore
SplineSet
254 825 m 1
 254 165 l 1
 538 165 l 1
 538 0 l 1
 66 0 l 1
 66 825 l 1
 254 825 l 1
428.5 567 m 0
 479.5 567 520.5 526 520.5 475 c 0
 520.5 424 479.5 383 428.5 383 c 0
 377.5 383 336.5 424 336.5 475 c 0
 336.5 526 377.5 567 428.5 567 c 0
EndSplineSet
EndChar

StartChar: ldot
Encoding: 320 320 256
Width: 534
Flags: W
HStem: 0 21G<203 283.298> 383 184<321.026 438.224> 805 20G<62.6143 238.75>
VStem: 64.6143 178<187.331 825> 287.625 184<416.401 533.599>
LayerCount: 2
Fore
SplineSet
268 0 m 0
 138 0 64.6142578125 86 64.6142578125 225 c 2
 62.6142578125 825 l 1
 238.614257812 825 l 1
 242.614257812 234 l 2
 242.642578125 169.395507812 314.876953125 163.864257812 325.614257812 163 c 0
 356.072265625 160.548828125 298.596679688 0 268 0 c 0
379.625 567 m 0
 430.625 567 471.625 526 471.625 475 c 0
 471.625 424 430.625 383 379.625 383 c 0
 328.625 383 287.625 424 287.625 475 c 0
 287.625 526 328.625 567 379.625 567 c 0
EndSplineSet
EndChar

StartChar: Lslash
Encoding: 321 321 257
Width: 665
Flags: W
HStem: 0 165<322.5 606.5> 805 20G<134.5 322.5>
VStem: 134.5 188<165 309 610 825>
LayerCount: 2
Fore
SplineSet
58.5 250 m 1
 58.5 403 l 1
 134.5 462 l 1
 134.5 825 l 1
 322.5 825 l 1
 322.5 610 l 1
 427.5 693 l 1
 427.5 540 l 1
 322.5 457 l 1
 322.5 165 l 1
 606.5 165 l 1
 606.5 0 l 1
 134.5 0 l 1
 134.5 309 l 1
 58.5 250 l 1
EndSplineSet
EndChar

StartChar: lslash
Encoding: 322 322 258
Width: 472
Flags: W
HStem: 0 21G<270 350.298> 805 20G<129.614 305.75>
VStem: 131.614 178<187.331 310.785 602.177 825>
LayerCount: 2
Fore
SplineSet
54.1142578125 250 m 1
 54.1142578125 403 l 1
 130.819335938 463.384765625 l 1
 129.614257812 825 l 1
 305.614257812 825 l 1
 307.122070312 602.176757812 l 1
 383.114257812 662 l 1
 383.114257812 509 l 1
 308.15234375 449.987304688 l 1
 309.614257812 234 l 2
 309.642578125 169.395507812 381.876953125 163.864257812 392.614257812 163 c 0
 423.072265625 160.548828125 365.596679688 0 335 0 c 0
 205 0 131.614257812 86 131.614257812 225 c 2
 131.328125 310.78515625 l 1
 54.1142578125 250 l 1
EndSplineSet
EndChar

StartChar: Nacute
Encoding: 323 323 259
Width: 856
Flags: W
HStem: 0 21G<75 263 756.566 781> 805 20G<75 99.2824 592.906 781>
VStem: 75 188<0 424> 591 190<400 825>
LayerCount: 2
Fore
SplineSet
281 976 m 1
 484 1152 l 1
 575 1037 l 1
 337 899 l 1
 281 976 l 1
75 0 m 1
 75 825 l 1
 591 400 l 1
 593 825 l 1
 781 825 l 1
 781 0 l 1
 263 424 l 1
 263 0 l 1
 75 0 l 1
EndSplineSet
EndChar

StartChar: nacute
Encoding: 324 324 260
Width: 693
Flags: W
HStem: 0 21G<71 255 457 634> 384 144<288.575 424.462> 500 20G<71 211> 820 20G<461.932 500.826>
VStem: 71 184<0 349.74> 457 177<0 346.738>
LayerCount: 2
Fore
SplineSet
255 0 m 1xdc
 71 0 l 1
 71 520 l 1
 211 520 l 1xbc
 211 491 l 1
 245 514 292 528 357 528 c 0
 549 528 634 459 634 287 c 2
 634 0 l 1
 457 0 l 1
 457 244 l 2
 457 345 431 384 357 384 c 0
 283 384 255 345 255 244 c 2
 255 0 l 1xdc
282 664 m 1
 485 840 l 1
 576 725 l 1
 338 587 l 1
 282 664 l 1
EndSplineSet
EndChar

StartChar: uni0145
Encoding: 325 325 261
Width: 856
Flags: W
HStem: 0 21G<75 263 756.566 781> 805 20G<75 99.2824 592.906 781>
VStem: 75 188<0 424> 339 178<-184.181 -70.982> 591 190<400 825>
LayerCount: 2
Fore
SplineSet
427 -40 m 0
 477 -40 517 -80 517 -130 c 0
 517 -223 450 -299 387 -351 c 1
 347 -320 l 1
 347 -320 394 -275 406 -210 c 1
 368 -201 339 -170 339 -130 c 0
 339 -80 379 -40 427 -40 c 0
75 0 m 1
 75 825 l 1
 591 400 l 1
 593 825 l 1
 781 825 l 1
 781 0 l 1
 263 424 l 1
 263 0 l 1
 75 0 l 1
EndSplineSet
EndChar

StartChar: uni0146
Encoding: 326 326 262
Width: 695
Flags: W
HStem: 0 21G<72 256 458 635> 384 144<289.575 425.462> 500 20G<72 212>
VStem: 72 184<0 349.74> 253 178<-184.181 -70.982> 458 177<0 346.738>
LayerCount: 2
Fore
SplineSet
256 0 m 1xd4
 72 0 l 1
 72 520 l 1
 212 520 l 1xb4
 212 491 l 1
 246 514 293 528 358 528 c 0
 550 528 635 459 635 287 c 2
 635 0 l 1
 458 0 l 1
 458 244 l 2
 458 345 432 384 358 384 c 0
 284 384 256 345 256 244 c 2
 256 0 l 1xd4
341 -40 m 0
 391 -40 431 -80 431 -130 c 0
 431 -223 364 -299 301 -351 c 1
 261 -320 l 1
 261 -320 308 -275 320 -210 c 1
 282 -201 253 -170 253 -130 c 0x8c
 253 -80 293 -40 341 -40 c 0
EndSplineSet
EndChar

StartChar: Ncaron
Encoding: 327 327 263
Width: 856
Flags: W
HStem: 0 21G<75 263 756.566 781> 805 20G<75 99.2824 592.906 781>
VStem: 75 188<0 424> 591 190<400 825>
LayerCount: 2
Fore
SplineSet
275 1152 m 1
 428 1040 l 1
 581 1152 l 1
 649 1061 l 1
 428 899 l 1
 207 1061 l 1
 275 1152 l 1
75 0 m 1
 75 825 l 1
 591 400 l 1
 593 825 l 1
 781 825 l 1
 781 0 l 1
 263 424 l 1
 263 0 l 1
 75 0 l 1
EndSplineSet
EndChar

StartChar: ncaron
Encoding: 328 328 264
Width: 692
Flags: W
HStem: 0 21G<72 256 458 635> 384 144<289.575 425.462> 500 20G<72 212> 820 20G<172.555 214.821 466.179 508.445>
VStem: 72 184<0 349.74> 458 177<0 346.738>
LayerCount: 2
Fore
SplineSet
256 0 m 1xdc
 72 0 l 1
 72 520 l 1
 212 520 l 1xbc
 212 491 l 1
 246 514 293 528 358 528 c 0
 550 528 635 459 635 287 c 2
 635 0 l 1
 458 0 l 1
 458 244 l 2
 458 345 432 384 358 384 c 0
 284 384 256 345 256 244 c 2
 256 0 l 1xdc
187.5 840 m 1
 340.5 728 l 1
 493.5 840 l 1
 561.5 749 l 1
 340.5 587 l 1
 119.5 749 l 1
 187.5 840 l 1
EndSplineSet
EndChar

StartChar: napostrophe
Encoding: 329 329 265
Width: 762
Flags: W
HStem: 0 21G<155.098 339.098 541.098 718.098> 384 144<372.673 508.56> 500 20G<155.098 295.098> 519.989 21G<105.132 149.711>
VStem: 155.098 184<0 349.74> 541.098 177<0 346.738>
LayerCount: 2
Fore
SplineSet
339.09765625 0 m 1xcc
 155.09765625 0 l 1
 155.09765625 520 l 1
 295.09765625 520 l 1xac
 295.09765625 491 l 1
 329.09765625 514 376.09765625 528 441.09765625 528 c 0
 633.09765625 528 718.09765625 459 718.09765625 287 c 2
 718.09765625 0 l 1
 541.09765625 0 l 1
 541.09765625 244 l 2
 541.09765625 345 515.09765625 384 441.09765625 384 c 0
 367.09765625 384 339.09765625 345 339.09765625 244 c 2
 339.09765625 0 l 1xcc
55.90234375 580.380859375 m 1
 207.96484375 801.879882812 l 1
 325.021484375 713.541015625 l 1
 129.5078125 519.989257812 l 1x9c
 55.90234375 580.380859375 l 1
EndSplineSet
EndChar

StartChar: Eng
Encoding: 330 330 266
Width: 856
Flags: W
HStem: -279 110<459.001 521.711> 0 21G<75 263> 805 20G<75 99.2824 592.906 781>
VStem: 75 188<0 424> 591 190<400 825>
LayerCount: 2
Fore
SplineSet
75 0 m 1
 75 825 l 1
 591 400 l 1
 593 825 l 1
 781 825 l 1
 781 0 l 2
 780.920898438 -247.188476562 536.057617188 -275.158203125 443.000976562 -279 c 1
 459.000976562 -169 l 1
 653 -135 677 70 625.11328125 127.598632812 c 1
 263 424 l 1
 263 0 l 1
 75 0 l 1
EndSplineSet
EndChar

StartChar: eng
Encoding: 331 331 267
Width: 762
Flags: W
HStem: -279.001 117<301.001 356.372> -0.000976562 21G<60.001 244.001> 383.999 144<277.576 413.463> 499.999 20G<60.001 200.001>
VStem: 60.001 184<-0.000976562 349.739> 446.001 176.931<-71.8484 346.738>
LayerCount: 2
Fore
SplineSet
623 287 m 2xec
 622.931640625 0 l 1
 618.274414062 -240.8515625 377.171875 -275.1953125 285.000976562 -279.000976562 c 1
 301.000976562 -162.000976562 l 1
 347.650390625 -156.875976562 445.1484375 -102.584960938 446.000976562 6.9990234375 c 2
 446.000976562 243.999023438 l 2
 446.000976562 344.999023438 420.000976562 383.999023438 346.000976562 383.999023438 c 0xec
 272.000976562 383.999023438 244.000976562 344.999023438 244.000976562 243.999023438 c 2
 244.000976562 -0.0009765625 l 1
 60.0009765625 -0.0009765625 l 1
 60.0009765625 519.999023438 l 1
 200.000976562 519.999023438 l 1xdc
 200.000976562 490.999023438 l 1
 234.000976562 513.999023438 281.000976562 527.999023438 346.000976562 527.999023438 c 0
 538.000976562 527.999023438 623 459 623 287 c 2xec
EndSplineSet
EndChar

StartChar: Omacron
Encoding: 332 332 268
Width: 952
Flags: W
HStem: -15 182<378.181 572.78> 659 181<382.728 570.69> 946 120<271.5 679.5>
VStem: 60.5 203<295.231 523> 688.5 203<295.231 525.587>
LayerCount: 2
Fore
SplineSet
263.5 413 m 0
 263.5 290 322.5 167 476.5 167 c 0
 626.5 167 688.5 290 688.5 413 c 0
 688.5 536 622.5 659 476.5 659 c 0
 331.5 659 263.5 536 263.5 413 c 0
60.5 413 m 0
 60.5 654 249.5 840 476.5 840 c 0
 705.5 840 891.5 654 891.5 413 c 0
 891.5 172 713.5 -15 476.5 -15 c 0
 232.5 -15 60.5 172 60.5 413 c 0
271.5 1066 m 1
 679.5 1066 l 1
 679.5 946 l 1
 271.5 946 l 1
 271.5 1066 l 1
EndSplineSet
EndChar

StartChar: omacron
Encoding: 333 333 269
Width: 736
Flags: W
HStem: -15 151<299.825 436.14> 377 151<298.852 434.483> 634 120<163.5 571.5>
VStem: 60.5 188<185.202 327.551> 487.5 188<185.202 327.551>
LayerCount: 2
Fore
SplineSet
248.5 256 m 0
 248.5 186 296.5 136 368.5 136 c 0
 437.5 136 487.5 186 487.5 256 c 0
 487.5 327 434.5 377 368.5 377 c 0
 301.5 377 248.5 327 248.5 256 c 0
60.5 256 m 0
 60.5 416 196.5 528 369.5 528 c 0
 539.5 528 675.5 416 675.5 256 c 0
 675.5 98 546.5 -15 369.5 -15 c 0
 184.5 -15 60.5 98 60.5 256 c 0
163.5 754 m 1
 571.5 754 l 1
 571.5 634 l 1
 163.5 634 l 1
 163.5 754 l 1
EndSplineSet
EndChar

StartChar: Obreve
Encoding: 334 334 270
Width: 952
Flags: W
HStem: -15 182<378.181 572.78> 659 181<382.728 570.69> 904 109<412.241 538.759>
VStem: 60.5 203<295.231 523> 688.5 203<295.231 525.587>
LayerCount: 2
Fore
SplineSet
263.5 413 m 0
 263.5 290 322.5 167 476.5 167 c 0
 626.5 167 688.5 290 688.5 413 c 0
 688.5 536 622.5 659 476.5 659 c 0
 331.5 659 263.5 536 263.5 413 c 0
60.5 413 m 0
 60.5 654 249.5 840 476.5 840 c 0
 705.5 840 891.5 654 891.5 413 c 0
 891.5 172 713.5 -15 476.5 -15 c 0
 232.5 -15 60.5 172 60.5 413 c 0
580.5 1116 m 1
 706.5 1085 l 1
 694.5 978 604.5 904 475.5 904 c 0
 346.5 904 256.5 978 244.5 1085 c 1
 370.5 1116 l 1
 370.5 1116 381.5 1013 475.5 1013 c 0
 569.5 1013 580.5 1116 580.5 1116 c 1
EndSplineSet
EndChar

StartChar: obreve
Encoding: 335 335 271
Width: 734
Flags: W
HStem: -15 151<298.825 435.14> 377 151<297.852 433.483> 594 109<305.241 431.759>
VStem: 59.5 188<185.202 327.551> 486.5 188<185.202 327.551>
LayerCount: 2
Fore
SplineSet
247.5 256 m 0
 247.5 186 295.5 136 367.5 136 c 0
 436.5 136 486.5 186 486.5 256 c 0
 486.5 327 433.5 377 367.5 377 c 0
 300.5 377 247.5 327 247.5 256 c 0
59.5 256 m 0
 59.5 416 195.5 528 368.5 528 c 0
 538.5 528 674.5 416 674.5 256 c 0
 674.5 98 545.5 -15 368.5 -15 c 0
 183.5 -15 59.5 98 59.5 256 c 0
473.5 806 m 1
 599.5 775 l 1
 587.5 668 497.5 594 368.5 594 c 0
 239.5 594 149.5 668 137.5 775 c 1
 263.5 806 l 1
 263.5 806 274.5 703 368.5 703 c 0
 462.5 703 473.5 806 473.5 806 c 1
EndSplineSet
EndChar

StartChar: Ohungarumlaut
Encoding: 336 336 272
Width: 952
Flags: W
HStem: -15 182<378.181 572.78> 659 181<382.728 570.69>
VStem: 60.5 203<295.231 523> 688.5 203<295.231 525.587>
LayerCount: 2
Fore
SplineSet
263.5 413 m 0
 263.5 290 322.5 167 476.5 167 c 0
 626.5 167 688.5 290 688.5 413 c 0
 688.5 536 622.5 659 476.5 659 c 0
 331.5 659 263.5 536 263.5 413 c 0
60.5 413 m 0
 60.5 654 249.5 840 476.5 840 c 0
 705.5 840 891.5 654 891.5 413 c 0
 891.5 172 713.5 -15 476.5 -15 c 0
 232.5 -15 60.5 172 60.5 413 c 0
479.5 976 m 1
 652.5 1172 l 1
 734.5 1068 l 1
 535.5 899 l 1
 479.5 976 l 1
268.5 976 m 1
 441.5 1172 l 1
 523.5 1068 l 1
 324.5 899 l 1
 268.5 976 l 1
EndSplineSet
EndChar

StartChar: ohungarumlaut
Encoding: 337 337 273
Width: 734
Flags: W
HStem: -15 151<298.825 435.14> 377 151<297.852 433.483>
VStem: 59.5 188<185.202 327.551> 486.5 188<185.202 327.551>
LayerCount: 2
Fore
SplineSet
247.5 256 m 0
 247.5 186 295.5 136 367.5 136 c 0
 436.5 136 486.5 186 486.5 256 c 0
 486.5 327 433.5 377 367.5 377 c 0
 300.5 377 247.5 327 247.5 256 c 0
59.5 256 m 0
 59.5 416 195.5 528 368.5 528 c 0
 538.5 528 674.5 416 674.5 256 c 0
 674.5 98 545.5 -15 368.5 -15 c 0
 183.5 -15 59.5 98 59.5 256 c 0
370.5 664 m 1
 543.5 860 l 1
 625.5 756 l 1
 426.5 587 l 1
 370.5 664 l 1
159.5 664 m 1
 332.5 860 l 1
 414.5 756 l 1
 215.5 587 l 1
 159.5 664 l 1
EndSplineSet
EndChar

StartChar: OE
Encoding: 338 338 274
Width: 1065
Flags: W
HStem: 0 168<406.077 530 718 1002> 331 165<718 990> 657 168<406.077 530 718 1002>
VStem: 63 203<305.077 519.642> 530 188<168 331 496 657>
LayerCount: 2
Fore
SplineSet
530 657 m 1
 501 657 l 2
 361 657 266 550 266 413 c 0
 266 275 361 168 501 168 c 2
 530 168 l 1
 530 657 l 1
718 660 m 1
 718 496 l 1
 990 496 l 1
 990 331 l 1
 718 331 l 1
 718 165 l 1
 1002 165 l 1
 1002 0 l 1
 479 0 l 2
 252 0 63 171 63 412 c 0
 63 653 252 825 479 825 c 2
 1002 825 l 1
 1002 660 l 1
 718 660 l 1
EndSplineSet
EndChar

StartChar: oe
Encoding: 339 339 275
Width: 1097
Flags: W
HStem: -15 151<295.954 435.163> -15 141<705.708 857.915> 232 98<668 863> 377 151<298.764 433.683> 413 115<698.942 831.051>
VStem: 61 185<185.202 327.551>
LayerCount: 2
Fore
SplineSet
246 256 m 0xb4
 246 186 294 136 366 136 c 0
 435 136 485 186 485 256 c 0
 485 327 432 377 366 377 c 0
 299 377 246 327 246 256 c 0xb4
668 330 m 1
 863 330 l 1
 855 384 818 413 766 413 c 0x2c
 705 413 671 377 668 330 c 1
1035 232 m 1
 663 232 l 1
 663 153 729 126 774 126 c 0
 831 126 856 137 899 183 c 1
 1027 119 l 1
 969 22 875 -15 761 -15 c 0x6c
 641 -15 559 66 559 66 c 1
 559 66 491 -15 364 -15 c 0
 179 -15 61 98 61 256 c 0
 61 416 191 528 364 528 c 0xb4
 487 528 558 446 558 446 c 1
 558 446 632 528 761 528 c 0
 917 528 1036 436 1036 256 c 0
 1036 249 1036 238 1035 232 c 1
EndSplineSet
EndChar

StartChar: Racute
Encoding: 340 340 276
Width: 794
Flags: W
HStem: 0 21G<57.5 245.5 494.4 714.5> 675 150<245.5 384.492>
VStem: 57.5 188<0 306 456 675> 441.5 198<506.668 623.971>
LayerCount: 2
Fore
SplineSet
57.5 825 m 1
 358.5 825 l 1
 557.374023438 820.372070312 639.705078125 697.943359375 639.5 571 c 0
 639.297851562 445.868164062 570.565429688 379.892578125 487.5078125 345.067382812 c 1
 714.5 0 l 1
 507.5 0 l 1
 305.87109375 307.823242188 l 1
 282.970703125 306.46875 262.34375 306.120117188 245.5 306 c 1
 245.5 0 l 1
 57.5 0 l 1
 57.5 825 l 1
245.5 456 m 1
 337 458 441.168945312 468.166992188 441.5 565 c 0
 441.811523438 656 354.5 675 245.5 675 c 1
 245.5 456 l 1
208.5 976 m 1
 411.5 1152 l 1
 502.5 1037 l 1
 264.5 899 l 1
 208.5 976 l 1
EndSplineSet
EndChar

StartChar: racute
Encoding: 341 341 277
Width: 569
Flags: W
HStem: 0 21G<60.5 237.5> 374 154<314.965 441.873> 493 20G<60.5 237.5> 820 20G<330.432 369.326>
VStem: 60.5 177<0 331.421 439 513>
LayerCount: 2
Fore
SplineSet
237.5 513 m 1xb8
 237.5 439 l 1
 237.5 439 295.5 528 396.5 528 c 0
 462.5 528 508.5 496 508.5 496 c 1
 434.5 346 l 1
 434.5 346 401.5 374 342.5 374 c 0xd8
 250.5 374 237.5 283 237.5 270 c 2
 237.5 0 l 1
 60.5 0 l 1
 60.5 513 l 1
 237.5 513 l 1xb8
150.5 664 m 1
 353.5 840 l 1
 444.5 725 l 1
 206.5 587 l 1
 150.5 664 l 1
EndSplineSet
EndChar

StartChar: uni0156
Encoding: 342 342 278
Width: 796
Flags: W
HStem: 0 21G<58.5 246.5 495.4 715.5> 675 150<246.5 385.492>
VStem: 58.5 188<0 306 456 675> 267.5 178<-184.181 -70.982> 442.5 198<506.668 623.971>
LayerCount: 2
Fore
SplineSet
58.5 825 m 1xe8
 359.5 825 l 1
 558.374023438 820.372070312 640.705078125 697.943359375 640.5 571 c 0
 640.297851562 445.868164062 571.565429688 379.892578125 488.5078125 345.067382812 c 1
 715.5 0 l 1
 508.5 0 l 1
 306.87109375 307.823242188 l 1
 283.970703125 306.46875 263.34375 306.120117188 246.5 306 c 1
 246.5 0 l 1
 58.5 0 l 1
 58.5 825 l 1xe8
246.5 456 m 1
 338 458 442.168945312 468.166992188 442.5 565 c 0
 442.811523438 656 355.5 675 246.5 675 c 1
 246.5 456 l 1
355.5 -40 m 0
 405.5 -40 445.5 -80 445.5 -130 c 0
 445.5 -223 378.5 -299 315.5 -351 c 1
 275.5 -320 l 1
 275.5 -320 322.5 -275 334.5 -210 c 1
 296.5 -201 267.5 -170 267.5 -130 c 0xf0
 267.5 -80 307.5 -40 355.5 -40 c 0
EndSplineSet
EndChar

StartChar: uni0157
Encoding: 343 343 279
Width: 573
Flags: W
HStem: 0 21G<62.5 239.5> 374 154<316.965 443.873> 493 20G<62.5 239.5>
VStem: 62.5 177<-184.181 -70.982 0 331.421 439 513>
LayerCount: 2
Fore
SplineSet
150.5 -40 m 0x90
 200.5 -40 240.5 -80 240.5 -130 c 0
 240.5 -223 173.5 -299 110.5 -351 c 1
 70.5 -320 l 1
 70.5 -320 117.5 -275 129.5 -210 c 1
 91.5 -201 62.5 -170 62.5 -130 c 0
 62.5 -80 102.5 -40 150.5 -40 c 0x90
239.5 513 m 1xb0
 239.5 439 l 1
 239.5 439 297.5 528 398.5 528 c 0
 464.5 528 510.5 496 510.5 496 c 1
 436.5 346 l 1
 436.5 346 403.5 374 344.5 374 c 0xd0
 252.5 374 239.5 283 239.5 270 c 2
 239.5 0 l 1
 62.5 0 l 1
 62.5 513 l 1
 239.5 513 l 1xb0
EndSplineSet
EndChar

StartChar: Rcaron
Encoding: 344 344 280
Width: 794
Flags: W
HStem: 0 21G<57.5 245.5 494.4 714.5> 675 150<245.5 384.492>
VStem: 57.5 188<0 306 456 675> 441.5 198<506.668 623.971>
LayerCount: 2
Fore
SplineSet
57.5 825 m 1
 358.5 825 l 1
 557.374023438 820.372070312 639.705078125 697.943359375 639.5 571 c 0
 639.297851562 445.868164062 570.565429688 379.892578125 487.5078125 345.067382812 c 1
 714.5 0 l 1
 507.5 0 l 1
 305.87109375 307.823242188 l 1
 282.970703125 306.46875 262.34375 306.120117188 245.5 306 c 1
 245.5 0 l 1
 57.5 0 l 1
 57.5 825 l 1
245.5 456 m 1
 337 458 441.168945312 468.166992188 441.5 565 c 0
 441.811523438 656 354.5 675 245.5 675 c 1
 245.5 456 l 1
168.5 1152 m 1
 321.5 1040 l 1
 474.5 1152 l 1
 542.5 1061 l 1
 321.5 899 l 1
 100.5 1061 l 1
 168.5 1152 l 1
EndSplineSet
EndChar

StartChar: rcaron
Encoding: 345 345 281
Width: 579
Flags: W
HStem: 0 21G<81.5 258.5> 374 154<335.965 462.873> 493 20G<81.5 258.5> 820 20G<102.555 144.821 396.179 438.445>
VStem: 81.5 177<0 331.421 439 513>
LayerCount: 2
Fore
SplineSet
258.5 513 m 1xb8
 258.5 439 l 1
 258.5 439 316.5 528 417.5 528 c 0
 483.5 528 529.5 496 529.5 496 c 1
 455.5 346 l 1
 455.5 346 422.5 374 363.5 374 c 0xd8
 271.5 374 258.5 283 258.5 270 c 2
 258.5 0 l 1
 81.5 0 l 1
 81.5 513 l 1
 258.5 513 l 1xb8
117.5 840 m 1
 270.5 728 l 1
 423.5 840 l 1
 491.5 749 l 1
 270.5 587 l 1
 49.5 749 l 1
 117.5 840 l 1
EndSplineSet
EndChar

StartChar: Sacute
Encoding: 346 346 282
Width: 726
Flags: W
VStem: 124.5 184<561.263 638.491> 467.5 206<192.369 290.8>
LayerCount: 2
Fore
SplineSet
146.5 252 m 1
 256 175 467.5 117 467.5 240 c 0
 467.5 370.80078125 124.5 399 124.5 588 c 0
 124.5 765 318 950 649.5 762 c 1
 573.5 612 l 1
 450.5 719 308.5 664 308.5 595 c 0
 308.5 504.6171875 673.5 481 673.5 251 c 0
 673.5 54 393 -145 52.5 94 c 1
 146.5 252 l 1
218.5 976 m 1
 421.5 1152 l 1
 512.5 1037 l 1
 274.5 899 l 1
 218.5 976 l 1
EndSplineSet
EndChar

StartChar: sacute
Encoding: 347 347 283
Width: 544
Flags: W
HStem: 820 20G<347.432 386.326>
VStem: 305.5 187<124.339 192.418>
LayerCount: 2
Fore
SplineSet
123.5 175 m 1
 243 85 305.5 119 305.5 153 c 0
 305.5 231 87.5 261.447265625 87.5 363 c 0
 87.5 460 228.5 602 483.5 488 c 1
 425.5 372 l 1
 289.5 434 256.5 397 256.5 373 c 0
 256.5 310.982421875 492.5 283 492.5 160 c 0
 492.5 9 238.5 -87 51.5 54 c 1
 123.5 175 l 1
167.5 664 m 1
 370.5 840 l 1
 461.5 725 l 1
 223.5 587 l 1
 167.5 664 l 1
EndSplineSet
EndChar

StartChar: Scircumflex
Encoding: 348 348 284
Width: 726
Flags: W
VStem: 124.5 184<561.263 638.491> 467.5 206<192.369 290.8>
LayerCount: 2
Fore
SplineSet
146.5 252 m 1
 256 175 467.5 117 467.5 240 c 0
 467.5 370.80078125 124.5 399 124.5 588 c 0
 124.5 765 318 950 649.5 762 c 1
 573.5 612 l 1
 450.5 719 308.5 664 308.5 595 c 0
 308.5 504.6171875 673.5 481 673.5 251 c 0
 673.5 54 393 -145 52.5 94 c 1
 146.5 252 l 1
167.5 975 m 1
 388.5 1137 l 1
 609.5 975 l 1
 541.5 884 l 1
 388.5 996 l 1
 235.5 884 l 1
 167.5 975 l 1
EndSplineSet
EndChar

StartChar: scircumflex
Encoding: 349 349 285
Width: 548
Flags: W
VStem: 305.5 187<124.339 192.418>
LayerCount: 2
Fore
SplineSet
123.5 175 m 1
 243 85 305.5 119 305.5 153 c 0
 305.5 231 87.5 261.447265625 87.5 363 c 0
 87.5 460 228.5 602 483.5 488 c 1
 425.5 372 l 1
 289.5 434 256.5 397 256.5 373 c 0
 256.5 310.982421875 492.5 283 492.5 160 c 0
 492.5 9 238.5 -87 51.5 54 c 1
 123.5 175 l 1
54.5 654 m 1
 275.5 816 l 1
 496.5 654 l 1
 428.5 563 l 1
 275.5 675 l 1
 122.5 563 l 1
 54.5 654 l 1
EndSplineSet
EndChar

StartChar: Scedilla
Encoding: 350 350 286
Width: 726
Flags: W
VStem: 124.5 184<561.263 638.491> 275.5 178<-184.181 -70.982> 467.5 206<192.369 290.8>
LayerCount: 2
Fore
SplineSet
146.5 252 m 1xa0
 256 175 467.5 117 467.5 240 c 0
 467.5 370.80078125 124.5 399 124.5 588 c 0
 124.5 765 318 950 649.5 762 c 1
 573.5 612 l 1
 450.5 719 308.5 664 308.5 595 c 0
 308.5 504.6171875 673.5 481 673.5 251 c 0
 673.5 54 393 -145 52.5 94 c 1
 146.5 252 l 1xa0
363.5 -40 m 0
 413.5 -40 453.5 -80 453.5 -130 c 0
 453.5 -223 386.5 -299 323.5 -351 c 1
 283.5 -320 l 1
 283.5 -320 330.5 -275 342.5 -210 c 1
 304.5 -201 275.5 -170 275.5 -130 c 0x60
 275.5 -80 315.5 -40 363.5 -40 c 0
EndSplineSet
EndChar

StartChar: scedilla
Encoding: 351 351 287
Width: 545
Flags: W
VStem: 185.5 178<-184.181 -70.982> 305.5 187<124.339 192.418>
LayerCount: 2
Fore
SplineSet
123.5 175 m 1x40
 243 85 305.5 119 305.5 153 c 0
 305.5 231 87.5 261.447265625 87.5 363 c 0
 87.5 460 228.5 602 483.5 488 c 1
 425.5 372 l 1
 289.5 434 256.5 397 256.5 373 c 0
 256.5 310.982421875 492.5 283 492.5 160 c 0
 492.5 9 238.5 -87 51.5 54 c 1
 123.5 175 l 1x40
273.5 -40 m 0
 323.5 -40 363.5 -80 363.5 -130 c 0
 363.5 -223 296.5 -299 233.5 -351 c 1
 193.5 -320 l 1
 193.5 -320 240.5 -275 252.5 -210 c 1
 214.5 -201 185.5 -170 185.5 -130 c 0x80
 185.5 -80 225.5 -40 273.5 -40 c 0
EndSplineSet
EndChar

StartChar: Scaron
Encoding: 352 352 288
Width: 726
Flags: W
VStem: 124.5 184<561.263 638.491> 467.5 206<192.369 290.8>
LayerCount: 2
Fore
SplineSet
146.5 252 m 1
 256 175 467.5 117 467.5 240 c 0
 467.5 370.80078125 124.5 399 124.5 588 c 0
 124.5 765 318 950 649.5 762 c 1
 573.5 612 l 1
 450.5 719 308.5 664 308.5 595 c 0
 308.5 504.6171875 673.5 481 673.5 251 c 0
 673.5 54 393 -145 52.5 94 c 1
 146.5 252 l 1
212.5 1152 m 1
 365.5 1040 l 1
 518.5 1152 l 1
 586.5 1061 l 1
 365.5 899 l 1
 144.5 1061 l 1
 212.5 1152 l 1
EndSplineSet
EndChar

StartChar: scaron
Encoding: 353 353 289
Width: 548
Flags: W
HStem: 820 20G<107.055 149.321 400.679 442.945>
VStem: 305.5 187<124.339 192.418>
LayerCount: 2
Fore
SplineSet
123.5 175 m 1
 243 85 305.5 119 305.5 153 c 0
 305.5 231 87.5 261.447265625 87.5 363 c 0
 87.5 460 228.5 602 483.5 488 c 1
 425.5 372 l 1
 289.5 434 256.5 397 256.5 373 c 0
 256.5 310.982421875 492.5 283 492.5 160 c 0
 492.5 9 238.5 -87 51.5 54 c 1
 123.5 175 l 1
122 840 m 1
 275 728 l 1
 428 840 l 1
 496 749 l 1
 275 587 l 1
 54 749 l 1
 122 840 l 1
EndSplineSet
EndChar

StartChar: uni0162
Encoding: 354 354 290
Width: 682
Flags: W
HStem: 0 21G<247 435> 660 165<51 247 435 631>
VStem: 253 178<-184.181 -70.982 0 660>
LayerCount: 2
Fore
SplineSet
51 660 m 1
 51 825 l 1
 631 825 l 1
 631 660 l 1
 435 660 l 1
 435 0 l 1
 247 0 l 1
 247 660 l 1
 51 660 l 1
341 -40 m 0
 391 -40 431 -80 431 -130 c 0
 431 -223 364 -299 301 -351 c 1
 261 -320 l 1
 261 -320 308 -275 320 -210 c 1
 282 -201 253 -170 253 -130 c 0
 253 -80 293 -40 341 -40 c 0
EndSplineSet
EndChar

StartChar: uni0163
Encoding: 355 355 291
Width: 487
Flags: W
HStem: -15 159<232.5 394.317> 378 135<54 128 305 413>
VStem: 128 177<150.794 378 513 704> 145 178<-184.181 -70.982>
LayerCount: 2
Fore
SplineSet
128 513 m 1xe0
 128 704 l 1
 305 704 l 1
 305 513 l 1
 413 513 l 1
 413 378 l 1
 305 378 l 1
 305 215 l 2
 305 167 317 144 345 144 c 0
 368 144 389 160 389 160 c 1
 433 17 l 1
 433 17 376 -15 303 -15 c 0
 162 -15 128 90 128 181 c 2
 128 378 l 1
 54 378 l 1
 54 513 l 1
 128 513 l 1xe0
233 -40 m 0
 283 -40 323 -80 323 -130 c 0
 323 -223 256 -299 193 -351 c 1
 153 -320 l 1
 153 -320 200 -275 212 -210 c 1
 174 -201 145 -170 145 -130 c 0xd0
 145 -80 185 -40 233 -40 c 0
EndSplineSet
EndChar

StartChar: Tcaron
Encoding: 356 356 292
Width: 885
Flags: W
HStem: 0 21G<244 432> 660 165<48 244 432 628>
VStem: 244 188<0 660> 659 178<793.819 907.018>
LayerCount: 2
Fore
SplineSet
48 660 m 1
 48 825 l 1
 628 825 l 1
 628 660 l 1
 432 660 l 1
 432 0 l 1
 244 0 l 1
 244 660 l 1
 48 660 l 1
747 938 m 0
 797 938 837 898 837 848 c 0
 837 755 770 679 707 627 c 1
 667 658 l 1
 667 658 714 703 726 768 c 1
 688 777 659 808 659 848 c 0
 659 898 699 938 747 938 c 0
EndSplineSet
EndChar

StartChar: tcaron
Encoding: 357 357 293
Width: 656
Flags: W
HStem: -15 159<231.5 393.317> 378 135<53 127 304 412> 513 21G<447.194 504.5>
VStem: 127 177<150.794 378 513 704> 425 178<679.819 793.018>
LayerCount: 2
Fore
SplineSet
127 513 m 1xd8
 127 704 l 1
 304 704 l 1
 304 513 l 1
 412 513 l 1
 412 378 l 1
 304 378 l 1
 304 215 l 2
 304 167 316 144 344 144 c 0
 367 144 388 160 388 160 c 1
 432 17 l 1
 432 17 375 -15 302 -15 c 0
 161 -15 127 90 127 181 c 2
 127 378 l 1
 53 378 l 1
 53 513 l 1
 127 513 l 1xd8
513 824 m 0
 563 824 603 784 603 734 c 0
 603 641 536 565 473 513 c 1xb8
 433 544 l 1
 433 544 480 589 492 654 c 1
 454 663 425 694 425 734 c 0
 425 784 465 824 513 824 c 0
EndSplineSet
EndChar

StartChar: Tbar
Encoding: 358 358 294
Width: 682
Flags: W
HStem: 0 21G<247 435> 337.5 177<120.375 247 435 571.125> 660 165<51 247 435 631>
VStem: 247 188<0 337.5 514.5 660>
LayerCount: 2
Fore
SplineSet
51 660 m 1
 51 825 l 1
 631 825 l 1
 631 660 l 1
 435 660 l 1
 435 514.5 l 1
 571.125 514.5 l 1
 571.125 337.5 l 1
 435 337.5 l 1
 435 0 l 1
 247 0 l 1
 247 337.5 l 1
 120.375 337.5 l 1
 120.375 514.5 l 1
 247 514.5 l 1
 247 660 l 1
 51 660 l 1
EndSplineSet
EndChar

StartChar: tbar
Encoding: 359 359 295
Width: 499
Flags: W
HStem: -15 159<238.5 400.317> 236.36 113.279<60.7188 134 311 418.781> 411 135<60 134 311 419>
VStem: 60 359<236.36 349.64 411 546> 134 177<150.794 236.36 349.64 411 546 704>
LayerCount: 2
Fore
SplineSet
134 546 m 1xe8
 134 704 l 1
 311 704 l 1
 311 546 l 1xe8
 419 546 l 1
 419 411 l 1xf0
 311 411 l 1
 311 349.639648438 l 1
 418.78125 349.639648438 l 1
 418.78125 236.360351562 l 1
 311 236.360351562 l 1
 311 215 l 2
 311 167 323 144 351 144 c 0
 374 144 395 160 395 160 c 1
 439 17 l 1
 439 17 382 -15 309 -15 c 0
 168 -15 134 90 134 181 c 2
 134 236.360351562 l 1
 60.71875 236.360351562 l 1
 60.71875 349.639648438 l 1
 134 349.639648438 l 1
 134 411 l 1xe8
 60 411 l 1
 60 546 l 1xf0
 134 546 l 1xe8
EndSplineSet
EndChar

StartChar: Utilde
Encoding: 360 360 296
Width: 785
Flags: W
HStem: -15 185<308.429 476.571> 805 20G<70.5 258.5 526.5 714.5> 905 126<399.215 509.232> 951 126<275.768 385.785>
VStem: 70.5 188<229.657 825> 526.5 188<229.657 825>
LayerCount: 2
Fore
SplineSet
526.5 825 m 1xcc
 714.5 825 l 1
 714.5 293 l 2
 714.5 89 602.5 -15 392.5 -15 c 0
 182.5 -15 70.5 89 70.5 293 c 2
 70.5 825 l 1
 258.5 825 l 1
 258.5 348 l 2
 258.5 210 300.5 170 392.5 170 c 0
 484.5 170 526.5 210 526.5 348 c 2
 526.5 825 l 1xcc
383.5 932 m 1
 383.5 932 343.5 951 307.5 951 c 0xdc
 275.5 951 262.5 905 262.5 905 c 1
 161.5 905 l 1xec
 161.5 905 187.5 1077 297.5 1077 c 0xdc
 336.5 1077 401.5 1050 401.5 1050 c 1
 401.5 1050 441.5 1031 477.5 1031 c 0xec
 509.5 1031 522.5 1077 522.5 1077 c 1
 623.5 1077 l 1xdc
 623.5 1077 597.5 905 487.5 905 c 0xec
 448.5 905 383.5 932 383.5 932 c 1
EndSplineSet
EndChar

StartChar: utilde
Encoding: 361 361 297
Width: 694
Flags: W
HStem: -15 144<279.336 414.664> 493 20G<69 246 448 625> 605 126<355.715 465.732> 651 126<232.268 342.285>
VStem: 69 177<166.262 513> 448 177<166.262 513>
LayerCount: 2
Fore
SplineSet
69 513 m 1xcc
 246 513 l 1
 246 269 l 2
 246 168 273 129 347 129 c 0
 421 129 448 168 448 269 c 2
 448 513 l 1
 625 513 l 1
 625 226 l 2
 625 54 539 -15 347 -15 c 0
 155 -15 69 54 69 226 c 2
 69 513 l 1xcc
340 632 m 1
 340 632 300 651 264 651 c 0xdc
 232 651 219 605 219 605 c 1
 118 605 l 1xec
 118 605 144 777 254 777 c 0xdc
 293 777 358 750 358 750 c 1
 358 750 398 731 434 731 c 0xec
 466 731 479 777 479 777 c 1
 580 777 l 1xdc
 580 777 554 605 444 605 c 0xec
 405 605 340 632 340 632 c 1
EndSplineSet
EndChar

StartChar: Umacron
Encoding: 362 362 298
Width: 785
Flags: W
HStem: -15 185<308.429 476.571> 805 20G<70.5 258.5 526.5 714.5> 946 120<188.5 596.5>
VStem: 70.5 188<229.657 825> 526.5 188<229.657 825>
LayerCount: 2
Fore
SplineSet
526.5 825 m 1
 714.5 825 l 1
 714.5 293 l 2
 714.5 89 602.5 -15 392.5 -15 c 0
 182.5 -15 70.5 89 70.5 293 c 2
 70.5 825 l 1
 258.5 825 l 1
 258.5 348 l 2
 258.5 210 300.5 170 392.5 170 c 0
 484.5 170 526.5 210 526.5 348 c 2
 526.5 825 l 1
188.5 1066 m 1
 596.5 1066 l 1
 596.5 946 l 1
 188.5 946 l 1
 188.5 1066 l 1
EndSplineSet
EndChar

StartChar: umacron
Encoding: 363 363 299
Width: 694
Flags: W
HStem: -15 144<279.336 414.664> 493 20G<69 246 448 625> 634 120<143 551>
VStem: 69 177<166.262 513> 448 177<166.262 513>
LayerCount: 2
Fore
SplineSet
69 513 m 1
 246 513 l 1
 246 269 l 2
 246 168 273 129 347 129 c 0
 421 129 448 168 448 269 c 2
 448 513 l 1
 625 513 l 1
 625 226 l 2
 625 54 539 -15 347 -15 c 0
 155 -15 69 54 69 226 c 2
 69 513 l 1
143 754 m 1
 551 754 l 1
 551 634 l 1
 143 634 l 1
 143 754 l 1
EndSplineSet
EndChar

StartChar: Ubreve
Encoding: 364 364 300
Width: 785
Flags: W
HStem: -15 185<308.429 476.571> 805 20G<70.5 258.5 526.5 714.5> 892 109<329.241 455.759>
VStem: 70.5 188<229.657 825> 526.5 188<229.657 825>
LayerCount: 2
Fore
SplineSet
526.5 825 m 1
 714.5 825 l 1
 714.5 293 l 2
 714.5 89 602.5 -15 392.5 -15 c 0
 182.5 -15 70.5 89 70.5 293 c 2
 70.5 825 l 1
 258.5 825 l 1
 258.5 348 l 2
 258.5 210 300.5 170 392.5 170 c 0
 484.5 170 526.5 210 526.5 348 c 2
 526.5 825 l 1
497.5 1104 m 1
 623.5 1073 l 1
 611.5 966 521.5 892 392.5 892 c 0
 263.5 892 173.5 966 161.5 1073 c 1
 287.5 1104 l 1
 287.5 1104 298.5 1001 392.5 1001 c 0
 486.5 1001 497.5 1104 497.5 1104 c 1
EndSplineSet
EndChar

StartChar: ubreve
Encoding: 365 365 301
Width: 692
Flags: W
HStem: -15 144<278.336 413.664> 493 20G<68 245 447 624> 576 109<281.741 408.259>
VStem: 68 177<166.262 513> 447 177<166.262 513>
LayerCount: 2
Fore
SplineSet
68 513 m 1
 245 513 l 1
 245 269 l 2
 245 168 272 129 346 129 c 0
 420 129 447 168 447 269 c 2
 447 513 l 1
 624 513 l 1
 624 226 l 2
 624 54 538 -15 346 -15 c 0
 154 -15 68 54 68 226 c 2
 68 513 l 1
450 788 m 1
 576 757 l 1
 564 650 474 576 345 576 c 0
 216 576 126 650 114 757 c 1
 240 788 l 1
 240 788 251 685 345 685 c 0
 439 685 450 788 450 788 c 1
EndSplineSet
EndChar

StartChar: Uring
Encoding: 366 366 302
Width: 785
Flags: W
HStem: -15 185<308.429 476.571> 805 20G<70.5 258.5 526.5 714.5> 902 79<346.229 438.243> 1107 80<347.324 438.021>
VStem: 70.5 188<229.657 825> 231.5 100<996.459 1092.06> 453.5 100<996.459 1092.06> 526.5 188<229.657 825>
LayerCount: 2
Fore
SplineSet
714.5 825 m 1xf9
 714.5 293 l 2
 714.5 89 602.5 -15 392.5 -15 c 0
 182.5 -15 70.5 89 70.5 293 c 2
 70.5 825 l 1
 258.5 825 l 1
 258.5 348 l 2
 258.5 210 300.5 170 392.5 170 c 0
 484.5 170 526.5 210 526.5 348 c 2
 526.5 825 l 1
 714.5 825 l 1xf9
331.5 1045 m 0xf6
 331.5 1010 356.5 981 392.5 981 c 0
 427.5 981 453.5 1010 453.5 1045 c 0
 453.5 1079 426.5 1107 392.5 1107 c 0
 359.5 1107 331.5 1079 331.5 1045 c 0xf6
231.5 1045 m 0
 231.5 1128 302.5 1187 392.5 1187 c 0
 483.5 1187 553.5 1128 553.5 1045 c 0
 553.5 961 486.5 902 392.5 902 c 0
 296.5 902 231.5 961 231.5 1045 c 0
EndSplineSet
EndChar

StartChar: uring
Encoding: 367 367 303
Width: 692
Flags: W
HStem: -15 144<278.336 413.664> 493 20G<68 245 447 624> 590 79<299.729 391.743> 795 80<300.824 391.521>
VStem: 68 177<166.262 513> 185 100<684.459 780.057> 407 100<684.459 780.057> 447 177<166.262 513>
LayerCount: 2
Fore
SplineSet
245 513 m 1xf9
 245 269 l 2
 245 168 272 129 346 129 c 0
 420 129 447 168 447 269 c 2
 447 513 l 1
 624 513 l 1
 624 226 l 2
 624 54 538 -15 346 -15 c 0
 154 -15 68 54 68 226 c 2
 68 513 l 1
 245 513 l 1xf9
285 733 m 0xf6
 285 698 310 669 346 669 c 0
 381 669 407 698 407 733 c 0
 407 767 380 795 346 795 c 0
 313 795 285 767 285 733 c 0xf6
185 733 m 0
 185 816 256 875 346 875 c 0
 437 875 507 816 507 733 c 0
 507 649 440 590 346 590 c 0
 250 590 185 649 185 733 c 0
EndSplineSet
EndChar

StartChar: Uhungarumlaut
Encoding: 368 368 304
Width: 785
Flags: W
HStem: -15 185<308.429 476.571> 805 20G<70.5 258.5 526.5 714.5>
VStem: 70.5 188<229.657 825> 526.5 188<229.657 825>
LayerCount: 2
Fore
SplineSet
526.5 825 m 1
 714.5 825 l 1
 714.5 293 l 2
 714.5 89 602.5 -15 392.5 -15 c 0
 182.5 -15 70.5 89 70.5 293 c 2
 70.5 825 l 1
 258.5 825 l 1
 258.5 348 l 2
 258.5 210 300.5 170 392.5 170 c 0
 484.5 170 526.5 210 526.5 348 c 2
 526.5 825 l 1
396.5 976 m 1
 569.5 1172 l 1
 651.5 1068 l 1
 452.5 899 l 1
 396.5 976 l 1
185.5 976 m 1
 358.5 1172 l 1
 440.5 1068 l 1
 241.5 899 l 1
 185.5 976 l 1
EndSplineSet
EndChar

StartChar: uhungarumlaut
Encoding: 369 369 305
Width: 692
Flags: W
HStem: -15 144<278.336 413.664> 493 20G<68 245 447 624>
VStem: 68 177<166.262 513> 447 177<166.262 513>
LayerCount: 2
Fore
SplineSet
68 513 m 1
 245 513 l 1
 245 269 l 2
 245 168 272 129 346 129 c 0
 420 129 447 168 447 269 c 2
 447 513 l 1
 624 513 l 1
 624 226 l 2
 624 54 538 -15 346 -15 c 0
 154 -15 68 54 68 226 c 2
 68 513 l 1
350 664 m 1
 523 860 l 1
 605 756 l 1
 406 587 l 1
 350 664 l 1
139 664 m 1
 312 860 l 1
 394 756 l 1
 195 587 l 1
 139 664 l 1
EndSplineSet
EndChar

StartChar: Uogonek
Encoding: 370 370 306
Width: 785
Flags: W
HStem: -275 96<393.038 469.122> 805 20G<70.5 258.5 526.5 714.5>
VStem: 70.5 188<225.219 825> 285.5 103<-174.514 -84.3275> 526.5 188<226.162 825>
LayerCount: 2
Fore
SplineSet
285.5 -158 m 0
 285.5 -108 324.5 -51 354.5 -13 c 1
 168.5 -1 70.5 101 70.5 293 c 2
 70.5 825 l 1
 258.5 825 l 1
 258.5 348 l 2
 258.5 210 300.5 170 392.5 170 c 0
 484.5 170 526.5 210 526.5 348 c 2
 526.5 825 l 1
 714.5 825 l 1
 714.5 293 l 2
 714.5 104 618.5 1 437.5 -13 c 1
 420.5 -36 388.5 -88 388.5 -140 c 0
 388.5 -165 408.5 -179 425.5 -179 c 0
 456.5 -179 476.5 -149 476.5 -149 c 1
 548.5 -203 l 1
 548.5 -203 503.5 -275 411.5 -275 c 0
 359.5 -275 285.5 -245 285.5 -158 c 0
EndSplineSet
EndChar

StartChar: uogonek
Encoding: 371 371 307
Width: 694
Flags: W
HStem: -275 96<347.538 423.622> 493 20G<69 246 448 625>
VStem: 69 177<163.705 513> 240 103<-174.514 -83.767> 448 177<164.43 513>
LayerCount: 2
Fore
SplineSet
240 -158 m 0xd8
 240 -108 278 -51 309 -14 c 1
 143 -5 69 66 69 226 c 2
 69 513 l 1
 246 513 l 1
 246 269 l 2xe8
 246 168 273 129 347 129 c 0
 421 129 448 168 448 269 c 2
 448 513 l 1
 625 513 l 1
 625 226 l 2
 625 68 552 -3 391 -14 c 1
 374 -38 343 -89 343 -140 c 0
 343 -165 363 -179 380 -179 c 0
 411 -179 431 -149 431 -149 c 1
 503 -203 l 1
 503 -203 458 -275 366 -275 c 0
 314 -275 240 -245 240 -158 c 0xd8
EndSplineSet
EndChar

StartChar: Wcircumflex
Encoding: 372 372 308
Width: 1238
Flags: W
HStem: 0 21G<272.803 493.202 745.798 965.197> 805 20G<43.5 257.482 543.2 695.8 981.518 1194.5>
LayerCount: 2
Fore
SplineSet
751.5 0 m 1
 619.5 463 l 1
 487.5 0 l 1
 278.5 0 l 1
 43.5 825 l 1
 252.5 825 l 1
 393.5 259 l 1
 398.5 259 l 1
 548.5 825 l 1
 690.5 825 l 1
 840.5 259 l 1
 845.5 259 l 1
 986.5 825 l 1
 1194.5 825 l 1
 959.5 0 l 1
 751.5 0 l 1
393.5 941 m 1
 614.5 1103 l 1
 835.5 941 l 1
 767.5 850 l 1
 614.5 962 l 1
 461.5 850 l 1
 393.5 941 l 1
EndSplineSet
EndChar

StartChar: wcircumflex
Encoding: 373 373 309
Width: 1120
Flags: W
HStem: 0 21G<311.279 450.906 669.094 808.721> 493 20G<47 260.025 490.119 629.881 859.975 1073>
LayerCount: 2
Fore
SplineSet
442 0 m 1
 322 0 l 1
 47 513 l 1
 251 513 l 1
 376 236 l 1
 499 513 l 1
 621 513 l 1
 744 236 l 1
 869 513 l 1
 1073 513 l 1
 798 0 l 1
 678 0 l 1
 560 265 l 1
 442 0 l 1
330 649 m 1
 551 811 l 1
 772 649 l 1
 704 558 l 1
 551 670 l 1
 398 558 l 1
 330 649 l 1
EndSplineSet
EndChar

StartChar: Ycircumflex
Encoding: 374 374 310
Width: 879
Flags: W
HStem: 0 21G<345.5 533.5> 805 20G<41.5 280.53 598.47 837.5>
VStem: 345.5 188<0 370>
LayerCount: 2
Fore
SplineSet
41.5 825 m 1
 267.5 825 l 1
 439.5 561 l 1
 611.5 825 l 1
 837.5 825 l 1
 533.5 370 l 1
 533.5 0 l 1
 345.5 0 l 1
 345.5 370 l 1
 41.5 825 l 1
221.5 962 m 1
 442.5 1124 l 1
 663.5 962 l 1
 595.5 871 l 1
 442.5 983 l 1
 289.5 871 l 1
 221.5 962 l 1
EndSplineSet
EndChar

StartChar: ycircumflex
Encoding: 375 375 311
Width: 765
Flags: W
HStem: -260 21G<112 326.427> 493 20G<46 260.875 505.722 719>
LayerCount: 2
Fore
SplineSet
515 513 m 1
 719 513 l 1
 316 -260 l 1
 112 -260 l 1
 289 80 l 1
 46 513 l 1
 250 513 l 1
 393 250 l 1
 515 513 l 1
161 662 m 1
 382 824 l 1
 603 662 l 1
 535 571 l 1
 382 683 l 1
 229 571 l 1
 161 662 l 1
EndSplineSet
EndChar

StartChar: Ydieresis
Encoding: 376 376 312
Width: 879
Flags: W
HStem: 0 21G<345.5 533.5> 805 20G<41.5 280.53 598.47 837.5> 919 184<261.901 379.099 498.901 616.099>
VStem: 228.5 184<952.401 1069.6> 345.5 188<0 370> 465.5 184<952.401 1069.6>
LayerCount: 2
Fore
SplineSet
41.5 825 m 1xe8
 267.5 825 l 1
 439.5 561 l 1
 611.5 825 l 1
 837.5 825 l 1
 533.5 370 l 1
 533.5 0 l 1
 345.5 0 l 1
 345.5 370 l 1
 41.5 825 l 1xe8
557.5 1103 m 0
 608.5 1103 649.5 1062 649.5 1011 c 0
 649.5 960 608.5 919 557.5 919 c 0
 506.5 919 465.5 960 465.5 1011 c 0xe4
 465.5 1062 506.5 1103 557.5 1103 c 0
320.5 1103 m 0
 371.5 1103 412.5 1062 412.5 1011 c 0
 412.5 960 371.5 919 320.5 919 c 0
 269.5 919 228.5 960 228.5 1011 c 0xf0
 228.5 1062 269.5 1103 320.5 1103 c 0
EndSplineSet
EndChar

StartChar: Zacute
Encoding: 377 377 313
Width: 827
Flags: W
HStem: 0 165<373 755> 660 165<103 453>
LayerCount: 2
Fore
SplineSet
782 825 m 1
 373 165 l 1
 755 165 l 1
 755 0 l 1
 45 0 l 1
 453 660 l 1
 103 660 l 1
 103 825 l 1
 782 825 l 1
266 976 m 1
 469 1152 l 1
 560 1037 l 1
 322 899 l 1
 266 976 l 1
EndSplineSet
EndChar

StartChar: zacute
Encoding: 378 378 314
Width: 644
Flags: W
HStem: 0 135<343.5 577.5> 378 135<88.5 300.5> 820 20G<411.432 450.326>
LayerCount: 2
Fore
SplineSet
597.5 513 m 1
 343.5 135 l 1
 577.5 135 l 1
 577.5 0 l 1
 46.5 0 l 1
 300.5 378 l 1
 88.5 378 l 1
 88.5 513 l 1
 597.5 513 l 1
231.5 664 m 1
 434.5 840 l 1
 525.5 725 l 1
 287.5 587 l 1
 231.5 664 l 1
EndSplineSet
EndChar

StartChar: Zdotaccent
Encoding: 379 379 315
Width: 827
Flags: W
HStem: 0 165<373 755> 660 165<103 453> 919 184<354.401 471.599>
VStem: 321 184<952.401 1069.6>
LayerCount: 2
Fore
SplineSet
782 825 m 1
 373 165 l 1
 755 165 l 1
 755 0 l 1
 45 0 l 1
 453 660 l 1
 103 660 l 1
 103 825 l 1
 782 825 l 1
413 1103 m 0
 464 1103 505 1062 505 1011 c 0
 505 960 464 919 413 919 c 0
 362 919 321 960 321 1011 c 0
 321 1062 362 1103 413 1103 c 0
EndSplineSet
EndChar

StartChar: zdotaccent
Encoding: 380 380 316
Width: 645
Flags: W
HStem: 0 135<344 578> 378 135<89 301> 607 184<263.401 380.599>
VStem: 230 184<640.401 757.599>
LayerCount: 2
Fore
SplineSet
598 513 m 1
 344 135 l 1
 578 135 l 1
 578 0 l 1
 47 0 l 1
 301 378 l 1
 89 378 l 1
 89 513 l 1
 598 513 l 1
322 791 m 0
 373 791 414 750 414 699 c 0
 414 648 373 607 322 607 c 0
 271 607 230 648 230 699 c 0
 230 750 271 791 322 791 c 0
EndSplineSet
EndChar

StartChar: Zcaron
Encoding: 381 381 317
Width: 827
Flags: W
HStem: 0 165<373 755> 660 165<103 453>
LayerCount: 2
Fore
SplineSet
782 825 m 1
 373 165 l 1
 755 165 l 1
 755 0 l 1
 45 0 l 1
 453 660 l 1
 103 660 l 1
 103 825 l 1
 782 825 l 1
260 1152 m 1
 413 1040 l 1
 566 1152 l 1
 634 1061 l 1
 413 899 l 1
 192 1061 l 1
 260 1152 l 1
EndSplineSet
EndChar

StartChar: zcaron
Encoding: 382 382 318
Width: 644
Flags: W
HStem: 0 135<343.5 577.5> 378 135<88.5 300.5> 820 20G<154.555 196.821 448.179 490.445>
LayerCount: 2
Fore
SplineSet
597.5 513 m 1
 343.5 135 l 1
 577.5 135 l 1
 577.5 0 l 1
 46.5 0 l 1
 300.5 378 l 1
 88.5 378 l 1
 88.5 513 l 1
 597.5 513 l 1
169.5 840 m 1
 322.5 728 l 1
 475.5 840 l 1
 543.5 749 l 1
 322.5 587 l 1
 101.5 749 l 1
 169.5 840 l 1
EndSplineSet
EndChar

StartChar: longs
Encoding: 383 383 319
Width: 642
Flags: W
HStem: 0 21G<183.5 360.5> 468 135<50.5 183.5> 740 120<360.5 591.5>
VStem: 183.5 177<0 468 603 740>
LayerCount: 2
Fore
SplineSet
591.5 860 m 1
 591.5 740 l 1
 360.5 740 l 1
 360.5 0 l 1
 183.5 0 l 1
 183.5 468 l 1
 50.5 468 l 1
 50.5 603 l 1
 183.5 603 l 1
 183.5 860 l 1
 591.5 860 l 1
EndSplineSet
EndChar

StartChar: uni0180
Encoding: 384 384 320
Width: 774
Flags: W
HStem: -15 151<369.811 484.943> 0 21G<123.5 298.5> 377 148.995<345.613 482.429> 628 114<50 123.5 300.174 425>
VStem: 123.5 175<0 58 181.804 329.02 525.995 628 742 860> 535.5 188<186.537 325.882>
LayerCount: 2
Fore
SplineSet
123.5 0 m 1x7c
 123.5 628 l 1
 50 628 l 1
 50 742 l 1
 123.5 742 l 1
 123.5 860 l 1
 300.5 860 l 1
 300.173828125 742 l 1
 425 742 l 1
 425 628 l 1
 299.859375 628 l 1
 299.577148438 525.995117188 l 1
 368.529296875 530.491210938 438.296875 528 468.5 528 c 0
 618.5 528 723.5 406 723.5 256 c 0
 723.5 106 618.5 -15 468.5 -15 c 0xbc
 398.5 -15 336.5 16 298.5 58 c 1
 298.5 0 l 1
 123.5 0 l 1x7c
535.5 256 m 0
 535.5 327 482.5 377 415.5 377 c 0
 357.743164062 377 309.94140625 338.708984375 298.90234375 281.5625 c 1
 298.76171875 230.860351562 l 1
 309.235351562 174.333007812 355.083984375 136 415.5 136 c 0
 487.5 136 535.5 186 535.5 256 c 0
EndSplineSet
EndChar

StartChar: uni0181
Encoding: 385 385 321
Width: 761
Flags: W
HStem: 0 145<314 470.212> 340 162<314 421.875> 680 145<314 421.079>
VStem: 126 188<145 340 502 510> 454 182<532.232 650.796> 511 198<179.319 303.447>
LayerCount: 2
Fore
SplineSet
314 145 m 1xf4
 373 145 l 2
 462 145 511 172 511 237 c 0
 511 313 462 340 373 340 c 2
 314 340 l 1
 314 145 l 1xf4
314 502 m 1
 329 502 l 2
 410 502 454 527 454 596 c 0xf8
 454 655 411 680 329 680 c 2
 314 680 l 1
 314 502 l 1
126 825 m 1
 382 825 l 2
 524 825 636 772 636 615 c 0xf8
 636 539 603 474 533 438 c 1
 636 420 709 363 709 230 c 0xf4
 709 94 610 0 439 0 c 2
 126 0 l 1
 126 510 l 1
 52 635 l 1
 126 825 l 1
EndSplineSet
EndChar

StartChar: uni0182
Encoding: 386 386 322
Width: 719
Flags: W
HStem: 0 150<256 405.963> 369 150<256 405.963> 740 120<256 454>
VStem: 68 188<150 369 519 740> 453 198<194.231 323.023>
LayerCount: 2
Fore
SplineSet
256 369 m 1
 256 150 l 1
 309 150 l 2
 383 150 453 175 453 260 c 0
 453 344 383 369 309 369 c 2
 256 369 l 1
68 860 m 1
 454 860 l 1
 454 740 l 1
 256 740 l 1
 256 519 l 1
 369 519 l 2
 530 519 651 424 651 254 c 0
 651 83 530 0 369 0 c 2
 68 0 l 1
 68 860 l 1
EndSplineSet
EndChar

StartChar: uni0183
Encoding: 387 387 323
Width: 736
Flags: W
HStem: -15 151<314.311 429.443> 0 21G<68 243> 377 151<290.113 426.929> 740 120<244.668 454>
VStem: 68 175<0 58 181.804 329.02 525.995 740> 480 188<186.537 325.882>
LayerCount: 2
Fore
SplineSet
480 256 m 0xbc
 480 327 427 377 360 377 c 0
 302.243164062 377 254.44140625 338.708984375 243.40234375 281.5625 c 1
 243.26171875 230.860351562 l 1
 253.735351562 174.333007812 299.583984375 136 360 136 c 0
 432 136 480 186 480 256 c 0xbc
68 0 m 1x7c
 68 860 l 1
 454 860 l 1
 454 740 l 1
 244.66796875 740 l 1
 244.077148438 525.995117188 l 1
 313.029296875 530.491210938 382.796875 528 413 528 c 0
 563 528 668 406 668 256 c 0
 668 106 563 -15 413 -15 c 0xbc
 343 -15 281 16 243 58 c 1
 243 0 l 1
 68 0 l 1x7c
EndSplineSet
EndChar

StartChar: uni0184
Encoding: 388 388 324
Width: 764
Flags: W
HStem: 0 150<316.5 466.463> 369 150<316.5 466.463> 805 20G<120.5 316.5>
VStem: 128.5 188<150 369> 513.5 198<194.231 323.023>
LayerCount: 2
Fore
SplineSet
316.5 369 m 1
 316.5 150 l 1
 369.5 150 l 2
 443.5 150 513.5 175 513.5 260 c 0
 513.5 344 443.5 369 369.5 369 c 2
 316.5 369 l 1
128.5 0 m 1
 128.5 510 l 1
 52.5 635 l 1
 128.5 825 l 1
 316.5 825 l 1
 316.5 519 l 1
 429.5 519 l 2
 590.5 519 711.5 424 711.5 254 c 0
 711.5 83 590.5 0 429.5 0 c 2
 128.5 0 l 1
EndSplineSet
EndChar

StartChar: uni0185
Encoding: 389 389 325
Width: 782
Flags: W
HStem: -15 151<374.351 490.443> -0.000976562 21G<129 304> 377 151<351.556 487.929>
VStem: 129 175<0 57.8516 181.087 329.693> 541 188<186.537 325.882>
LayerCount: 2
Fore
SplineSet
541 256 m 0xb8
 541 327 488 377 421 377 c 0
 363.677734375 377 316.161132812 339.283203125 304.657226562 282.849609375 c 1
 304.533203125 229.4375 l 1
 315.5078125 173.690429688 361.091796875 136 421 136 c 0
 493 136 541 186 541 256 c 0xb8
304 0 m 1
 129 -0.0009765625 l 1x78
 129 510.999023438 l 1
 53 633.999023438 l 1
 129 859.999023438 l 1
 306 859.999023438 l 1
 305.223632812 526.00390625 l 1
 374.127929688 530.487304688 443.818359375 528 474 528 c 0
 624 528 729 406 729 256 c 0
 729 106 624 -15 474 -15 c 0
 404.083007812 -15 342.146484375 15.9267578125 304.134765625 57.8515625 c 1
 304 0 l 1
EndSplineSet
EndChar

StartChar: uni0186
Encoding: 390 390 326
Width: 798
Flags: W
HStem: -15 185<140.002 380.911> 655 185<140.002 381.055>
VStem: 537.5 204<316.166 507.757>
LayerCount: 2
Fore
SplineSet
56.5 25 m 1
 96.5 210 l 1
 96.5 210 169.5 170 265.5 170 c 0
 454.5 170 537.5 302 537.5 413 c 0
 537.5 523 454.5 655 265.5 655 c 0
 169.5 655 96.5 615 96.5 615 c 1
 56.5 800 l 1
 56.5 800 115.5 840 294.5 840 c 0
 528.5 840 741.5 648 741.5 411 c 0
 741.5 175 527.5 -15 294.5 -15 c 0
 115.5 -15 56.5 25 56.5 25 c 1
EndSplineSet
EndChar

StartChar: uni0187
Encoding: 391 391 327
Width: 798
Flags: W
HStem: -15 185<417.089 657.998> 655 185<416.945 657.998>
VStem: 56.5 204<316.166 507.757>
LayerCount: 2
Fore
SplineSet
741.5 25 m 1
 741.5 25 682.5 -15 503.5 -15 c 0
 270.5 -15 56.5 175 56.5 411 c 0
 56.5 648 269.5 840 503.5 840 c 0
 682.5 840 741.5 800 741.5 800 c 1
 793.19921875 860 836.099609375 885 857 864 c 1
 857 774 l 1
 844.65625 794.572265625 790.920898438 818.4375 732.038085938 756.239257812 c 1
 701.5 615 l 1
 701.5 615 628.5 655 532.5 655 c 0
 343.5 655 260.5 523 260.5 413 c 0
 260.5 302 343.5 170 532.5 170 c 0
 628.5 170 701.5 210 701.5 210 c 1
 741.5 25 l 1
EndSplineSet
EndChar

StartChar: uni0188
Encoding: 392 392 328
Width: 572
Flags: W
HStem: -15 145<300.374 459.309> 383 145<300.259 457.897>
VStem: 58 188<186.422 325.466>
LayerCount: 2
Fore
SplineSet
513.9921875 479.984375 m 1
 513.9921875 479.984375 608.600585938 565 629.500976562 544 c 1
 629.500976562 454 l 1
 618.041015625 473.098632812 556.54296875 496.642578125 499.642578125 451.046875 c 1
 454 359 l 1
 454 359 421 383 368 383 c 0
 301 383 246 327 246 257 c 0
 246 186 301 130 368 130 c 0
 421 130 454 154 454 154 c 1
 514 31 l 1
 514 31 456 -15 342 -15 c 0
 194 -15 58 105 58 255 c 0
 58 406 193 528 342 528 c 0
 456 528 513.9921875 479.984375 513.9921875 479.984375 c 1
EndSplineSet
EndChar

StartChar: uni0189
Encoding: 393 393 329
Width: 855
Flags: W
HStem: 0 168<329 462.575> 336 153<59 141 329 438> 657 168<329 462.575>
VStem: 141 188<168 336 489 657> 595 201<293.486 531.414>
CounterMasks: 1 e0
LayerCount: 2
Fore
SplineSet
141 489 m 1
 141 825 l 1
 380 825 l 2
 606 825 796 653 796 413 c 0
 796 172 607 0 380 0 c 2
 141 0 l 1
 141 336 l 1
 59 336 l 1
 59 489 l 1
 141 489 l 1
595 412 m 0
 595 556 532 657 329 657 c 1
 329 489 l 1
 438 489 l 1
 438 336 l 1
 329 336 l 1
 329 168 l 1
 532 168 595 268 595 412 c 0
EndSplineSet
EndChar

StartChar: uni018A
Encoding: 394 394 330
Width: 855
Flags: W
HStem: 0 168<336 469.575> 657 168<336 469.575>
VStem: 148 188<168 490> 602 201<293.486 531.414>
LayerCount: 2
Fore
SplineSet
602 412 m 0
 602 556 539 657 336 657 c 1
 336 168 l 1
 539 168 602 268 602 412 c 0
148 825 m 1
 387 825 l 2
 613 825 803 653 803 413 c 0
 803 172 614 0 387 0 c 2
 148 0 l 1
 148 490 l 1
 52 615 l 1
 148 825 l 1
EndSplineSet
EndChar

StartChar: uni018B
Encoding: 395 395 331
Width: 718
Flags: W
HStem: 0 150<312.537 462.5> 369 150<312.537 462.5> 740 120<264.5 462.5>
VStem: 67.5 198<194.231 323.023> 462.5 188<150 369 519 740>
LayerCount: 2
Fore
SplineSet
462.5 369 m 1
 409.5 369 l 2
 335.5 369 265.5 344 265.5 260 c 0
 265.5 175 335.5 150 409.5 150 c 2
 462.5 150 l 1
 462.5 369 l 1
650.5 860 m 1
 650.5 0 l 1
 349.5 0 l 2
 188.5 0 67.5 83 67.5 254 c 0
 67.5 424 188.5 519 349.5 519 c 2
 462.5 519 l 1
 462.5 740 l 1
 264.5 740 l 1
 264.5 860 l 1
 650.5 860 l 1
EndSplineSet
EndChar

StartChar: uni018C
Encoding: 396 396 332
Width: 736
Flags: W
HStem: -15 151<306.557 421.689> 0 21G<493 668> 377 151<309.071 445.887> 740 120<282 491.332>
VStem: 68 188<186.537 325.882> 491.923 176.077<0 58 179.834 331.039 525.995 740>
LayerCount: 2
Fore
SplineSet
256 256 m 0xbc
 256 186 304 136 376 136 c 0
 436.416015625 136 482.264648438 174.333007812 492.73828125 230.860351562 c 1
 492.59765625 281.5625 l 1
 481.55859375 338.708984375 433.756835938 377 376 377 c 0
 309 377 256 327 256 256 c 0xbc
668 0 m 1x7c
 493 0 l 1x7c
 493 58 l 1
 455 16 393 -15 323 -15 c 0xbc
 173 -15 68 106 68 256 c 0
 68 406 173 528 323 528 c 0
 353.203125 528 422.970703125 530.491210938 491.922851562 525.995117188 c 1
 491.33203125 740 l 1
 282 740 l 1
 282 860 l 1
 668 860 l 1
 668 0 l 1x7c
EndSplineSet
EndChar

StartChar: uni018D
Encoding: 397 397 333
Width: 732
Flags: W
HStem: 39.4697 151<304.557 444.613> 431.47 151<305.644 442.819>
VStem: 66 188<241.007 380.352> 489 177<-36.7197 91.4697 234.807 386.939>
LayerCount: 2
Fore
SplineSet
254 310.469726562 m 0
 254 240.469726562 302 190.469726562 374 190.469726562 c 0
 443 190.469726562 493 240.469726562 493 310.469726562 c 0
 493 381.469726562 440 431.469726562 374 431.469726562 c 0
 307 431.469726562 254 381.469726562 254 310.469726562 c 0
666 391.469726562 m 1
 666 40.4697265625 l 2
 666 -131.530273438 510.431640625 -260.327148438 336.03125 -274.807617188 c 0
 310.026367188 -276.966796875 209.999023438 -260.530273438 178.999023438 -245.530273438 c 1
 204.229492188 -103.805664062 l 1
 277.6796875 -123.966796875 290.797851562 -132.974609375 366.677734375 -119.887695312 c 0
 437.697265625 -107.638671875 489 -37.5302734375 489 53.4697265625 c 2
 489 91.4697265625 l 1
 451 49.4697265625 391 39.4697265625 321 39.4697265625 c 0
 171 39.4697265625 66 160.469726562 66 310.469726562 c 0
 66 460.469726562 171 582.469726562 321 582.469726562 c 0
 458 582.469726562 639 546.469726562 666 391.469726562 c 1
EndSplineSet
EndChar

StartChar: uni018E
Encoding: 398 398 334
Width: 614
Flags: W
HStem: 0 165<71 355> 331 165<83 355> 660 165<71 355>
VStem: 355 188<165 331 496 660>
LayerCount: 2
Fore
SplineSet
71 825 m 1
 543 825 l 1
 543 0 l 1
 71 0 l 1
 71 165 l 1
 355 165 l 1
 355 331 l 1
 83 331 l 1
 83 496 l 1
 355 496 l 1
 355 660 l 1
 71 660 l 1
 71 825 l 1
EndSplineSet
EndChar

StartChar: uni018F
Encoding: 399 399 335
Width: 835
Flags: W
HStem: -15 143.75<340.974 475.152> 248.75 112.5<285.25 529>
LayerCount: 2
Fore
SplineSet
529 248.75 m 1
 285.25 248.75 l 1
 295.25 181.25 341.5 128.75 406.5 128.75 c 0
 482.75 128.75 525.25 190 529 248.75 c 1
240.25 428.75 m 1
 80.25 496.25 l 1
 152.75 617.5 270.25 663.75 412.75 663.75 c 0
 606.5 663.75 765.25 511.25 765.25 325 c 0
 765.25 137.5 606.5 -15 412.75 -15 c 0
 217.75 -15 69 122.5 69 361.25 c 1
 535.25 361.25 l 1
 535.25 468.75 381.5 570 240.25 428.75 c 1
EndSplineSet
EndChar

StartChar: uni0190
Encoding: 400 400 336
Width: 720
Flags: W
HStem: -15 162<278.856 434.424> 371 123<304.094 395> 689 151<295.853 426.542>
LayerCount: 2
Fore
SplineSet
359 147 m 0
 483 147 494 273 494 273 c 1
 668 188 l 1
 668 188 612 -15 358 -15 c 0
 181 -15 52 98 52 256 c 0
 52 343 93 406 157 445 c 1
 112 480 84 532 84 600 c 0
 84 740 198 840 355 840 c 0
 586 840 628 659 628 659 c 1
 480 587 l 1
 480 587 461 689 357 689 c 0
 234.965820312 689 188 494 395 494 c 1
 395 371 l 1
 138 379 184.4765625 147 359 147 c 0
EndSplineSet
EndChar

StartChar: uni0191
Encoding: 401 401 337
Width: 608
Flags: W
HStem: 331 165<253 521> 660 165<253 543>
VStem: 65 188<-29.933 331 496 660>
LayerCount: 2
Fore
SplineSet
543 825 m 1
 543 660 l 1
 253 660 l 1
 253 496 l 1
 521 496 l 1
 521 331 l 1
 253 331 l 1
 253 85 l 2
 253 -37 192 -240 47 -240 c 0
 16.4033203125 -240 -48.5810546875 -112.420898438 -21.640625 -98 c 0
 49.0966796875 -60.1357421875 58.59765625 -0.3642578125 65 85 c 1
 65 825 l 1
 543 825 l 1
EndSplineSet
EndChar

StartChar: florin
Encoding: 402 402 338
Width: 667
Flags: W
HStem: 296 150<209.5 242.1 447.5 550.5>
LayerCount: 2
Fore
SplineSet
423.5 296 m 1
 448.583007812 124.55078125 112.444335938 -130.995117188 43.5 -151 c 1
 68.5 8 l 1
 138.938476562 56.30078125 252.235351562 204.206054688 241.5 296 c 1
 168.5 296 l 1
 209.5 446 l 1
 265.5 446 l 1
 265.403320312 548.43359375 479.4296875 767.91015625 623.5 755 c 1
 598.5 596 l 1
 577.045898438 642.297851562 437.143554688 514.74609375 447.5 446 c 1
 591.5 446 l 1
 550.5 296 l 1
 423.5 296 l 1
EndSplineSet
EndChar

StartChar: uni0194
Encoding: 404 404 339
Width: 953
Flags: W
HStem: 0 120<359.773 583.226> 805 20G<95.5 333.011 609.989 857.5>
LayerCount: 2
Fore
SplineSet
909.5 0 m 1
 43.5 0 l 1
 355.5 444 l 1
 95.5 825 l 1
 319.5 825 l 1
 471.5 600 l 1
 623.5 825 l 1
 857.5 825 l 1
 587.5 444 l 1
 909.5 0 l 1
583.225585938 120 m 1
 471.499023438 281 l 1
 359.7734375 120 l 1
 583.225585938 120 l 1
EndSplineSet
EndChar

StartChar: uni0195
Encoding: 405 405 340
Width: 1077
Flags: W
HStem: -148 144<658.405 793.767> 0 21G<72.9961 249.996> 390 138<313.857 412.571>
VStem: 72.9961 177<0 346.049 459 860> 447.996 177<33.2617 351.126> 826.996 177<33.2631 528>
LayerCount: 2
Fore
SplineSet
249.99609375 860 m 1
 249.99609375 459 l 1
 289.99609375 499 342.99609375 528 398.99609375 528 c 0
 492.99609375 528 623.99609375 481 623.99609375 338 c 2
 624.99609375 136 l 2
 625.49609375 35 651.99609375 -4 725.99609375 -4 c 0
 799.99609375 -4 827.595703125 35.00390625 826.99609375 136 c 2
 826.99609375 528 l 1
 1003.99609375 528 l 1
 1003.99609375 93 l 2
 1004.90136719 -78.9951171875 917.99609375 -148 725.99609375 -148 c 0
 533.99609375 -148 447.99609375 -79 447.99609375 93 c 2
 446.99609375 290 l 2
 446.99609375 341 411.99609375 390 354.99609375 390 c 0
 301.99609375 390 249.99609375 341 249.99609375 290 c 2
 249.99609375 0 l 1
 72.99609375 0 l 1
 72.99609375 860 l 1
 249.99609375 860 l 1
EndSplineSet
EndChar

StartChar: uni0196
Encoding: 406 406 341
Width: 401
Flags: W
HStem: 0 21G<251.527 307.944>
VStem: 59.501 174.999<153.529 940>
LayerCount: 2
Fore
SplineSet
59.5009765625 199 m 1
 57.5 940 l 1
 234.5 940 l 1
 234.5 191 l 1
 235.56640625 140.153320312 328.326171875 113.049804688 343.5 113 c 1
 343.5 113 322.334960938 21.2880859375 293.553710938 0 c 1
 209.5 0 170.53515625 -4.296875 151.5 3 c 0
 83.9208984375 28.9052734375 63.0068359375 108.52734375 59.5009765625 199 c 1
EndSplineSet
EndChar

StartChar: uni0197
Encoding: 407 407 342
Width: 601
Flags: W
HStem: 0 21G<206.5 394.5> 350 116<57.5 206.5 394.5 543.5> 805 20G<206.5 394.5>
VStem: 206.5 188<0 350 466 825>
LayerCount: 2
Fore
SplineSet
394.5 350 m 1
 394.5 0 l 1
 206.5 0 l 1
 206.5 350 l 1
 57.5 350 l 1
 57.5 466 l 1
 206.5 466 l 1
 206.5 825 l 1
 394.5 825 l 1
 394.5 466 l 1
 543.5 466 l 1
 543.5 350 l 1
 394.5 350 l 1
EndSplineSet
EndChar

StartChar: uni0199
Encoding: 409 409 343
Width: 728
Flags: W
HStem: 0 21G<59 236 421 669> 493 20G<395 645> 801 124<259.515 367>
VStem: 59 177<0 205 334 779.657>
LayerCount: 2
Fore
SplineSet
645 513 m 1
 401 268 l 1
 669 0 l 1
 441 0 l 1
 236 205 l 1
 236 0 l 1
 59 0 l 1
 59 752 l 2
 59.392578125 822.868164062 154 922 367 925 c 1
 403 801 l 1
 326 828 236 786 236 752 c 2
 236 334 l 1
 415 513 l 1
 645 513 l 1
EndSplineSet
EndChar

StartChar: uni019A
Encoding: 410 410 344
Width: 455
Flags: W
HStem: 0 21G<139.5 316.5> 350 116<56.5 139.5 316.5 398.5>
VStem: 139.5 177<0 350 466 860>
LayerCount: 2
Fore
SplineSet
139.5 350 m 1
 56.5 350 l 1
 56.5 466 l 1
 139.5 466 l 1
 139.5 860 l 1
 316.5 860 l 1
 316.5 466 l 1
 398.5 466 l 1
 398.5 350 l 1
 316.5 350 l 1
 316.5 0 l 1
 139.5 0 l 1
 139.5 350 l 1
EndSplineSet
EndChar

